<?xml version="1.0" encoding="UTF-8"?>
<svg width="140px" height="140px" viewBox="0 0 140 140" version="1.1" xmlns="http://www.w3.org/2000/svg" xmlns:xlink="http://www.w3.org/1999/xlink">
    <title>icon_软件病毒库_off</title>
    <g id="icon_软件病毒库_off" stroke="none" stroke-width="1" fill="none" fill-rule="evenodd">
        <rect id="矩形备份-11" fill="#FFFFFF" opacity="0" x="0" y="0" width="140" height="140"></rect>
        <g id="编组" transform="translate(28.000000, 28.000000)" fill-rule="nonzero">
            <path d="M1.5,42 C0.804255825,41.9988441 0.200628931,41.5194202 0.042,40.842 L0,40.5 L0,37.5 C0.00115594939,36.8042558 0.480579779,36.2006289 1.158,36.042 L1.5,36 L12.6,36 L12.54,36.3 C13.5418454,31.1093828 15.9020365,26.2772022 19.38,22.296 L20.172,21.42 L14.238,15.48 C13.7626465,15.0020806 13.6644717,14.2657703 13.998,13.68 L14.238,13.362 L16.362,11.238 C16.8399194,10.7626465 17.5762297,10.6644717 18.162,10.998 L18.486,11.238 L24.714,17.478 L24.666,17.508 C28.9599497,14.4602803 33.9840809,12.6034011 39.228,12.126 L39,12.15 L39,1.5 C39.0011559,0.804255825 39.4805798,0.200628931 40.158,0.042 L40.5,0 L43.5,0 C44.1957442,0.00115594939 44.7993711,0.480579779 44.958,1.158 L45,1.5 L45,12.15 L44.76,12.126 C49.4296566,12.5499149 53.9335399,14.0690248 57.906,16.56 L59.286,17.478 L63.396,13.362 C63.9814046,12.7784237 64.9285954,12.7784237 65.514,13.362 L67.638,15.486 C68.2215763,16.0714046 68.2215763,17.0185954 67.638,17.604 L63.828,21.42 L63.57,21.15 C67.2341901,24.9340883 69.8356604,29.6175626 71.112,34.728 L71.4,36 L82.5,36 C83.1957442,36.0011559 83.7993711,36.4805798 83.958,37.158 L84,37.5 L84,40.5 C83.9988441,41.1957442 83.5194202,41.7993711 82.842,41.958 L82.5,42 L72,42 C72,47.916 70.284,53.436 67.326,58.08 L66.522,59.28 L75.762,68.52 C76.2373535,68.9979194 76.3355283,69.7342297 76.002,70.32 L75.762,70.638 L73.638,72.762 C73.1600806,73.2373535 72.4237703,73.3355283 71.838,73.002 L71.514,72.762 L62.58,63.822 L62.85,63.57 C58.3421438,67.939289 52.5737552,70.7794017 46.362,71.688 L45.006,71.85 L45,82.5 C44.9988441,83.1957442 44.5194202,83.7993711 43.842,83.958 L43.5,84 L40.5,84 C39.8042558,83.9988441 39.2006289,83.5194202 39.042,82.842 L39,82.5 L39,71.85 L39.228,71.874 C32.953212,71.2997673 27.0205548,68.7566 22.278,64.608 L21.42,63.828 L14.604,70.638 C14.0185954,71.2215763 13.0714046,71.2215763 12.486,70.638 L10.362,68.514 C9.77842367,67.9285954 9.77842367,66.9814046 10.362,66.396 L17.478,59.286 L17.508,59.334 C13.9142539,54.2692914 11.9889243,48.210166 12,42 L1.5,42 Z M42,18.5581395 C28.7079333,18.5581395 17.9325843,29.2720696 17.9325843,42.4883721 C17.9325843,55.7046746 28.7079333,66.4186047 42,66.4186047 C55.2920667,66.4186047 66.0674157,55.7046746 66.0674157,42.4883721 C66.0674157,29.2720696 55.2920667,18.5581395 42,18.5581395 Z" id="形状" fill="#7F899C"></path>
            <path d="M38.6966292,54.6976744 C40.2604018,54.6976744 41.5280899,56.0095842 41.5280899,57.627907 C41.5280899,59.2462297 40.2604018,60.5581395 38.6966292,60.5581395 C37.1328567,60.5581395 35.8651685,59.2462297 35.8651685,57.627907 C35.8651685,56.0095842 37.1328567,54.6976744 38.6966292,54.6976744 Z" id="路径" fill="#4A66BE"></path>
            <path d="M52.8539326,45.9069767 C55.4602202,45.9069767 57.5730337,47.8748414 57.5730337,50.3023256 C57.5730337,52.7298097 55.4602202,54.6976744 52.8539326,54.6976744 C50.247645,54.6976744 48.1348315,52.7298097 48.1348315,50.3023256 C48.1348315,47.8748414 50.247645,45.9069767 52.8539326,45.9069767 Z" id="路径" fill="#4A66BE"></path>
            <path d="M39.1685393,24.4186047 C44.1204857,24.4186047 48.1348315,28.3543341 48.1348315,33.2093023 C48.1348315,38.0642706 44.1204857,42 39.1685393,42 C34.2165929,42 30.2022472,38.0642706 30.2022472,33.2093023 C30.2022472,28.3543341 34.2165929,24.4186047 39.1685393,24.4186047 Z M38.6966292,30.2790698 C37.1328567,30.2790698 35.8651685,31.5909796 35.8651685,33.2093023 C35.8651685,34.8276251 37.1328567,36.1395349 38.6966292,36.1395349 C40.2604018,36.1395349 41.5280899,34.8276251 41.5280899,33.2093023 C41.5280899,31.5909796 40.2604018,30.2790698 38.6966292,30.2790698 Z" id="形状结合" fill="#4A66BE"></path>
        </g>
    </g>
</svg>