<?xml version="1.0" encoding="UTF-8"?>
<svg width="140px" height="140px" viewBox="0 0 140 140" version="1.1" xmlns="http://www.w3.org/2000/svg" xmlns:xlink="http://www.w3.org/1999/xlink">
    <title>icon_APP信息_hover </title>
    <g id="icon_APP信息_hover-" stroke="none" stroke-width="1" fill="none" fill-rule="evenodd">
        <rect id="矩形备份-11" fill="#FFFFFF" opacity="0" x="0" y="0" width="140" height="140"></rect>
        <g id="编组" transform="translate(39.000000, 33.000000)" fill="#FFFFFF" fill-rule="nonzero">
            <path d="M58.8373679,10.2484583 L57.993623,10.2484583 L57.993623,9.22363688 C57.993623,4.1444517 53.842372,0 48.7799024,0 L14.219935,0 C9.14616566,0 5.00613314,4.15576355 5.00613314,9.22363688 L5.00613314,10.2484583 L4.16246951,10.2484583 C1.86755487,10.2484583 0,12.1180066 0,14.4154523 L0,35.9258785 C0,38.2232428 1.86747358,40.0927911 4.16246951,40.0927911 L5.00629573,40.0927911 L5.00629573,64.5764445 C5.00629573,69.6555483 9.15746545,73.8 14.2200163,73.8 L48.7799837,73.8 C53.853753,73.8 57.9937856,69.6443178 57.9937856,64.5763631 L57.9937856,40.0928725 L58.8374492,40.0928725 C61.1325264,40.0928725 63,38.2234055 63,35.9259599 L63,14.4154523 C63,12.1180066 61.1437449,10.2484583 58.8374492,10.2484583 L58.8373679,10.2484583 Z M9.61856201,9.22363688 C9.61856201,6.68970022 11.6886189,4.6062032 14.2311535,4.6062032 L48.7911209,4.6062032 C51.322437,4.6062032 53.4037124,6.67838836 53.4037124,9.22363688 L53.4037124,10.2484583 L9.61856201,10.2484583 L9.61856201,9.22363688 L9.61856201,9.22363688 Z M53.3924126,64.5764445 C53.3924126,67.1103812 51.322437,69.1938782 48.7799024,69.1938782 L14.219935,69.1938782 C11.6886189,69.1938782 9.60734351,67.1216116 9.60734351,64.5763631 L9.60734351,57.6614838 L53.3811941,57.6614838 L53.3811941,64.5763631 L53.3924126,64.5764445 Z M53.3924126,53.0440501 L9.6186433,53.0440501 L9.6186433,40.0928725 L53.3924126,40.0928725 L53.3924126,53.0442129 L53.3924126,53.0440501 Z M58.4999187,35.5879877 L4.49983741,35.5879877 L4.49983741,14.7532617 L58.4999187,14.7532617 L58.4999187,35.5879877 L58.4999187,35.5879877 Z" id="形状"></path>
            <path d="M31.1762912,66.6 C33.0150206,66.6 34.6183187,65.0099959 34.6183187,63.186593 C34.6183187,61.3631901 33.0150206,59.7731859 31.1763722,59.7731859 C29.3377238,59.7731859 27.7344256,61.3631901 27.7344256,63.186593 C27.7344256,65.0099959 29.3489039,66.6 31.1763722,66.6 L31.1762912,66.6 Z M9.29147378,33.9559058 L9.3139151,33.9559058 C10.177217,33.9559058 10.9508347,33.4332693 11.2535089,32.6327235 L11.7804342,31.2651914 L17.845908,31.2651914 L18.3952746,32.6438913 C18.7092099,33.4332693 19.4828276,33.9559058 20.3348684,33.9559058 C21.8147798,33.9559058 22.8238288,32.4770975 22.263282,31.1205725 L17.1843348,18.6679238 C16.8031566,17.7228395 15.8726117,17.1001749 14.8411215,17.1001749 C13.8208924,17.1001749 12.8902665,17.7116717 12.4979081,18.656756 L7.35179897,31.1095654 C6.80251339,32.4660101 7.81148132,33.9559058 9.29139277,33.9559058 L9.29147378,33.9559058 Z M14.807581,23.4599503 L16.4781221,27.7627634 L13.1258598,27.7627634 L14.807581,23.4599503 Z M28.9789058,33.9557522 C29.5264629,33.9571796 30.0520104,33.7421018 30.4391931,33.3581295 C30.8263758,32.9741572 31.0432518,32.4529675 31.0418053,31.9099505 L31.0418053,28.5743966 L32.7684092,28.5743966 C36.3784631,28.5743966 38.97963,26.017053 38.97963,22.8594606 C38.97963,19.7018683 36.4009044,17.1000071 33.0038404,17.1000071 L28.9789058,17.1000071 C28.4313487,17.0985797 27.9058013,17.3136575 27.5186186,17.6976298 C27.1314359,18.0816021 26.9145598,18.6027918 26.9159991,19.1458088 L26.9159991,31.9099505 C26.9159991,33.032916 27.8465512,33.9557522 28.9789058,33.9557522 L28.9789058,33.9557522 Z M31.0530665,21.1916034 L32.7795893,21.1916034 C34.2932033,21.1916034 34.85375,22.103345 34.85375,23.0150866 C34.85375,24.1380521 34.1250149,25.0942239 32.5665994,25.0942239 L31.0530665,25.0942239 L31.0530665,21.1916034 Z M44.8992758,33.9558326 C45.446847,33.95726 45.9724068,33.7421712 46.3595918,33.3581815 C46.7467769,32.9741918 46.9636434,32.4529814 46.9621753,31.9099505 L46.9621753,28.5743966 L48.6887792,28.5743966 C52.298833,28.5743966 54.9,26.017053 54.9,22.8594606 C54.9,19.7018683 52.3212744,17.1000071 48.9242914,17.1000071 L44.8992758,17.1000071 C44.3517187,17.0985797 43.8261713,17.3136575 43.4389886,17.6976298 C43.0518059,18.0816021 42.8349298,18.6027918 42.8362752,19.1458088 L42.8362752,31.9099505 C42.8251151,33.032916 43.755741,33.9558326 44.8992758,33.9558326 L44.8992758,33.9558326 Z M46.9621753,21.1916034 L48.6887792,21.1916034 C50.2023121,21.1916034 50.7629398,22.103345 50.7629398,23.0150866 C50.7629398,24.1380521 50.0342048,25.0942239 48.4757892,25.0942239 L46.9621753,25.0942239 L46.9621753,21.1916034 Z" id="形状"></path>
        </g>
    </g>
</svg>