<?xml version="1.0" encoding="UTF-8"?>
<svg width="140px" height="140px" viewBox="0 0 140 140" version="1.1" xmlns="http://www.w3.org/2000/svg" xmlns:xlink="http://www.w3.org/1999/xlink">
    <title>icon_身份证归属地_hover </title>
    <g id="icon_身份证归属地_hover-" stroke="none" stroke-width="1" fill="none" fill-rule="evenodd">
        <rect id="矩形备份-11" fill="#FFFFFF" opacity="0" x="0" y="0" width="140" height="140"></rect>
        <g id="编组" transform="translate(31.000000, 42.000000)" fill="#FFFFFF" fill-rule="nonzero">
            <path d="M68.4468239,0 L8.55317611,0 C3.83399003,0.00711831728 0.00943309005,3.85622837 0,8.60808628 L0,47.3789758 C0.00235184475,52.1342055 3.82637135,55.9904901 8.54889311,56 L68.4425409,56 C73.1667378,55.9952454 76.9952781,52.140196 77,47.3832884 L77,8.61239893 C76.992924,3.85885674 73.1676785,0.00712499081 68.4468239,0 Z M72.7255534,47.3832884 C72.7231925,49.7617422 70.8089224,51.6892669 68.4468239,51.6916442 L8.55317611,51.6916442 C6.19275041,51.6868919 4.28108523,49.7600614 4.27872953,47.3832884 L4.27872953,8.61239893 C4.28107767,6.23730468 6.19014055,4.3111672 8.54889311,4.30404311 L68.4425409,4.30404311 C70.8063106,4.30642327 72.7212716,6.23657376 72.7212704,8.61671159 L72.7212704,47.3832884 L72.7255534,47.3832884 Z" id="形状"></path>
            <path d="M60.8832082,29.6870229 C63.2929125,27.6893865 64.6892365,24.7403609 64.6988308,21.628457 C64.6941002,15.7637849 59.8965135,11.0093816 53.9738375,11 C48.0511588,11.0070334 43.2516503,15.7595332 43.2445473,21.6242022 C43.2445473,24.8620949 44.7484527,27.729821 47.0687637,29.6827681 C42.0906495,32.2363252 38.9615635,37.3211101 38.9519719,42.8726067 C38.9519719,44.0475336 39.9138595,45 41.1004081,45 C42.2869566,45 43.2488442,44.0475336 43.2488442,42.8726067 C43.2559418,37.009596 48.0528369,32.257781 53.9738375,32.2484044 C59.8965162,32.2554378 64.6960248,37.0079376 64.7031277,42.8726067 C64.7031277,44.0475336 65.6650153,45 66.8515639,45 C68.0381124,45 69,44.0475336 69,42.8726067 C68.9912412,37.3220394 65.8639535,32.2374853 60.8875051,29.6827681 L60.8832082,29.6870229 Z M47.528529,21.628457 C47.528529,19.3513638 48.7553599,17.247243 50.7468864,16.1086964 C52.7384129,14.9701498 55.1920747,14.9701498 57.1836012,16.1086964 C59.1751277,17.247243 60.4019585,19.3513638 60.4019585,21.628457 C60.4019585,25.1485379 57.5201431,28.0021272 53.9652438,28.0021272 C50.4103445,28.0021272 47.528529,25.1485379 47.528529,21.628457 L47.528529,21.628457 Z M36.8035357,15.2547866 L11.0480831,15.2547866 C9.91653399,15.3257575 9.03545781,16.2552136 9.03545781,17.3779252 C9.03545781,18.5006367 9.91653399,19.4300928 11.0480831,19.5010637 L36.7992389,19.5010637 C37.9307879,19.4300928 38.8118641,18.5006367 38.8118641,17.3779252 C38.8118641,16.2552136 37.9307879,15.3257575 36.7992389,15.2547866 L36.8035357,15.2547866 Z M34.6550996,25.8789889 L11.0523799,25.8789889 C9.90433419,25.9298663 9.00000061,26.8663156 9.00000061,28.0042548 C9.00000061,29.1421939 9.90433419,30.0786433 11.0523799,30.1295207 L34.6550996,30.1295207 C35.8416481,30.1295207 36.8035357,29.1770543 36.8035357,28.0021274 C36.8035357,26.8272005 35.8416481,25.8747341 34.6550996,25.8747341 L34.6550996,25.8789889 Z M28.2183848,36.5031911 L11.0523799,36.5031911 C9.90433394,36.5540682 9,37.4905176 9,38.628457 C9,39.7663964 9.90433394,40.7028459 11.0523799,40.753723 L28.2183848,40.753723 C29.4049334,40.753723 30.366821,39.8012565 30.366821,38.6263296 C30.366821,37.4514027 29.4049334,36.4989363 28.2183848,36.4989363 L28.2183848,36.5031911 Z" id="形状"></path>
        </g>
    </g>
</svg>