<?xml version="1.0" encoding="UTF-8"?>
<svg width="140px" height="140px" viewBox="0 0 140 140" version="1.1" xmlns="http://www.w3.org/2000/svg" xmlns:xlink="http://www.w3.org/1999/xlink">
    <title>icon_经营风险-经营异常</title>
    <g id="icon_经营风险-经营异常" stroke="none" stroke-width="1" fill="none" fill-rule="evenodd">
        <rect id="矩形备份-11" fill="#FFFFFF" opacity="0" x="0" y="0" width="140" height="140"></rect>
        <path d="M86.3520101,38 C89.9247132,38 92.8169014,40.895157 92.8169014,44.4715274 L92.8169014,65.4188398 C91.119566,65.2274509 89.4049878,65.2491912 87.7130398,65.483555 L87.7130398,44.4715274 C87.7130398,43.7190799 87.103686,43.1091006 86.3520101,43.1091006 L40.4648914,43.1091006 C39.7132154,43.1091006 39.1038616,43.7190799 39.1038616,44.4715274 L39.1038616,95.5284726 C39.1038616,96.2778073 39.716325,96.8908994 40.4648914,96.8908994 L73.6842255,96.8908994 C75.0112295,98.8664183 76.6750884,100.5967 78.5941404,102 L40.4648914,102 C36.8944305,102 34,99.1025985 34,95.5284726 L34,44.4715274 C34,40.895157 36.8921883,38 40.4648914,38 L86.3520101,38 Z M90.5609698,70.5096521 C96.0491032,70.4273227 101.155885,73.3132196 103.923951,78.0612152 C106.692016,82.8092108 106.692016,88.6828527 103.923951,93.4308483 C101.155885,98.1788439 96.0491032,101.064741 90.5609698,100.982411 C82.2497634,100.857732 75.5774648,94.0728259 75.5774648,85.7460317 C75.5774648,77.4192376 82.2497634,70.6343316 90.5609698,70.5096521 L90.5609698,70.5096521 Z M92.8169014,91.8412698 L88.7605634,91.8412698 L88.7605634,94.8888889 L92.8169014,94.8888889 L92.8169014,91.8412698 Z M65.943662,84.7301587 C67.3438205,84.7301587 68.4788732,85.8672133 68.4788732,87.2698413 C68.4788732,88.6724692 67.3438205,89.8095238 65.943662,89.8095238 L45.6619718,89.8095238 C44.2618133,89.8095238 43.1267606,88.6724692 43.1267606,87.2698413 C43.1267606,85.8672133 44.2618133,84.7301587 45.6619718,84.7301587 L65.943662,84.7301587 Z M92.8169014,76.6031746 L87.7464789,76.6031746 L87.7464789,87.7777778 L92.8169014,87.7777778 L92.8169014,76.6031746 L92.8169014,76.6031746 Z M65.943662,76.6031746 C67.3438205,76.6031746 68.4788732,77.7402292 68.4788732,79.1428571 C68.4788732,80.5454851 67.3438205,81.6825397 65.943662,81.6825397 L45.6619718,81.6825397 C44.2618133,81.6825397 43.1267606,80.5454851 43.1267606,79.1428571 C43.1267606,77.7402292 44.2618133,76.6031746 45.6619718,76.6031746 L65.943662,76.6031746 Z M81.0937627,49.1756911 C82.4871745,49.1345764 83.6491394,50.2639228 83.6890839,51.698157 C83.7290284,53.1323912 82.6318263,54.3283977 81.2384145,54.3695125 C76.5792832,54.5045518 74.7290866,55.4567524 72.2901912,58.2821913 C72.357471,58.2025527 71.6981283,58.9920136 70.9815975,59.8334126 L69.5619922,61.4677351 C68.2904026,62.8631418 66.985173,64.0646457 65.4410999,65.2142115 L64.4655417,65.8997959 C58.948592,69.6081844 52.7083836,70.4461209 45.9568482,68.410143 C44.6191728,68.0076013 43.8518091,66.5651073 44.2428934,65.1882424 C44.6339776,63.8113776 46.0354142,63.0215327 47.3730895,63.4240745 C52.9909591,65.1207228 57.90239,64.3485747 62.3327696,61.1145552 L63.227592,60.4289708 C64.1829662,59.6568226 65.0374207,58.8396614 65.888511,57.9082362 C66.5276699,57.2088015 68.5763421,54.764243 68.5157902,54.8334939 L69.0405732,54.2448608 C72.1892713,50.806551 75.3110576,49.3453559 81.0937627,49.1756911 L81.0937627,49.1756911 Z" id="形状" fill="#FFFFFF" fill-rule="nonzero"></path>
    </g>
</svg>