<?xml version="1.0" encoding="UTF-8"?>
<svg width="140px" height="140px" viewBox="0 0 140 140" version="1.1" xmlns="http://www.w3.org/2000/svg" xmlns:xlink="http://www.w3.org/1999/xlink">
    <title>icon_世界地区_hover</title>
    <g id="icon_世界地区_hover" stroke="none" stroke-width="1" fill="none" fill-rule="evenodd">
        <rect id="矩形备份-11" fill="#FFFFFF" opacity="0" x="0" y="0" width="140" height="140"></rect>
        <g id="编组" transform="translate(34.000000, 34.000000)" fill="#FFFFFF" fill-rule="nonzero">
            <path d="M35.9094547,0 C16.1483418,0 0.0707429847,16.0925941 0.0707429847,35.8737245 C0.0707429847,55.6547832 16.1483418,71.747449 35.9094547,71.747449 C55.673007,71.747449 71.7506059,55.6547832 71.7506059,35.8737245 C71.7506059,16.0938855 55.673007,0 35.9094547,0 Z M35.570743,67 C18.2042659,67 4.07074298,52.8539402 4.07074298,35.4699341 C4.07074298,32.6770359 4.44158745,29.8636782 5.12453674,27.2830742 C5.26775589,27.3099135 5.41610835,27.2242624 5.56702745,27.2242624 L6.00181821,27.2242624 L6.00181821,29.721782 C6.00181821,30.7883133 6.96863915,31.6540634 8.03511949,31.6540634 C8.2141251,31.6540634 8.43669045,31.6207709 8.60293613,31.5747188 L12.6619121,35.6131503 C13.0659763,36.0172794 13.7335257,36.0172794 14.14023,35.6131503 C14.5443676,35.2065279 14.5519942,34.5504322 14.1479299,34.1450564 L10.2091466,30.0260338 C10.2219065,29.9263031 10.4137454,29.8252525 10.4137454,29.7217086 L10.4137454,29.1053585 C10.4137454,28.2728276 10.8945892,27.959556 11.723251,27.2242624 L14.1376633,27.2242624 C14.592914,27.2242624 15.0072448,27.1910433 15.3704627,26.9723692 C15.4139491,26.9467766 15.4574355,26.9761824 15.4983553,26.9480232 C15.5827614,26.8904581 15.6569743,26.8482925 15.7336072,26.781781 C15.7693937,26.7498085 15.8078201,26.7408621 15.8410399,26.707643 L15.9305794,26.6244852 L24.2276102,18.323815 C25.1483781,17.4018198 25.1483781,15.9094532 24.2276102,14.9887046 C23.3068423,14.0667094 21.8131978,14.2264985 20.89243,15.147247 L19.2836528,16.9158528 L16.2988572,16.9158528 L16.2988572,14.4196533 C16.2988572,14.3774144 16.5571357,14.7074055 16.5571357,13.970792 L19.9127758,13.970792 C20.5521653,13.970792 21.0687956,13.5052845 21.0687956,12.8659084 C21.0687956,12.2265322 20.5521653,11.7610247 19.9127758,11.7610247 L14.5826474,11.7610247 C20.1582943,7.34405678 27.5140974,4 35.5706697,4 C43.3177771,4 50.417795,6.60744325 55.9091091,11.7610247 L49.2131555,11.7610247 C49.1977556,11.7610247 49.1875623,11.5985958 49.1748024,11.5999157 C48.9369838,11.5871561 48.6990919,11.5807029 48.5174463,11.7610247 L45.7602759,14.4772184 C45.4226513,14.8174026 45.4200846,15.3467817 45.7602759,15.6869659 C46.1004673,16.0258301 46.6503907,16.0155637 46.9905086,15.6754529 L49.1696691,13.3595751 C49.1849956,13.3595751 49.1977556,13.2342518 49.2131555,13.2342518 L50.5149611,13.2342518 C50.4970679,13.970792 50.13649,13.7291652 50.13649,13.8519219 L50.13649,14.2394048 C50.13649,15.3711277 49.3640746,16.179386 48.2335746,16.179386 L46.2591596,16.179386 C45.2847121,16.179386 44.2513782,17.2778164 44.2513782,18.2523169 L44.2513782,19.1243735 L43.8063942,19.1243735 C43.1976578,19.1243735 42.7807603,19.4376451 42.7807603,20.0451221 L42.7807603,21.3328941 L41.5429009,21.3328941 C40.6733194,21.3328941 39.9699102,21.9301047 39.9699102,22.7984214 C39.9699102,23.6667381 40.6733194,24.1436852 41.5429009,24.1436852 C41.9265053,24.1436852 42.2717566,24.277955 42.5429417,23.5414148 L42.5455083,23.5414148 L42.7578071,23.5964133 L45.2872787,21.3328941 L46.1850201,21.3328941 L48.2157547,23.2689887 C48.3820737,23.4364776 48.6531121,23.3879322 48.8193578,23.2216167 C48.9881701,23.0528079 48.9881701,22.6193462 48.8193578,22.451784 L47.1312345,20.5962806 L48.3538406,20.5962806 L48.8320444,21.2165172 C49.7808988,22.1653517 51.3232363,22.0963469 52.2720907,21.1475124 L52.7529345,20.5963539 L54.8502554,20.5963539 C54.9269616,20.5963539 55.2850462,20.8623268 55.2850462,20.8521337 L55.2850462,22.1079333 C55.2850462,22.1066867 55.0395276,22.069581 55.0165011,22.069581 L53.1418189,22.069581 C52.5433491,22.069581 52.057372,22.5746874 52.057372,23.1744646 C52.057372,23.7742418 52.5407824,24.2780283 53.1418189,24.2780283 L55.0165011,24.2780283 C55.0395276,24.2780283 55.2850462,24.2575688 55.2850462,24.2563222 L55.2850462,25.0402345 C54.5484905,26.1336051 54.0037004,27.2231625 52.9116269,27.2231625 L47.9651029,27.2231625 C47.9574762,27.2231625 47.9523429,27.1975698 47.944643,27.18987 L45.7220695,24.9634565 C44.7732151,24.014622 43.2360109,24.0120554 42.2870832,24.9634565 L40.0645097,27.1911167 C40.0568831,27.1987431 40.0516764,27.2230891 40.0440498,27.2230891 L38.7294109,27.2230891 C37.3866122,27.2230891 36.1563795,28.2972469 36.1563795,29.6412641 L36.1563795,34.4508482 C36.1563795,35.7922988 37.3866122,36.7948852 38.7294109,36.7948852 L43.4483096,36.7948852 C45.2283924,37.5314987 46.4561318,38.636309 47.1926874,40.4189945 L47.1926874,49.214578 C47.1926874,50.5598419 48.0699689,51.5189428 49.4126943,51.5189428 L53.1980652,51.5189428 C54.5408639,51.5189428 55.2850462,50.5598419 55.2850462,49.214578 L55.2850462,40.7104866 L59.9553985,36.2065477 L60.1292708,36.1221433 L60.2239436,36.0710313 L60.3799226,36.0658981 C60.766167,35.6336831 61.1676646,35.0723315 61.1676646,34.4495282 L61.1676646,29.6412641 C61.1676646,28.6860498 60.3338696,27.9596293 59.530801,27.2243358 L61.7560145,27.2243358 C61.8198874,28.6974895 62.8711145,29.4328564 64.1729935,29.4328564 L66.5464128,29.4328564 C66.8840374,31.6413037 67.070743,33.3536644 67.070743,35.2974588 C67.070743,52.6825648 52.94228,67 35.570743,67 Z" id="形状"></path>
            <path d="M42.1052774,18.8214365 C42.4556202,18.8214365 42.82103,18.5361687 42.82103,18.1846062 L42.82103,16.6131218 C42.82103,16.2615593 42.4556202,15.9762915 42.1052774,15.9762915 C41.7524952,15.9762915 41.3870855,16.2615593 41.3870855,16.6131218 L41.3870855,18.1846062 C41.3870855,18.5361687 41.7524952,18.8214365 42.1052774,18.8214365 Z M21.1105389,34.5925303 L17.6797911,34.5925303 C16.3710459,34.5925303 15.5653221,35.6523119 15.5653221,36.9647162 L15.5653221,45.8881617 C15.5653221,47.1968351 16.3710459,48.2353795 17.6797911,48.2353795 L19.1511878,48.2353795 L19.1511878,57.2538186 C19.1511878,58.5250399 20.3898358,59.555979 21.6610571,59.555979 C22.9322784,59.555979 24.1709263,58.5250399 24.1709263,57.2538186 L24.1709263,51.8236846 L24.0858339,51.8236846 C25.3945791,51.8236846 26.3229911,51.1004703 26.3229911,49.7917969 L26.3229911,48.2353795 L27.0111209,48.2353795 C28.3223772,48.2353795 29.193176,47.1968351 29.193176,45.8881617 L29.193176,42.8527423 C29.193176,42.8277025 29.2257494,42.8101961 29.1981983,42.7801339 L21.1105389,34.5925303 Z M37.673581,10.9002312 C37.673581,9.61150351 36.6276467,8.74694675 35.338919,8.74694675 L32.5512436,8.74694675 C31.2650271,8.74694675 30.3942283,9.67528699 30.3942283,10.9640147 C30.3942283,11.1367108 29.9087851,11.1867188 30.626977,11.3481505 L30.626977,13.7717076 C30.626977,14.5274235 30.9472577,15.1405054 31.7029735,15.1405054 C32.4586894,15.1405054 32.77897,14.5274235 32.77897,13.7717076 L32.77897,13.0548071 L35.338919,13.0548071 C36.6276467,13.0548071 37.673581,12.1901786 37.673581,10.9002312 L37.673581,10.9002312 Z M38.4043288,14.4911193 L39.5203603,14.4911193 C39.8456633,14.4911193 40.1134965,14.4598374 40.1134965,14.1308036 C40.1134965,13.8042809 39.845735,13.7717076 39.5203603,13.7717076 L38.4043288,13.7717076 C38.0765147,13.7717076 37.8137755,13.8042809 37.8137755,14.1308036 C37.8137038,14.4586177 38.0764429,14.4911193 38.4043288,14.4911193 Z M26.5080995,14.2671955 C26.8734375,13.9006378 26.8734375,13.3075733 26.5080995,12.9409439 L23.9457111,10.3759726 C23.5778619,10.0094149 22.9873087,10.0094149 22.6219707,10.3759726 C22.2541215,10.7413106 22.2541215,11.3368862 22.6219707,11.7034439 L25.1843591,14.2684152 C25.5471859,14.6337532 26.1427615,14.6337532 26.5080995,14.2671955 Z M58.9611209,44.2816645 C58.4506378,44.2816645 57.8826132,44.6970823 57.8826132,45.2074936 L57.8826132,48.1002073 C57.8826132,48.6106904 58.4506378,49.0260364 58.9611209,49.0260364 C59.4715322,49.0260364 60.0371173,48.6106904 60.0371173,48.1002073 L60.0371173,45.2074936 C60.0371173,44.6970823 59.4715322,44.2816645 58.9611209,44.2816645 Z" id="形状"></path>
        </g>
    </g>
</svg>