<?xml version="1.0" encoding="UTF-8"?>
<svg width="140px" height="140px" viewBox="0 0 140 140" version="1.1" xmlns="http://www.w3.org/2000/svg" xmlns:xlink="http://www.w3.org/1999/xlink">
    <title>icon_法律诉讼-法院公告</title>
    <g id="icon_法律诉讼-法院公告" stroke="none" stroke-width="1" fill="none" fill-rule="evenodd">
        <rect id="矩形备份-11" fill="#FFFFFF" opacity="0" x="0" y="0" width="140" height="140"></rect>
        <path d="M94.9565839,34 C96.824614,34 98.6161344,34.7352258 99.9370312,36.0439362 C101.257928,37.3526465 102,39.1276387 102,40.9784347 L102,99.0215653 C102,100.872361 101.257928,102.647353 99.9370312,103.956064 C98.6161344,105.264774 96.824614,106 94.9565839,106 L45.0434161,106 C43.175386,106 41.3838656,105.264774 40.0629688,103.956064 C38.7420721,102.647353 38,100.872361 38,99.0215653 L38,40.9784347 C38,39.1276387 38.7420721,37.3526465 40.0629688,36.0439362 C41.3838656,34.7352258 43.175386,34 45.0434161,34 L94.9565839,34 Z M94.9565839,39.233826 L45.0434161,39.233826 L44.7264624,39.2617397 C43.8898879,39.4134111 43.2825619,40.1358155 43.2825619,40.9784347 L43.2825619,99.0215653 C43.2825619,99.4842643 43.4680801,99.9280124 43.7983043,100.25519 C44.1285285,100.582368 44.5764086,100.766174 45.0434161,100.766174 L94.9565839,100.766174 C95.4235914,100.766174 95.8714715,100.582368 96.2016957,100.25519 C96.5319199,99.9280124 96.717438,99.4842643 96.717438,99.0215653 L96.717438,40.9784347 C96.717438,40.5157357 96.5319199,40.0719876 96.2016957,39.74481 C95.8714715,39.4176325 95.4235914,39.233826 94.9565839,39.233826 Z M85.7121003,88.5783378 C87.1708396,88.5783378 88.3533813,89.7499697 88.3533813,91.1952508 C88.3533813,92.640532 87.1708396,93.8121638 85.7121003,93.8121638 L55.6085402,93.8121638 C54.149801,93.8121638 52.9672592,92.640532 52.9672592,91.1952508 C52.9672592,89.7499697 54.149801,88.5783378 55.6085402,88.5783378 L85.7121003,88.5783378 Z M85.7121003,78.2083838 C87.1708396,78.2083838 88.3533813,79.3800157 88.3533813,80.8252968 C88.3533813,82.270578 87.1708396,83.4422098 85.7121003,83.4422098 L55.6085402,83.4422098 C54.149801,83.4422098 52.9672592,82.270578 52.9672592,80.8252968 C52.9672592,79.3800157 54.149801,78.2083838 55.6085402,78.2083838 L85.7121003,78.2083838 Z M69.2833324,44.4885874 L73.6749024,52.3742185 L82.6059538,54.0769566 L76.3901392,60.6541313 L77.5170858,69.5935062 L69.2833324,65.769324 L61.0495791,69.5969954 L62.1765256,60.6576205 L55.9607109,54.0769566 L64.8917625,52.3777078 L69.2833324,44.4885874 L69.2833324,44.4885874 Z" id="形状" fill="#FFFFFF" fill-rule="nonzero"></path>
    </g>
</svg>