<?xml version="1.0" encoding="UTF-8"?>
<svg width="140px" height="140px" viewBox="0 0 140 140" version="1.1" xmlns="http://www.w3.org/2000/svg" xmlns:xlink="http://www.w3.org/1999/xlink">
    <title>icon_POI信息_hover</title>
    <g id="icon_POI信息_hover" stroke="none" stroke-width="1" fill="none" fill-rule="evenodd">
        <rect id="矩形备份-11" fill="#FFFFFF" opacity="0" x="0" y="0" width="140" height="140"></rect>
        <g id="POI" transform="translate(36.000000, 52.000000)" fill="#FFFFFF" fill-rule="nonzero">
            <path d="M6.90808313,36.486169 L6.90808313,23.0304766 C7.6143187,23.1702542 8.45855697,23.2195878 9.44890362,23.2195878 C14.8511972,23.2195878 23.1271714,21.024252 23.1271714,11.165826 C23.1271714,7.84816178 21.8080528,4.95393795 19.6487578,3.12858775 C17.3433451,1.16758775 13.9136399,0.279587754 9.35152991,0.279587754 C5.35764496,0.279587754 2.25670442,0.608476562 0,1.02781158 L0,36.486169 L6.9081188,36.486169 L6.90808313,36.486169 Z M9.35149423,17.8011466 C8.32055142,17.8011466 7.56561258,17.7517858 6.90808313,17.6120079 L6.90808313,5.93648451 C7.51690646,5.7925957 8.5072581,5.65281809 9.9156739,5.65281809 C13.7715533,5.65281809 16.2149715,7.66315383 16.2149715,11.4905943 C16.2149715,15.3714823 13.6782035,17.8011466 9.35556098,17.8011466 L9.35149423,17.8011466 Z M41.3634609,37 C50.3415631,37 56.7342105,30.599 56.7342105,18.0806426 C56.7342105,8.50176172 51.8433287,0 41.8342765,0 C32.3853586,0 26.4147972,7.89335742 26.4147972,18.6397617 C26.4147972,29.0572852 31.8211504,37 41.3634609,37 Z M41.598873,31.3472238 C36.4725762,31.3472238 33.7003861,25.5505596 33.7003861,18.4999855 C33.7003861,11.9139855 36.1925055,5.65274727 41.6435359,5.65274727 C46.9565393,5.65274727 49.4486302,11.7741949 49.4486302,18.3561047 C49.4486302,25.5998664 46.7698041,31.3472238 41.598873,31.3472238 Z M69,36.4861119 L69,0.559111914 L62.0431729,0.559111914 L62.0431729,36.4861119 L69,36.4861119 Z" id="形状"></path>
        </g>
    </g>
</svg>