<?xml version="1.0" encoding="UTF-8"?>
<svg width="140px" height="140px" viewBox="0 0 140 140" version="1.1" xmlns="http://www.w3.org/2000/svg" xmlns:xlink="http://www.w3.org/1999/xlink">
    <title>icon_IP地址归属地_hover </title>
    <g id="icon_IP地址归属地_hover-" stroke="none" stroke-width="1" fill="none" fill-rule="evenodd">
        <rect id="矩形备份-11" fill="#FFFFFF" opacity="0" x="0" y="0" width="140" height="140"></rect>
        <g id="编组" transform="translate(34.000000, 38.000000)" fill="#FFFFFF" fill-rule="nonzero">
            <path d="M65.0913396,0 L6.91614257,0 C3.10137555,0 0,3.08045557 0,6.87694923 L0,48.1535621 C0,51.942597 3.10137555,55.0305113 6.91614257,55.0305113 L65.0838303,55.0305113 C68.8985973,55.0305113 71.9999864,51.9500558 71.9999864,48.1535621 L71.9999864,6.88440796 C72.0074822,3.0879143 68.9061067,0 65.0913396,0 Z M68.1176214,50.062997 L3.88986086,50.062997 L3.88986086,4.96751431 L68.1176214,4.96751431 L68.1176214,50.062997 Z M59.4142454,56.7683955 L13.261572,56.7683955 C11.1364163,56.7683955 9.40925803,58.4764447 9.40925803,60.594724 C9.40925803,62.7055447 11.1289069,64.4210526 13.261572,64.4210526 L59.4217548,64.4210526 C61.5469104,64.4210526 63.2740687,62.7130034 63.2740687,60.594724 C63.25905,58.4764447 61.5394011,56.7683955 59.4142454,56.7683955 Z M25.2765862,13.0229429 C24.8936076,12.7842635 24.5556854,12.6425477 24.1727068,12.6425477 L31.5544311,12.6425477 C32.080088,12.6425477 32.4630666,12.7842635 32.6583106,13.0229429 C32.7484232,13.2168699 32.8009889,13.5898064 32.8009889,14.1193762 L26.1852217,41.6793843 L26.1852217,42.5371383 C26.1852217,42.5893494 26.2753343,42.7310652 26.4255219,42.9175335 C26.4780876,43.0070383 26.5682002,43.1562129 26.8085005,43.2979287 C27.0037445,43.4396446 27.1914791,43.4918557 27.3341574,43.4918557 L20.0876019,43.4918557 C19.6595671,43.4918557 19.3216448,43.3501399 19.0813445,43.1114605 L18.7434222,42.7758176 C18.6908565,42.7236065 18.6908565,42.6341018 18.6908565,42.5371383 C18.6908565,42.4849271 18.7434222,42.2537065 18.7884785,41.8285589 L25.449302,14.1715874 C25.5018677,13.932908 25.5394146,13.7464397 25.5394146,13.6494762 C25.4718302,13.3063747 25.4192645,13.1199064 25.2765862,13.0229429 L25.2765862,13.0229429 Z M38.5081206,13.4033381 C38.418008,13.2094112 38.2678204,13.0229429 37.9749544,12.8364747 C37.7346541,12.6947588 37.4492975,12.5977953 37.2089972,12.5977953 L53.2114943,12.5977953 C55.1263872,12.5977953 56.7634329,13.0229429 58.1977252,13.8806969 C59.2039827,14.6936985 59.6845832,16.3122429 59.6845832,18.6393667 C59.6845832,19.8253048 59.5419049,21.0709128 59.3016047,22.3985668 C59.0162481,23.7336795 58.6257601,25.0613334 58.1526689,26.2994826 C57.6795777,27.5376319 57.0487895,28.6266065 56.3804543,29.5365715 C55.7121192,30.491289 54.9912183,31.155116 54.2252611,31.5355112 C53.7446606,31.818943 53.2490412,32.0725398 52.7384031,32.2963017 C52.2127463,32.4902287 51.6345237,32.676697 51.0112448,32.7736604 C50.387966,32.8631652 49.6220088,32.9675874 48.8109953,32.9675874 L41.3842147,32.9675874 L42.7283944,27.8285223 L47.279081,27.8285223 C48.4280168,27.6868065 49.3366522,27.3064112 50.0575531,26.6425842 C50.485588,26.262189 50.8760759,25.6878668 51.2064888,24.8823239 C51.4918454,24.0693223 51.7321457,23.166816 51.9198803,22.2195572 C52.0625586,21.2648398 52.1601806,20.3623334 52.1601806,19.6462953 C52.1601806,18.743789 52.070068,18.2216778 51.874824,17.9829985 C51.3942234,17.5578509 50.7709445,17.3117128 49.9599311,17.3117128 L45.499357,17.3117128 L39.3191341,41.5898795 C39.3191341,42.0672383 39.4618124,42.544597 39.7021127,42.9697446 C39.844791,43.1636716 40.2728259,43.3501399 40.9937267,43.4471033 L33.604493,43.4471033 C32.9812141,43.3053875 32.5982355,43.1636716 32.4105009,42.9697446 C32.1702006,42.5893494 32.0275223,42.2984589 32.0275223,42.0672383 C32.0275223,41.9777335 32.080088,41.8285589 32.1176349,41.5451271 L38.7784585,14.7459096 C38.8685711,14.5072302 38.8685711,14.320762 38.8685711,14.2237985 C38.8685711,14.0820826 38.8685711,13.9851191 38.8160054,13.9403667 C38.7634397,13.8881556 38.7183834,13.7986508 38.6207614,13.656935 C38.5982332,13.545054 38.5531769,13.4555493 38.5081206,13.4033381 Z" id="形状"></path>
        </g>
    </g>
</svg>