<?xml version="1.0" encoding="UTF-8"?>
<svg width="140px" height="140px" viewBox="0 0 140 140" version="1.1" xmlns="http://www.w3.org/2000/svg" xmlns:xlink="http://www.w3.org/1999/xlink">
    <title>icon_上市信息-基本信息</title>
    <g id="icon_上市信息-基本信息" stroke="none" stroke-width="1" fill="none" fill-rule="evenodd">
        <rect id="矩形备份-11" fill="#FFFFFF" opacity="0" x="0" y="0" width="140" height="140"></rect>
        <path d="M94.3461174,90.1835 C93.9386979,90.5912322 93.7094428,91.1449973 93.7088986,91.7227 L93.7088986,98.2088 C93.7088986,100.6138 91.7714589,102.56 89.3772844,102.56 L41.7111118,102.56 C39.3169373,102.56 37.3758143,100.6101 37.3758143,98.2088 L37.3758143,41.6173 C37.3758143,39.2123 39.3169374,37.2661 41.7111118,37.2661 L60.2567559,37.2661 L60.2567559,58.0305 L65.4576395,53.1539 L70.8721573,58.0305 L70.8721573,37.3105 L89.3330843,37.3105 C91.7272587,37.3105 93.6683818,39.2567 93.6683818,41.6617 L93.6683818,61.2495 C93.6683818,62.4510507 94.6380467,63.4251 95.8341889,63.4251 C97.0303311,63.4251 98,62.4510507 98,61.2495 L98,41.7061 C98,36.8961 94.1214333,33 89.3330843,33 L41.6669117,33 C36.8803085,33 33,36.8978537 33,41.7061 L33,98.2939 C33,103.1039 36.8785627,107 41.6669117,107 L89.3330843,107 C94.1214333,107 98,103.1039 98,98.2939 L98,91.7227 C98.0022495,90.5368386 97.0586689,89.5675992 95.878389,89.5434 C95.3032868,89.5439466 94.7520143,89.7742384 94.3461174,90.1835 L94.3461174,90.1835 Z" id="路径" fill="#FFFFFF" fill-rule="nonzero"></path>
        <path d="M82,65.0000956 C81.9860815,64.4421724 81.7466532,63.9222599 81.3503395,63.5893747 C80.8995784,63.2002073 80.3465582,62.9927949 79.779409,63.0001912 L44.2205909,63.0001912 C42.9946779,63.0001912 42,63.8964138 42,65.0000956 C42,66.1037773 42.9946779,67 44.2205909,67 L79.779409,67 C81.005322,67 82,66.1037773 82,65.0000956 L82,65.0000956 Z M44.1985464,77 C42.9848034,77 42,77.8962655 42,79 C42,80.1037345 42.9848034,81 44.1985464,81 L61.8014535,81 C63.0151965,81 64,80.1037345 64,79 C64,77.8962655 63.0188305,77 61.8014535,77 L44.1985464,77 Z M106.092007,63.3778882 C105.132011,62.7804254 103.728941,62.9042897 102.964637,63.6584042 L92.9954538,73.5311112 L86.2422551,68.7514096 C85.744681,68.4142734 85.1458773,68.2537243 84.5438017,68.2960264 C83.9520932,68.3325157 83.3947532,68.5828283 82.9782707,68.999138 L71.4435563,81.1851914 C70.9727843,81.6429689 70.8644982,82.3522837 71.1777114,82.9265767 C71.4915561,83.5058241 72.1746297,83.9065612 72.9647798,83.9830656 C73.7210715,84.0705281 74.4769226,83.8161347 75.0213855,83.2908832 L85.0791838,72.7551383 L91.7880749,77.5311969 C92.2832497,77.8736924 92.8835808,78.0359386 93.4865284,77.9902232 C94.0732018,77.9602689 94.6291623,77.7222195 95.0520594,77.3198991 L106.498159,65.9061756 C106.872527,65.5690971 107.054791,65.0718279 106.985541,64.5764567 C106.885866,64.0645378 106.557615,63.6242286 106.092007,63.3778882 L106.092007,63.3778882 Z" id="形状" fill="#FFFFFF" fill-rule="nonzero"></path>
    </g>
</svg>