<?xml version="1.0" encoding="UTF-8"?>
<svg width="140px" height="140px" viewBox="0 0 140 140" version="1.1" xmlns="http://www.w3.org/2000/svg" xmlns:xlink="http://www.w3.org/1999/xlink">
    <title>icon_知识产权-软件著作</title>
    <g id="icon_知识产权-软件著作" stroke="none" stroke-width="1" fill="none" fill-rule="evenodd">
        <rect id="矩形备份-11" fill="#FFFFFF" opacity="0" x="0" y="0" width="140" height="140"></rect>
        <path d="M67.1341135,75.0382129 L67.5586893,75.0382129 C68.195553,75.0382129 68.8324167,74.6094288 69.0447045,73.7518607 L72.6535986,62.1746907 C72.8658864,61.3171225 72.4413107,60.2451623 71.5921591,60.0307703 C70.7430076,59.8163783 69.893856,60.2451623 69.4692803,61.1027305 L65.8603862,72.6799005 C65.8603862,73.7518607 66.284962,74.8238208 67.1341135,75.0382129 L67.1341135,75.0382129 Z M79.446811,67.5344916 L82.8434172,69.0352358 L79.446811,70.7503722 C79.0222352,70.9647642 78.8099474,71.1791562 78.5976594,71.6079403 C78.3853716,72.0367244 78.3853716,72.4655085 78.5976594,72.8942925 C78.8099473,73.5374686 79.446811,73.9662527 80.0836746,73.9662527 C80.2959625,73.9662527 80.5082504,73.9662527 80.7205383,73.7518607 L87.7260386,70.3215881 C88.3629022,70.1071961 88.5751901,69.4640199 88.5751901,68.8208438 C88.5751901,68.1776677 88.1506143,67.5344916 87.7260386,67.3200996 L80.7205383,64.104219 C79.8713867,63.6754349 79.0222351,64.104219 78.5976594,64.9617872 C78.1730837,66.0337473 78.5976594,67.1057075 79.446811,67.5344916 Z M51.6370977,70.5359801 L58.642598,73.9662527 C58.8548859,74.1806447 59.0671738,74.1806447 59.2794617,74.1806447 C59.9163253,74.1806447 60.553189,73.7518607 60.765477,73.1086846 C60.9777648,72.6799005 60.9777648,72.2511164 60.765477,71.8223323 C60.5531891,71.3935482 60.3409012,70.9647642 59.9163254,70.9647642 L56.5197192,69.2496279 L59.9163254,67.7488837 C60.765477,67.3200996 61.1900527,66.2481394 60.9777648,65.3905713 C60.553189,64.5330031 59.7040375,64.104219 58.854886,64.318611 L51.8493857,67.3200996 C51.0002341,67.5344916 50.5756583,68.1776677 50.5756583,68.8208438 C50.5756583,69.4640199 51.0002341,70.1071961 51.6370977,70.5359801 L51.6370977,70.5359801 Z M97.4912813,66.2481393 L104.284494,66.2481393 C103.64763,59.3875942 100.887888,52.741441 96.4298419,47.3816401 C96.8544177,47.3816401 96.8544177,46.952856 97.0667056,46.952856 L104.70907,39.4491348 C105.982797,38.5915666 106.407373,36.8764304 105.558221,35.5900781 C105.345933,35.3756861 105.133645,34.946902 104.70907,34.73251 L104.284494,34.3037259 C103.435342,33.0173736 101.737039,32.5885895 100.463312,33.4461577 C100.251024,33.6605497 99.8264482,33.8749418 99.6141602,34.3037259 L91.9717963,41.8074472 C91.5472205,42.2362313 91.5472205,42.2362313 91.5472205,42.4506233 C86.2400234,38.1627825 79.6590989,35.375686 72.8658865,34.518118 L72.8658865,41.8074472 C85.8154476,43.5225835 95.7929783,53.5990092 97.4912813,66.2481393 L97.4912813,66.2481393 Z M42.5087186,73.5374687 L35.5032184,73.5374687 C36.140082,80.3980138 38.8998246,87.044167 43.3578702,92.4039679 C42.9332944,92.4039679 42.9332944,92.832752 42.7210065,92.832752 L35.2909305,100.550865 C34.0172031,101.408433 33.5926273,103.12357 34.4417789,104.409922 C34.6540667,104.624314 34.8663547,105.053098 35.2909305,105.26749 L35.7155062,105.696274 C36.5646578,106.982626 38.2629609,107.41141 39.5366882,106.553842 C39.7489761,106.33945 40.1735518,106.125058 40.3858398,105.696274 L47.8159158,97.9781608 C48.2404916,97.5493767 48.2404916,97.5493767 48.2404916,97.3349847 C53.5476887,101.622825 60.1286132,104.409922 66.9218256,105.26749 L66.9218256,98.4069449 C54.1845524,96.2630246 44.2070217,86.1865988 42.5087186,73.5374687 L42.5087186,73.5374687 Z M42.7210065,47.3816401 C43.1455823,47.8104242 43.1455823,47.8104242 43.3578702,47.8104242 C39.1121124,53.1702251 36.3523699,59.8163783 35.5032184,66.6769234 L42.5087186,66.6769234 C43.9947338,54.0277933 53.7599767,43.9513675 66.284962,42.4506233 L66.284962,35.161294 C59.7040375,35.5900781 53.1231129,38.3771746 48.0282037,42.6650154 C48.0282037,42.2362313 47.6036279,42.2362313 47.6036279,42.0218392 L40.1735518,34.73251 C39.3244003,33.4461577 37.6260972,33.2317657 36.3523699,34.0893339 C35.9277941,34.3037259 35.7155062,34.518118 35.5032184,34.73251 L35.2909305,34.73251 C34.0172031,35.5900781 33.5926273,37.3052144 34.4417789,38.5915666 C34.6540667,38.8059586 34.8663547,39.2347427 35.2909305,39.4491348 L42.7210065,47.3816401 Z M94.0946752,77.1821332 C96.8544177,76.9677412 99.8264481,78.0397014 101.949327,79.7548377 C104.072206,81.469974 105.345933,83.8282863 105.558221,86.4009908 L101.524751,86.4009908 C101.100175,84.6858545 100.251024,83.1851102 98.7650087,82.3275421 C97.2789935,81.469974 95.5806904,80.8267979 93.8823873,81.0411899 C91.3349327,80.8267979 88.787478,82.1131501 87.0891749,84.0426784 C85.6031597,86.1865987 84.7540082,88.9736952 84.966296,91.7607917 C84.7540082,94.5478882 85.6031597,97.1205926 87.0891749,99.4789051 C88.7874781,101.408433 91.3349327,102.694786 93.8823873,102.480394 C95.5806904,102.480394 97.4912814,102.05161 98.9772966,100.979649 C100.463312,99.6932971 101.524751,97.9781608 101.949327,96.0486325 L105.982797,96.0486325 C105.558221,99.050121 104.072206,101.837217 101.737039,103.552354 C99.6141602,105.26749 96.8544177,106.125058 94.0946752,106.125058 C90.2734932,106.33945 86.4523112,104.838706 83.9048566,101.837217 C81.7819778,98.835729 80.7205383,95.4054564 80.9328262,91.7607917 C80.7205383,88.1161271 81.7819778,84.4714625 84.1171445,81.684366 C86.4523112,78.4684854 90.2734932,76.9677412 94.0946752,77.1821332 L94.0946752,77.1821332 Z" id="形状" fill="#FFFFFF" fill-rule="nonzero"></path>
        <path d="M92.8018457,106 C89.0309444,106 85.4695377,104.310855 83.165098,101.35485 C81.0701529,98.3988456 79.8131858,94.5982683 80.0226803,91.0088342 C79.8131858,87.4194001 81.0701528,83.6188229 83.165098,80.6628183 C85.6790322,77.4956706 89.6594279,75.8065252 93.6398237,76.0176683 C96.5727468,76.0176683 99.50567,76.8622411 101.81011,78.5513866 C103.905055,80.240532 105.371516,82.7742502 105.581011,85.5191115 L105.581011,86.1525411 L100.343648,86.1525411 L100.343648,85.7302547 C100.134154,84.2522524 99.2961756,82.9853933 98.0392085,81.9296774 C96.7822414,81.0851047 95.1062853,80.6628183 93.6398237,80.6628183 C91.335384,80.4516752 89.0309444,81.5073911 87.5644828,83.4076797 C86.0980212,85.5191115 85.4695377,88.0528297 85.6790322,90.5865478 C85.4695377,93.120266 86.3075157,95.8651274 87.5644828,97.9765592 C89.0309444,99.6657047 91.335384,100.721421 93.6398237,100.510277 C95.3157798,100.510277 96.9917359,100.087991 98.248703,99.0322751 C99.5056701,97.9765592 100.553143,96.2874137 100.762637,94.5982682 L100.762637,94.1759819 L106,94.1759819 L105.790505,94.8094115 C105.371516,97.9765592 103.69556,100.72142 101.391121,102.621709 C99.086681,104.521998 96.3632524,105.36657 93.4303292,105.36657 C93.4303292,106 93.0113401,106 92.8018457,106 L92.8018457,106 Z M92.8018457,77.4956706 C89.4499335,77.4956706 86.3075157,78.9736729 84.2125706,81.7185342 C82.1176255,84.4633956 81.0701528,87.8416865 81.2796474,91.2199774 C81.0701529,94.5982682 82.1176255,97.9765591 84.0030761,100.72142 C86.3075157,103.466282 89.8689224,104.944284 93.4303292,104.733141 C96.1537579,104.944284 98.667692,103.888568 100.553143,102.410566 C102.438593,100.72142 103.905055,98.6099887 104.533538,96.0762706 L101.81011,96.0762706 C101.391121,97.9765592 100.343648,99.4545615 98.8771865,100.72142 C97.2012303,101.777136 95.3157797,102.410566 93.4303292,102.410566 C90.7069005,102.621709 87.9834718,101.565993 86.3075157,99.2434182 C84.6315596,96.9208432 84.0030761,93.9648387 84.0030761,91.2199774 C83.7935816,88.475116 84.6315596,85.7302546 86.3075157,83.4076797 C87.9834719,81.0851048 90.7069005,80.0293888 93.4303292,80.0293888 C95.3157798,80.0293888 96.9917359,80.4516752 98.667692,81.5073911 C100.134154,82.563107 100.972132,83.8299661 101.391121,85.5191115 L104.114549,85.5191115 C103.69556,83.4076797 102.438593,81.5073911 100.762637,80.0293888 C98.667692,78.3402433 96.1537578,77.4956706 93.4303292,77.7068138 C93.4303292,77.4956706 93.0113401,77.4956706 92.8018457,77.4956706 L92.8018457,77.4956706 Z" id="形状" fill="#FFFFFF" fill-rule="nonzero"></path>
    </g>
</svg>