<?xml version="1.0" encoding="UTF-8"?>
<svg width="140px" height="140px" viewBox="0 0 140 140" version="1.1" xmlns="http://www.w3.org/2000/svg" xmlns:xlink="http://www.w3.org/1999/xlink">
    <title>icon_上市信息-上市股东信息_off</title>
    <g id="icon_上市信息-上市股东信息_off" stroke="none" stroke-width="1" fill="none" fill-rule="evenodd">
        <rect id="矩形备份-11" fill="#FFFFFF" opacity="0" x="0" y="0" width="140" height="140"></rect>
        <path d="M90.9994227,104.998774 C86.7250177,104.998774 82.7077627,103.386787 79.687107,100.459525 C76.6762289,97.5590811 74.9884741,93.6122285 75.0000593,89.498898 C75.0000593,85.3582169 76.6641655,81.4655338 79.6859642,78.5382715 C82.6799591,75.6223599 86.7539023,73.9881882 90.9994227,74.0000643 C95.2738277,74.0000643 99.2922256,75.6121163 102.314024,78.5393786 C105.324699,81.4398647 107.012072,85.3867859 106.999935,89.5000052 C106.999935,93.6406863 105.335823,97.5322623 102.314024,100.460632 C99.3196495,103.376804 95.2454034,105.011331 90.9994227,104.999941 L90.9994227,104.998774 Z M90.9994227,78.4275581 C84.6975326,78.4275581 79.5705323,83.3930541 79.5705323,89.498898 C79.5705323,95.6025277 84.6975326,100.570238 90.9994227,100.570238 C97.3013128,100.570238 102.428313,95.6025277 102.428313,89.498898 C102.428313,83.3930541 97.3013128,78.4275581 90.9994227,78.4275581 Z" id="形状" fill="#4A66BE" fill-rule="nonzero"></path>
        <path d="M94.7153414,82 C95.0515556,81.999342 95.3686077,82.1565422 95.5717479,82.4246241 C95.8413636,82.6272609 96,82.9450165 96,83.2824316 C96,83.6198467 95.8413636,83.9376023 95.5717479,84.1402391 L95.5717479,84.1402391 L92.9999995,86.7134871 C92.9999998,86.7138243 93,86.7141614 93,86.7144986 C93,86.8152287 92.9858435,86.9142054 92.9588008,87.0088858 L95.7919966,87.0086919 C96.1217261,86.969992 96.4542456,87.0619035 96.6897315,87.2568342 C96.9252175,87.4517649 97.0362511,87.727018 96.9894997,87.9999617 C97.0362511,88.2729054 96.9252174,88.5481585 96.6897315,88.7430892 C96.4542456,88.9380198 96.1217261,89.0299313 95.7919966,88.9912315 L91.991,88.9909979 L91.991,92.0079979 L95.7919966,92.0086919 C96.1217261,91.9699921 96.4542456,92.0619035 96.6897315,92.2568342 C96.9252174,92.4517648 97.0362511,92.727018 96.9894997,92.9999617 C97.0362511,93.2729053 96.9252175,93.5481585 96.6897315,93.7430892 C96.4542456,93.9380198 96.1217261,94.0299313 95.7919966,93.9912315 L91.991,93.9909979 L91.9913095,95.791869 C92.030003,96.1216145 91.9381065,96.4541501 91.7432076,96.6896474 C91.5483087,96.9251447 91.2731003,97.0361837 91.0002011,96.9894301 C90.7267559,97.0364334 90.4509672,96.9249898 90.2559358,96.6886796 C90.0609044,96.4523694 89.9694363,96.1188255 90.0090927,95.7885516 L90.009,93.9909979 L86.208654,93.9912315 C85.8780444,94.0302077 85.544589,93.9378498 85.3088895,93.7420217 C85.0731899,93.5461936 84.9628471,93.2698271 85.0111508,92.9963005 C84.9659423,92.7239419 85.0776617,92.449798 85.312936,92.2557619 C85.5482102,92.0617258 85.8798008,91.9702616 86.208654,92.0086919 L90.009,92.0079979 L90.009,88.9909979 L86.208654,88.9912315 C85.8780444,89.0302077 85.544589,88.9378498 85.3088895,88.7420217 C85.0731899,88.5461936 84.9628471,88.2698271 85.0111508,87.9963005 C84.9659423,87.7239419 85.0776617,87.449798 85.312936,87.2557619 C85.5482102,87.0617258 85.8798008,86.9702616 86.208654,87.0086919 L90.009,87.0079979 L90.0088475,86.8512792 C90.008323,86.8472191 90.0078215,86.8431541 90.007343,86.8390843 L90,86.7139979 L87.4282521,84.1427507 C87.1586364,83.9402458 87,83.6226969 87,83.2855014 C87,82.9483058 87.1586364,82.630757 87.4282521,82.4282521 C87.630757,82.1586364 87.9483058,82 88.2855014,82 C88.6226969,82 88.9402458,82.1586364 89.1427507,82.4282521 L91.498,84.7839979 L93.8572493,82.4246241 C94.0626941,82.1591062 94.3791273,82.0006622 94.7153414,82 Z" id="形状结合" fill="#4A66BE" fill-rule="nonzero"></path>
        <path d="M92.1872518,105 L39.8561576,105 C35.5155717,104.985143 32.0037389,101.508325 32.0000018,97.2221739 C31.9952799,83.4211632 41.2147196,71.2728811 54.6302814,67.402683 C49.9453227,63.7329696 47.3551205,58.046512 47.6828309,52.1504444 C48.0105412,46.2543767 51.2154073,40.8819843 56.2789352,37.7405924 C61.9425263,34.2566384 69.0748479,34.0825875 74.905806,37.2860386 C80.736764,40.4894897 84.3474991,46.5656336 84.3356521,53.154581 C84.3089634,58.6897143 81.7654175,63.9201856 77.4074351,67.4015587 C82.2359396,68.7983776 86.6551673,71.3174122 90.2949434,74.7476566 C88.1849376,74.8887891 86.1300216,75.474566 84.2684763,76.4655686 C79.7636846,73.1131018 74.2756157,71.3007774 68.6347298,71.3028381 L63.3972938,71.3028381 C48.9529002,71.3928414 37.2796327,82.9587828 37.2374396,97.2221739 C37.2359276,97.9089608 37.5111598,98.5681301 38.0024287,99.0542898 C38.4936976,99.5404496 39.1606429,99.8136595 39.8561576,99.8136578 L80.4553952,99.8136578 C84.7023821,104.251245 91.2733155,105.657806 97.0000018,103.355165 C95.6282416,104.42141 93.93301,105.000782 92.1872518,105 Z M66.0171504,40.1948494 C60.7046948,40.1785312 55.9061068,43.3259192 53.8616124,48.1677155 C51.8171179,53.0095119 52.9299375,58.5908052 56.68055,62.3059627 C60.4311625,66.0211202 66.0798626,67.1374291 70.9895486,65.1337394 C75.8992347,63.1300496 79.1016336,58.4015341 79.1016336,53.1557053 C79.1054236,46.0119013 73.2516989,40.2135125 66.0171504,40.1948494 Z M66.0171504,97.2176768 C65.6693928,97.2167359 65.3369421,97.0763344 65.0960448,96.8286731 L61.5596369,93.3242674 C60.9039825,92.688784 60.6547051,91.7490962 60.9106503,90.8778167 L64.4493353,78.5578686 C63.5470177,77.8903772 63.1786321,76.7275385 63.5348687,75.671281 C63.8911052,74.6150235 64.8919898,73.9024735 66.0194276,73.9024735 C67.1468653,73.9024735 68.14775,74.6150235 68.5039865,75.671281 C68.860223,76.7275385 68.4918374,77.8903772 67.5895198,78.5578686 L71.1270662,90.8766924 C71.3812017,91.7479944 71.1321679,92.686764 70.4780796,93.3231431 L66.9405331,96.8275489 C66.7002536,97.0774339 66.3661072,97.2182034 66.0171504,97.2165525 L66.0171504,97.2176768 Z" id="形状" fill="#7F899C" fill-rule="nonzero"></path>
    </g>
</svg>