<?xml version="1.0" encoding="UTF-8"?>
<svg width="140px" height="140px" viewBox="0 0 140 140" version="1.1" xmlns="http://www.w3.org/2000/svg" xmlns:xlink="http://www.w3.org/1999/xlink">
    <title>icon_全国产业区_off</title>
    <g id="icon_全国产业区_off" stroke="none" stroke-width="1" fill="none" fill-rule="evenodd">
        <g id="icon_2_off备份" fill="#F2F6FC" opacity="0">
            <rect id="矩形备份-22" x="0" y="0" width="140" height="140"></rect>
        </g>
        <g id="工厂a备份" transform="translate(34.000000, 36.000000)" fill-rule="nonzero">
            <path d="M2.58834203,67.9918299 C1.18394194,67.9918299 0,66.7581401 0,65.2956867 L0,2.38567824 C0,1.00492611 1.08596054,0 2.58834203,0 L15.3585847,0 C16.8528011,0 17.9305965,1.00492611 17.9305965,2.38567824 L17.9305965,22.7864953 L28.5370832,14.9921903 C28.9779995,14.6572149 29.5087321,14.4856422 30.0721252,14.4856422 C30.4885462,14.4856422 30.9049671,14.5836838 31.2723974,14.7797669 C32.1460649,15.2127839 32.7094579,16.1278385 32.7094579,17.1082542 L32.7094579,22.7864953 L43.2832842,15.0003604 C43.7160354,14.6735552 44.2794284,14.4938123 44.8591517,14.4938123 C45.2919029,14.4938123 45.7083239,14.5918539 46.0839193,14.787937 C46.9902472,15.2372942 47.5781356,16.1523489 47.5781356,17.1164244 L47.5781356,22.7946654 L58.0948061,15.0085306 C58.5357224,14.6735552 59.0582899,14.5019825 59.5971876,14.5019825 C59.9972783,14.5019825 60.3892039,14.600024 60.7647993,14.787937 C61.6139714,15.2127839 62.1365389,16.1033281 62.1365389,17.1164244 L62.1365389,25.5479995 L69.3953277,25.5479995 C70.9058743,25.5479995 72,26.5529256 72,27.9418479 L72,65.3038568 C72,66.7663102 70.8078929,68 69.3953277,68 L2.58834203,68 L2.58834203,67.9918299 Z M66.7498299,30.629821 L59.5726922,30.629821 C58.4622363,30.629821 57.5069177,29.9843806 57.1313223,28.9794545 C56.9843502,28.6526493 56.9108641,28.2931635 56.9108641,27.9336778 L56.9108641,22.2554367 L46.345203,30.0415715 C45.9042867,30.3765469 45.3817192,30.5481197 44.8346564,30.5481197 C44.4345657,30.5481197 44.0263098,30.4500781 43.6588796,30.253995 C42.7933772,29.8128079 42.2708097,28.9386039 42.2708097,27.9336778 L42.2708097,22.2472666 L31.664323,30.0415715 C31.2315718,30.3683768 30.6763438,30.5481197 30.1211159,30.5481197 C29.7046949,30.5481197 29.288274,30.4500781 28.9208437,30.253995 C28.030846,29.7882975 27.4756181,28.8977532 27.4756181,27.9336778 L27.4756181,22.2554367 L16.9262871,30.0252313 C16.4772057,30.3765469 15.938308,30.5562898 15.3585847,30.5562898 C14.7217056,30.5562898 14.117487,30.3275261 13.6439102,29.9026793 C13.4969381,29.7801274 13.3662962,29.633065 13.2519846,29.4778325 C12.8273985,28.8977532 12.6559311,28.1706116 12.7865729,27.4679803 L12.7865729,5.15535264 L5.32365616,5.15535264 L5.32365616,62.8283071 L66.7498299,62.820137 L66.7498299,30.629821 Z" id="形状" fill="#7F899C"></path>
            <path d="M54,48.5 C55.7929825,48.5 57.3900877,49.8177193 57.4945692,51.6642666 L57.5,51.8571429 L57.5,63 L52.5,63 L52.5,53.5 L20.5,53.5 L20.5,63 L15.5,63 L15.5,51.8571429 C15.5,49.9750626 17.0373392,48.5946074 18.815271,48.5046682 L19,48.5 L54,48.5 Z M57.3681107,37.9257479 L57.3681107,43.3752253 L51.9219778,43.3752253 L51.9219778,37.9257479 L57.3681107,37.9257479 Z M39.4375142,37.9257479 L39.4375142,43.3752253 L33.9913813,43.3752253 L33.9913813,37.9257479 L39.4375142,37.9257479 Z M21.4905874,37.9257479 L21.4905874,43.3752253 L16.0444545,43.3752253 L16.0444545,37.9257479 L21.4905874,37.9257479 Z" id="形状结合" fill="#4A66BE"></path>
        </g>
    </g>
</svg>