<?xml version="1.0" encoding="UTF-8"?>
<svg width="140px" height="140px" viewBox="0 0 140 140" version="1.1" xmlns="http://www.w3.org/2000/svg" xmlns:xlink="http://www.w3.org/1999/xlink">
    <title>icon_法律诉讼-限制高消费_off</title>
    <g id="icon_法律诉讼-限制高消费_off" stroke="none" stroke-width="1" fill="none" fill-rule="evenodd">
        <rect id="矩形备份-11" fill="#FFFFFF" opacity="0" x="0" y="0" width="140" height="140"></rect>
        <path d="M70,33 C90.4340909,33 107,49.5659091 107,70 C107,90.4340909 90.4340909,107 70,107 C49.5659091,107 33,90.4340909 33,70 C33,49.5659091 49.5659091,33 70,33 Z M97.7432728,54.1303637 L87.6590909,61.4563637 C87.8272727,61.9104546 87.9147273,62.3981819 87.9113636,62.8926363 L87.908,68.5300909 L76.8113636,68.5300909 C74.4725079,68.5296165 72.5158595,70.3057408 72.2906364,72.6337273 L72.2704545,73.071 C72.2699801,75.4098558 74.0461044,77.3665042 76.3740909,77.5917273 L76.8113636,77.6119091 L87.908,77.6119091 L87.908,83.949 C87.9180909,84.4636364 87.8306364,84.9715455 87.6557273,85.4458182 C87.4909091,85.9032727 87.242,86.3203636 86.9157273,86.6701818 C86.606122,87.0189137 86.2283559,87.3005212 85.8057273,87.4976364 C85.384694,87.6954809 84.9254706,87.7988062 84.4602727,87.8003636 L58.012,87.8003636 C57.5242727,87.8003636 57.0399091,87.6994546 56.5891818,87.4976364 C56.1390439,87.3058529 55.7327377,87.0242999 55.3950909,86.6701818 C55.0587272,86.3338182 54.7829091,85.9301818 54.5911818,85.4828182 L46.3401818,91.4768182 C57.2980354,103.559733 75.5976043,105.449801 88.7937534,95.8616303 C101.989902,86.2734591 105.846134,68.285239 97.7399091,54.1303637 L97.7432728,54.1303637 Z M70,38.0454397 C52.3519919,38.0454397 38.0454545,52.3519919 38.0454545,70 C38.0454545,76.4548182 39.9593636,82.4589091 43.249,87.4841818 L54.2783636,79.4652727 L54.2783636,62.8926363 C54.2541042,61.8830365 54.6301546,60.904822 55.3244545,60.1714545 C55.9971818,59.4449091 56.9255454,59.0446364 57.8875454,59.0614545 L82.3647273,59.0580909 L94.8909091,49.9594545 C88.8303153,42.4185423 79.674506,38.0361266 70,38.0454397 Z" id="形状" fill="#7F899C" fill-rule="nonzero"></path>
        <path d="M78.1938182,69.7309091 C79.3956524,69.7307251 80.5062717,70.3717903 81.1072419,71.4125786 C81.7082121,72.4533669 81.7082121,73.735724 81.1072419,74.7765123 C80.5062717,75.8173006 79.3956524,76.4583658 78.1938182,76.4581819 C76.3363342,76.4578975 74.8306967,74.9520295 74.8306967,73.0945455 C74.8306967,71.2370615 76.3363342,69.7311935 78.1938182,69.7309091 L78.1938182,69.7309091 Z" id="路径" fill="#4A66BE" fill-rule="nonzero"></path>
        <path d="M70.8610909,50.6792727 C71.4934545,50.6994546 72.1190909,50.834 72.7110909,51.0761818 C73.282909,51.3721818 73.7975454,51.7892727 74.2146363,52.3005454 L76.549,56.9894545 L58.5030909,56.9894545 C59.4516363,56.4680909 60.3699091,55.9568181 61.2444546,55.4556363 L63.2458182,54.2918182 L65.1866364,53.2188182 L68.3652727,51.4327273 C69.1153637,50.9416364 69.9798182,50.6826363 70.8610909,50.6792727 L70.8610909,50.6792727 Z" id="路径" fill="#4A66BE" fill-rule="nonzero"></path>
    </g>
</svg>