<?xml version="1.0" encoding="UTF-8"?>
<svg width="140px" height="140px" viewBox="0 0 140 140" version="1.1" xmlns="http://www.w3.org/2000/svg" xmlns:xlink="http://www.w3.org/1999/xlink">
    <title>icon_火车站信息_hover</title>
    <g id="icon_火车站信息_hover" stroke="none" stroke-width="1" fill="none" fill-rule="evenodd">
        <rect id="矩形备份-11" fill="#FFFFFF" opacity="0" x="0" y="0" width="140" height="140"></rect>
        <g id="火车站" transform="translate(37.000000, 33.000000)" fill="#FFFFFF" fill-rule="nonzero">
            <path d="M57.4538536,68.1645051 L8.5461464,68.1645051 L5.02868203,74.25 L0,71.3493828 L8.71018828,56.2777758 L13.7388703,59.178393 L11.8981172,62.3632707 L54.1018828,62.3632707 L52.2611297,59.178393 L57.2898117,56.2777758 L66,71.3493828 L60.971318,74.25 L57.4538536,68.1645051 Z M3.96603524,0 L62.0339609,0 L62.0339609,37.0176776 C62.0339609,43.8457305 58.4729456,50.1821288 52.6385712,53.7382855 L51.9170772,54.1762786 L51.9170764,54.1762791 C46.2432417,57.6335792 39.725807,59.462654 33.0798426,59.462654 L33.0798418,59.462654 C26.4336415,59.462654 19.915118,57.6388909 14.2353494,54.1907822 L13.4427223,53.7092798 L13.4427201,53.7092784 C7.55862498,50.1372409 3.96603524,43.7570795 3.96603524,36.8784471 L3.96603524,0 L3.96603524,0 Z M9.77283053,5.80119502 L9.77283053,36.878448 L9.77283053,36.8785516 C9.77283053,41.7311664 12.3070242,46.2322263 16.4579915,48.7521375 L17.2506186,49.23364 L17.2506201,49.2336408 C22.0216348,52.1298255 27.4971585,53.6613786 33.0798448,53.6613786 L33.0798431,53.6613786 C38.6589274,53.6613786 44.1301686,52.1257828 48.8931899,49.2234343 L49.6146839,48.7854411 L49.6146834,48.7854413 C53.7216552,46.2827979 56.227168,41.8236881 56.227168,37.0176374 L56.227168,5.80119502 L9.77283053,5.80119502 L9.77283053,5.80119502 Z M15.5796234,10.1521307 L50.4203766,10.1521307 L50.4203766,22.022937 L50.4203766,22.0230246 C50.4203766,24.6384386 49.3868311,27.1480889 47.5444992,29.0062333 L47.5444994,29.0062332 C45.7041455,30.8625647 43.1973896,31.9068504 40.5821555,31.9068504 L25.4918451,31.9068504 L25.491845,31.9068504 C20.0178001,31.9060496 15.5803766,27.4728854 15.5796234,22.0040526 L15.5796234,10.1521307 L15.5796234,10.1521307 Z M21.3864153,15.9533955 L21.3864153,22.0040829 L21.3864153,22.0040836 C21.3864153,24.2692662 23.224465,26.1055563 25.4918177,26.1055563 L40.5822189,26.1055563 L40.5822187,26.1055563 C41.647765,26.1055563 42.66908,25.6799632 43.4188367,24.9235548 L43.4188366,24.9235549 C44.1841518,24.1517668 44.6135841,23.1093276 44.6135841,22.0229377 L44.6135841,15.9533955 L21.3864153,15.9533955 L21.3864153,15.9533955 Z M25.4918177,44.7101144 C24.3594932,45.8428054 21.6012669,44.9247601 19.3337146,42.659378 C17.0661622,40.393996 16.1472374,37.63986 17.2810135,36.507169 C18.413338,35.3744779 21.1715643,36.2925233 23.4391167,38.5579053 C25.706669,40.8232874 26.6255939,43.5774234 25.4918177,44.7101144 L25.4918177,44.7101144 Z M40.5081823,44.7101144 C39.3744061,43.5788737 40.293331,40.8232874 42.5608833,38.5579053 C44.8284357,36.2925233 47.5852103,35.3744779 48.7189865,36.507169 C49.8527626,37.6384097 48.9338378,40.393996 46.6662854,42.659378 C44.3987331,44.9247601 41.6419585,45.8428054 40.5081823,44.7101144 Z" id="形状"></path>
        </g>
    </g>
</svg>