<?xml version="1.0" encoding="UTF-8"?>
<svg width="140px" height="140px" viewBox="0 0 140 140" version="1.1" xmlns="http://www.w3.org/2000/svg" xmlns:xlink="http://www.w3.org/1999/xlink">
    <title>icon_江苏省商务政策_off</title>
    <g id="icon_江苏省商务政策_off" stroke="none" stroke-width="1" fill="none" fill-rule="evenodd">
        <rect id="矩形备份-11" fill="#FFFFFF" opacity="0" x="0" y="0" width="140" height="140"></rect>
        <path d="M79.5296227,100.858398 L44.165663,100.858398 L44.165663,48.9208348 L44.1656631,48.9208348 C44.9848898,49.1995264 45.8450524,49.3403448 46.7107956,49.3375021 L95.8343761,49.3375021 L95.8343761,67.7500397 L95.8343761,67.7500401 C95.8343763,69.1698755 96.9907394,70.320878 98.417188,70.320878 C99.8436365,70.3208778 101,69.1698755 101,67.7500401 L101,49.3500181 L101,49.350202 C100.997798,46.5108123 98.6871814,44.2088778 95.8345669,44.2041809 L93.251755,44.2041809 L93.251755,36.5708391 L93.251755,36.5708391 C93.251755,35.1510036 92.0953917,34 90.6689431,34 C90.6688815,34 90.6688199,34 90.6687583,34 L46.7149694,34 L46.714969,34 C42.4564411,33.9977002 39.0023478,37.4320483 39,41.6708196 C39,41.6722088 39,41.6735981 39,41.6749873 L39,100.841666 L39,100.841731 C38.9931151,103.683687 41.3021179,105.993124 44.1573108,106 C44.1601071,106 44.1629035,106 44.1656999,106 L79.5296596,106 L79.5296595,106 C80.956108,106 82.1124714,104.848998 82.1124714,103.429162 C82.1124714,102.009327 80.956108,100.858324 79.5296595,100.858324 L79.5296227,100.858398 Z M46.6469532,39.0020559 L88,39.0020559 L88,43.9979052 L46.6469532,43.9979052 L46.6469533,43.9979052 C45.2432193,44.0538889 44.0590934,42.9809168 44.0021315,41.6013477 C43.9451672,40.2217786 45.0369338,39.0580372 46.4406678,39.0020559 C46.5094015,38.9993147 46.5782199,38.9993147 46.646954,39.0020559 L46.6469532,39.0020559 Z M88,62.5020219 L88,62.5020187 C88.0023014,61.1224297 86.8503844,60.0022373 85.4271238,60 C85.4257305,60 85.4243371,60 85.4229437,60 L54.4774531,60 L54.4774531,60 C53.0530367,60.055574 51.9447907,61.2199119 52.0021282,62.6006283 C52.0562262,63.9034258 53.1334149,64.9475645 54.4774531,65 L85.4103978,65 L85.4103977,65 C86.8336653,65 87.98745,63.8816181 87.98745,62.5020223 L88,62.5020219 Z M54.5983159,70 L54.5983158,70 C53.1633047,70 52,71.1192873 52,72.5 C52,73.8807127 53.1633047,75 54.5983158,75 L75.4016843,75 L75.4016842,75 C76.8366953,75 78,73.8807127 78,72.5 C78,71.1192873 76.8366953,70 75.4016842,70 L54.5983159,70 Z" id="形状备份-2" fill="#7F899C" fill-rule="nonzero"></path>
        <g id="编组" transform="translate(81.000000, 71.500000)" fill="#4A66BE" fill-rule="nonzero">
            <path d="M2.7687188,27.5 C2.05990017,27.5 1.35440932,27.1992867 0.828618968,26.6755725 C0.302828619,26.1484795 0,25.4423101 0,24.7361407 L0,7.82186209 C0,7.10555625 0.299500832,6.43993242 0.841930116,5.95000626 C1.36439268,5.4769741 2.04991681,5.21680641 2.77204659,5.21680641 L7.50415973,5.21680641 L7.50415973,3.26723814 C7.50415973,1.74339882 8.81863561,0.5 10.4359401,0.5 L19.577371,0.5 C20.3627288,0.5 21.1014975,0.790576899 21.6539101,1.32104868 C22.1963394,1.83800526 22.5091514,2.5475535 22.5091514,3.26723814 L22.5091514,5.21680641 L27.2312812,5.21680641 C27.936772,5.21680641 28.6422629,5.51751971 29.1680532,6.04123389 C29.6971714,6.56832687 30,7.27449631 30,7.98404455 L30,24.7327619 C30,25.4659617 29.7271215,26.1552371 29.234609,26.6688149 C28.7221298,27.2026655 28.0099834,27.5 27.2279534,27.5 L2.7687188,27.5 Z M2.27620632,24.7260043 C2.27620632,25.0267176 2.45923461,25.205794 2.7687188,25.205794 L27.2312812,25.205794 C27.5374376,25.205794 27.7204659,25.0267176 27.7204659,24.7293831 L27.7204659,13.5928545 C27.5540765,13.6739457 27.3777038,13.7516581 27.18802,13.8259917 L27.1813644,13.8293705 L17.6073211,17.1068077 L17.6073211,17.8467651 C17.6073211,18.8367538 16.8019967,19.6409085 15.8136439,19.6409085 L14.1797005,19.6409085 C13.7004992,19.6409085 13.2479201,19.4550745 12.9118136,19.1171943 C12.5723794,18.7793142 12.3860233,18.3265549 12.3860233,17.8467651 L12.3860233,17.2554749 L2.82196339,13.6604305 C2.62895175,13.5962333 2.44592346,13.5286572 2.27620632,13.4577024 L2.27620632,24.7260043 Z M15.6539101,17.6744463 L15.6539101,14.9207233 L14.3460899,14.9207233 L14.3460899,17.6744463 L15.6539101,17.6744463 Z M12.3926789,14.9207233 L12.3926789,14.7585409 C12.3926789,14.2753723 12.5790349,13.8226129 12.9184692,13.4847328 C13.2545757,13.1502315 13.7071547,12.9643974 14.1863561,12.9643974 L15.8202995,12.9643974 C16.2995008,12.9643974 16.7487521,13.1502315 17.0848586,13.4881116 C17.4209651,13.8259917 17.6039933,14.2753723 17.6073211,14.7551621 L26.4725458,11.579089 C27.1081531,11.3324365 27.4409318,11.1330872 27.5740433,10.9100863 C27.703827,10.6938431 27.703827,10.3660994 27.7004992,9.86941559 L27.7004992,7.98742335 C27.7004992,7.96715054 27.6938436,7.50763359 27.2113145,7.50763359 L2.6921797,7.50763359 C2.43261231,7.5380428 2.27953411,7.71036166 2.27953411,7.98742335 L2.27953411,9.77480916 C2.27953411,10.3086597 2.27953411,10.6634339 2.42262895,10.9371168 C2.57237937,11.2209361 2.90515807,11.4608309 3.5374376,11.7446502 L12.3926789,14.9207233 Z M20.2163062,5.21680641 L20.2163062,3.26723814 C20.2163062,3.1489801 20.2163062,2.78744838 19.5607321,2.78744838 L10.4326123,2.78744838 C10.1164725,2.78744838 9.78036606,2.98004005 9.78036606,3.26723814 L9.78036606,5.21680641 L20.2163062,5.21680641 Z" id="形状"></path>
        </g>
    </g>
</svg>