<?xml version="1.0" encoding="UTF-8"?>
<svg width="140px" height="140px" viewBox="0 0 140 140" version="1.1" xmlns="http://www.w3.org/2000/svg" xmlns:xlink="http://www.w3.org/1999/xlink">
    <title>icon_法律诉讼-裁判文书_off</title>
    <g id="icon_法律诉讼-裁判文书_off" stroke="none" stroke-width="1" fill="none" fill-rule="evenodd">
        <rect id="矩形备份-11" fill="#FFFFFF" opacity="0" x="0" y="0" width="140" height="140"></rect>
        <path d="M85.2290641,34 C88.4046587,34.0212343 90.974894,36.6011845 91,39.7927488 L91,39.7927488 L91,53.26983 C91,54.8128687 90.0065681,55.8113055 88.4712644,55.8113055 C86.8880952,55.8113055 85.9425287,54.517876 85.9425287,53.26983 L85.9425287,53.26983 L85.9425287,39.7927488 C85.9534614,39.5380608 85.8573245,39.2904921 85.6776258,39.1105787 C85.4979271,38.9306653 85.2512329,38.8349933 84.9978654,38.8469568 L84.9978654,38.8469568 L41.763711,38.8469568 C41.5109561,38.8360434 41.265235,38.9321798 41.0863455,39.1119706 C40.9074559,39.2917614 40.8118014,39.5387205 40.8226601,39.7927488 L40.8226601,39.7927488 L40.8226601,100.207251 C40.8118014,100.46128 40.9074559,100.708239 41.0863455,100.888029 C41.265235,101.06782 41.5109561,101.163957 41.763711,101.153043 L41.763711,101.153043 L65.345977,101.153043 C66.5254516,101.153043 67.5342364,102.014422 67.854844,103.293329 L67.854844,103.293329 L67.8747126,103.375019 L67.8747126,103.458525 C67.8747126,105.04967 66.5877668,106 65.345977,106 L65.345977,106 L41.763711,106 C38.5909375,105.974819 36.0250552,103.396009 36,100.207251 L36,100.207251 L36,39.7927488 C36.0250552,36.6039907 38.5909375,34.0251814 41.763711,34 L41.763711,34 Z M68.5338219,85 C69.7581031,85 70.6970123,85.9071429 70.9850267,87.3669643 L70.9850267,87.3669643 L70.9982384,87.4321429 L71,87.5 C71,89.0660714 69.7448915,90 68.5338219,90 L68.5338219,90 L48.4661781,90 C46.9221745,90 46,88.7285714 46,87.5 C46,85.9348215 47.2551085,85 48.4661781,85 L48.4661781,85 Z M68.5338219,73 C69.7581031,73 70.6952508,73.90625 70.9867883,75.3678572 L70.9867883,75.3678572 L71,75.4330357 L71,75.5 C71,77.0651785 69.7448915,78 68.5338219,78 L68.5338219,78 L48.4661781,78 C46.9221745,78 46,76.7276785 46,75.5 C46,73.9348215 47.2551085,73 48.4661781,73 L48.4661781,73 Z M68.5338219,60 C69.7581031,60 70.6970123,60.90625 70.9850267,62.3669643 L70.9850267,62.3669643 L70.9982384,62.43125 L71,62.5 C71,64.0651785 69.7448915,65 68.5338219,65 L68.5338219,65 L48.4661781,65 C46.9221745,65 46,63.7276785 46,62.5 C46,60.9339286 47.2551085,60 48.4661781,60 L48.4661781,60 Z M68.5338219,48 C69.7581031,48 70.6970123,48.9071429 70.9850267,50.3669643 L70.9850267,50.3669643 L70.9982384,50.4321429 L71,50.5 C71,52.0660714 69.7448915,53 68.5338219,53 L68.5338219,53 L48.4661781,53 C46.9221745,53 46,51.7285714 46,50.5 C46,48.9348215 47.2551085,48 48.4661781,48 L48.4661781,48 Z" id="形状结合" fill="#7F899C" fill-rule="nonzero"></path>
        <path d="M94.3118438,58 C96.7623031,58 98.9132218,60.2018179 98.9132218,62.7142196 L98.9132218,62.7142196 L98.9132218,69.8132799 C98.9132218,72.323833 96.7641076,74.5274996 94.3118438,74.5274996 L94.3118438,74.5274996 L92.9097769,74.5274996 L92.9097769,89.7054383 L97.7746063,89.7054383 C101.148048,89.7054383 104,92.6236328 104,96.0779541 L104,96.0779541 L104,104.833462 C103.981999,105.471356 103.480455,105.983576 102.857776,106 L102.857776,106 L72.1386155,106 C71.5173452,105.981651 71.0179097,105.469968 71,104.833462 L71,104.833462 L71,96.0779541 C71,92.6236327 73.8483432,89.7054383 77.2199803,89.7054383 L77.2199803,89.7054383 L82.0902231,89.7054383 L82.0902231,74.5274996 L80.6881562,74.5274996 C78.2376969,74.5274996 76.0867782,72.3256817 76.0867782,69.8132799 L76.0867782,69.8132799 L76.0867782,62.7142196 C76.0867782,60.2036666 78.2358924,58 80.6881562,58 L80.6881562,58 Z M97.8953715,94 L77.0991596,94 C76.5419837,93.9984927 76.0072078,94.2275851 75.6132236,94.636567 C75.2192394,95.0455488 74.998548,95.6006818 75,96.1790675 L75,96.1790675 L75,102 L100,102 L99.9945239,96.1790675 C99.9959831,95.6006818 99.7752917,95.0455488 99.3813075,94.636567 C98.9873233,94.2275851 98.4525474,93.9984927 97.8953715,94 L97.8953715,94 Z M89,74 L86,74 L86,90 L89,90 L89,74 Z M94.5554453,63 L81.4445547,63 C81.2061365,63.0173125 81.0163547,63.218208 81,63.4705882 L81,63.4705882 L81,70.5294118 C81.0163547,70.781792 81.2061365,70.9826875 81.4445547,71 L81.4445547,71 L94.5554453,71 C94.7938635,70.9826875 94.9836453,70.781792 95,70.5294118 L95,70.5294118 L95,63.4705882 C94.9836453,63.218208 94.7938635,63.0173125 94.5554453,63 L94.5554453,63 Z" id="形状结合" fill="#4A66BE" fill-rule="nonzero"></path>
    </g>
</svg>