<?xml version="1.0" encoding="UTF-8"?>
<svg width="140px" height="140px" viewBox="0 0 140 140" version="1.1" xmlns="http://www.w3.org/2000/svg" xmlns:xlink="http://www.w3.org/1999/xlink">
    <title>icon_政府采购信息_off</title>
    <g id="icon_政府采购信息_off" stroke="none" stroke-width="1" fill="none" fill-rule="evenodd">
        <rect id="矩形备份-11" fill="#FFFFFF" opacity="0" x="0" y="0" width="140" height="140"></rect>
        <path d="M69.8538462,101.5 L40.8076923,101.5 C39.4461538,101.5 38.5384615,100.6 38.5384615,99.25 L38.5384615,40.75 C38.5384615,39.4 39.4461538,38.5 40.8076923,38.5 L85.7384615,38.5 C87.5538462,38.5 88.4615385,39.4 88.4615385,40.75 L88.4615385,59.2 C88.4615385,60.55 89.3692308,61.45 90.7307692,61.45 C92.0923077,61.45 93,60.55 93,59.2 L93,40.75 C93,37.15 89.8230769,34 86.1923077,34 L40.8076923,34 C37.1769231,34 34,37.15 34,40.75 L34,98.8 C34,102.85 37.1769231,106 40.8076923,106 L69.4,106 C70.7615385,106 71.6692308,105.1 71.6692308,103.75 C71.6692308,102.4 71.2153846,101.5 69.8538462,101.5 Z" id="路径" fill="#7F899C" fill-rule="nonzero"></path>
        <path d="M80.618705,49 L45.2661871,49 C43.9064748,49 43,49.8976378 43,51.2440945 C43,52.5905512 43.9064748,53.488189 45.2661871,53.488189 L80.618705,53.488189 C81.9784173,53.488189 82.8848921,52.5905512 82.8848921,51.2440945 C82.8848921,49.8976378 81.9784173,49 80.618705,49 Z M82.8848921,62.015748 C82.8848921,60.6692913 81.9784173,59.7716535 80.618705,59.7716535 L45.2661871,59.7716535 C43.9064748,59.7716535 43,60.6692913 43,62.015748 C43,63.3622047 43.9064748,64.2598425 45.2661871,64.2598425 L80.618705,64.2598425 C81.9784173,64.2598425 82.8848921,63.3622047 82.8848921,62.015748 Z M45.2661871,75.0314961 L62.4892086,75.0314961 C63.8489209,75.0314961 64.7553957,74.1338583 64.7553957,72.7874016 C64.7553957,71.4409449 63.8489209,70.5433071 62.4892086,70.5433071 L45.2661871,70.5433071 C43.9064748,70.5433071 43,71.4409449 43,72.7874016 C43,74.1338583 43.9064748,75.0314961 45.2661871,75.0314961 Z M45.2661871,85.8031496 L67.0215827,85.8031496 C68.381295,85.8031496 69.2877698,84.9055118 69.2877698,83.5590551 C69.2877698,82.2125984 68.381295,81.3149606 67.0215827,81.3149606 L45.2661871,81.3149606 C43.9064748,81.3149606 43,82.2125984 43,83.5590551 C43,84.9055118 43.9064748,85.8031496 45.2661871,85.8031496 Z" id="形状" fill="#7F899C" fill-rule="nonzero"></path>
        <path d="M84.0179856,100.137448 C84.9996106,99.5762312 86.2090225,99.5762312 87.1906475,100.137448 C88.1722725,100.698664 88.7769784,101.735835 88.7769784,102.858268 C88.7769784,104.593399 87.3565293,106 85.6043165,106 C83.8521038,106 82.4316547,104.593399 82.4316547,102.858268 C82.4316547,101.735835 83.0363606,100.698664 84.0179856,100.137448 Z M97.8417266,99.7165354 C99.5939394,99.7165354 101.014388,101.123137 101.014388,102.858268 C101.014388,104.593399 99.5939394,106 97.8417266,106 C96.0895139,106 94.6690647,104.593399 94.6690647,102.858268 C94.6690647,101.123137 96.0895139,99.7165354 97.8417266,99.7165354 Z M75.0342346,70.5003307 L75.1798561,70.5433071 L76.0863309,70.992126 C78.7151079,71.8598425 80.9203597,73.985748 81.883271,76.9644261 L81.9784173,77.2755906 L104.640288,77.2755906 C105.493441,77.2755906 105.94511,77.6731602 105.995295,78.4682996 L106,78.6220472 L102.374101,90.7401575 C102.374101,91.1625753 101.972617,91.5849931 101.547517,91.2590444 L101.467626,91.1889764 L84.2446043,91.1889764 L84.2446043,92.5354331 C84.2446043,92.9543307 85.0342446,93.3732283 85.5080288,93.4272196 L85.6043165,93.4330709 L101.467626,93.4330709 C102.827338,93.4330709 103.733813,94.3307087 103.733813,95.6771654 C103.733813,96.9675197 102.901304,97.8456775 101.635197,97.9166171 L101.467626,97.9212598 L86.057554,97.9212598 C83.4158273,97.9212598 80.7741007,96.2271059 80.2098135,93.6616728 L80.1654676,93.4330709 L78.352518,78.6220472 C77.9198823,77.3367931 77.0742761,76.051539 75.4215004,75.5469971 L75.1798561,75.480315 L73.8201439,75.0314961 C72.4604317,74.5826772 72.0071942,73.2362205 72.4604317,72.3385827 C72.4604317,71.0402137 73.7247559,70.1591776 75.0342346,70.5003307 Z M98.294964,81.7637795 L85.6043165,81.7637795 C84.6978417,81.7637795 83.7913669,82.6614173 83.7913669,83.5590551 C83.7913669,84.411811 84.6094604,85.2645669 85.4684586,85.3477106 L85.6043165,85.3543307 L98.294964,85.3543307 C99.2014388,85.3543307 100.107914,84.4566929 100.107914,83.5590551 C100.107914,82.6614173 99.2014388,81.7637795 98.294964,81.7637795 Z" id="形状结合" fill="#4A66BE" fill-rule="nonzero"></path>
    </g>
</svg>