<?xml version="1.0" encoding="UTF-8"?>
<svg width="140px" height="140px" viewBox="0 0 140 140" version="1.1" xmlns="http://www.w3.org/2000/svg" xmlns:xlink="http://www.w3.org/1999/xlink">
    <title>icon_经营风险-行政处罚</title>
    <g id="icon_经营风险-行政处罚" stroke="none" stroke-width="1" fill="none" fill-rule="evenodd">
        <rect id="矩形备份-11" fill="#FFFFFF" opacity="0" x="0" y="0" width="140" height="140"></rect>
        <path d="M101.681978,74.9255719 C101.420262,72.5496883 101.027689,70.3057983 100.635116,68.0619083 C99.3265382,60.802264 98.0179608,53.2786327 101.55112,38.8913378 C101.812835,37.9673831 101.420262,36.9114349 100.765973,36.2514672 C99.9808269,35.5914996 98.933965,35.459506 98.0179608,35.8554866 C85.4556173,41.3992149 73.2858471,34.2715642 71.9772697,33.4796031 C71.0612655,32.8196354 69.6218303,32.8196354 68.7058261,33.6115966 C66.7429599,34.7995384 54.9657629,41.1352279 42.7959927,35.8554866 C41.8799885,35.459506 40.8331266,35.5914996 40.0479801,36.2514672 C39.3936914,36.9114349 39.0011181,37.8353896 39.2628336,38.8913378 C42.7959927,53.4106263 41.4874153,60.9342576 40.1788378,68.0619083 C39.7862646,70.3057983 39.3936914,72.5496883 39.1319759,74.9255719 C37.561683,89.9728345 50.3857419,95.1205822 57.3212023,98.0244399 C57.975491,98.2884269 58.498922,98.552414 59.022353,98.8164011 C65.0418092,101.456272 68.1823951,105.680065 68.3132528,105.944052 C68.8366838,106.604019 69.6218303,107 70.4069767,107 C71.322981,107 72.1081274,106.472026 72.6315584,105.812058 C72.6315584,105.812058 75.7721443,101.456272 81.7916005,98.9483946 C82.3150315,98.6844075 82.9693202,98.4204205 83.4927512,98.1564334 C90.4282116,95.1205822 103.252271,89.9728345 101.681978,74.9255719 Z M81.6607427,93.1406792 C81.006454,93.4046663 80.3521653,93.6686533 79.8287343,93.9326404 C75.379571,95.7805498 72.3698429,98.4204205 70.4069767,100.26833 C68.5749683,98.4204205 65.4343825,95.7805498 60.9852192,93.9326404 C60.4617882,93.6686533 59.8074995,93.4046663 59.1532107,93.1406792 C50.6474574,89.7088474 43.188566,85.7490415 44.2354279,75.453546 C44.4971434,73.3416495 44.8897166,71.229753 45.2822899,68.985863 C46.4600096,62.3861864 47.768587,54.8625551 45.2822899,42.1911761 C56.6669136,45.0950338 66.7429599,40.6072537 70.4069767,38.6273508 C74.0709936,40.6072537 84.1470399,45.2270273 95.5316636,42.1911761 C93.0453665,54.8625551 94.3539439,62.2541929 95.5316636,68.985863 C95.9242369,71.229753 96.3168101,73.209656 96.5785256,75.453546 C97.6253875,85.6170479 90.0356384,89.5768539 81.6607427,93.1406792 Z M64.5183783,79.677339 L64.5183783,69.1178565 L54.442332,69.1178565 L54.442332,73.0776624 L60.5926459,73.0776624 L60.5926459,80.2053131 C60.5926459,80.9972743 60.2000727,81.657242 59.545784,82.1852161 L61.1160769,85.881035 C64.3875205,84.5610997 67.3972486,82.9771773 70.276119,81.1292679 L69.0983993,76.9054749 C67.5281064,77.9614231 65.9578134,78.8853778 64.5183783,79.677339 L64.5183783,79.677339 Z M55.4891939,60.9342576 L86.5024793,60.9342576 L86.5024793,50.110788 L55.4891939,50.110788 L55.4891939,60.9342576 Z M77.3424372,53.5426198 L82.4458892,53.5426198 L82.4458892,57.5024258 L77.3424372,57.5024258 L77.3424372,53.5426198 Z M68.3132528,53.5426198 L73.5475626,53.5426198 L73.5475626,57.5024258 L68.3132528,57.5024258 L68.3132528,53.5426198 Z M59.4149262,53.5426198 L64.5183783,53.5426198 L64.5183783,57.5024258 L59.4149262,57.5024258 L59.4149262,53.5426198 Z M67.0046754,65.5540312 C65.0418092,63.9701088 62.9480853,62.5181799 60.5926459,61.3302382 L57.8446333,63.8381153 C60.2000727,65.1580506 62.4246544,66.6099794 64.5183783,68.3258953 L67.0046754,65.5540312 L67.0046754,65.5540312 Z M76.8190062,64.3660894 L72.8932739,64.3660894 L72.8932739,77.9614231 L76.8190062,77.9614231 L76.8190062,64.3660894 L76.8190062,64.3660894 Z M81.7916005,79.5453455 C81.7916005,81.1292679 81.1373118,81.921229 79.8287343,81.921229 C78.6510146,81.921229 77.3424372,81.7892355 75.903002,81.657242 L76.8190062,85.7490415 L81.2681695,85.7490415 C84.4087554,85.7490415 86.109906,84.0331255 86.109906,80.6012937 L86.109906,62.2541929 L81.9224582,62.2541929 L81.9224582,79.5453455 L81.7916005,79.5453455 L81.7916005,79.5453455 Z" id="形状" fill="#FFFFFF" fill-rule="nonzero"></path>
    </g>
</svg>