<?xml version="1.0" encoding="UTF-8"?>
<svg width="140px" height="140px" viewBox="0 0 140 140" version="1.1" xmlns="http://www.w3.org/2000/svg" xmlns:xlink="http://www.w3.org/1999/xlink">
    <title>icon_知识产权-商标信息_off</title>
    <g id="icon_知识产权-商标信息_off" stroke="none" stroke-width="1" fill="none" fill-rule="evenodd">
        <rect id="矩形备份-11" fill="#FFFFFF" opacity="0" x="0" y="0" width="140" height="140"></rect>
        <path d="M66,27.9457831 C45.5654643,27.9457831 29,44.5112474 29,64.9457831 C29,85.3803189 45.5654643,101.945783 66,101.945783 C86.4345357,101.945783 103,85.3803189 103,64.9457831 C103,44.5112474 86.4345357,27.9457831 66,27.9457831 Z M65.7741429,96.219926 C48.3771733,96.219926 34.2741429,82.1168956 34.2741429,64.719926 C34.2741429,47.3229564 48.3771733,33.219926 65.7741429,33.219926 C83.1711127,33.219926 97.2741429,47.3229566 97.2741429,64.719926 C97.2741429,82.1168954 83.1711127,96.219926 65.7741429,96.219926 Z" id="形状" fill="#7F899C" fill-rule="nonzero"></path>
        <path d="M67.7918571,47.354926 C75.9477143,47.354926 79.7005714,52.3023546 79.7005714,58.1800688 C79.7005714,63.9784974 76.101,66.9702117 73.2255714,68.0273546 L73.2255714,68.0273546 L73.2308571,68.0273546 L79.8802857,81.5904974 C79.9861298,81.7928738 79.9780243,82.0359462 79.8589336,82.2308219 C79.7398428,82.4256977 79.5272333,82.5437953 79.2988571,82.5419479 L79.2988571,82.5419479 L74.177,82.5419479 C73.918,82.5419479 73.6854286,82.393926 73.5797143,82.1613546 L73.5797143,82.1613546 L67.4218571,69.0157831 L60.0958571,69.0157831 L60.0958571,81.875926 C60.0958571,82.2408284 59.8000453,82.5366403 59.4351429,82.5366403 L59.4351429,82.5366403 L54.9317143,82.5366403 C54.5722857,82.5366403 54.271,82.2406403 54.271,81.875926 L54.271,81.875926 L54.271,48.0156403 C54.271,47.6507379 54.5668119,47.354926 54.9317143,47.354926 L54.9317143,47.354926 Z M66.9778571,52.1437831 L60.0905714,52.1437831 L60.0905714,64.3696403 L66.8192857,64.3696403 C71.1958571,64.3696403 73.659,62.2553546 73.659,58.380926 C73.659,54.2316403 70.9421429,52.1437831 66.9778571,52.1437831 L66.9778571,52.1437831 Z" id="形状结合" fill="#4A66BE" fill-rule="nonzero"></path>
    </g>
</svg>