<?xml version="1.0" encoding="UTF-8"?>
<svg width="140px" height="140px" viewBox="0 0 140 140" version="1.1" xmlns="http://www.w3.org/2000/svg" xmlns:xlink="http://www.w3.org/1999/xlink">
    <title>icon_知识产权-网站信息</title>
    <g id="icon_知识产权-网站信息" stroke="none" stroke-width="1" fill="none" fill-rule="evenodd">
        <rect id="矩形备份-11" fill="#FFFFFF" opacity="0" x="0" y="0" width="140" height="140"></rect>
        <g id="编组" transform="translate(27.168349, 35.054748)" fill="#FFFFFF" fill-rule="nonzero">
            <path d="M65.5705045,63.8595012 C67.0418421,63.8595012 68.2010777,64.999411 68.2456637,66.4023768 C68.2010777,67.8053426 66.9972561,68.9452524 65.5705045,68.9452524 L65.5705045,68.9452524 L20.1373835,68.9452524 C18.6214599,68.9452524 17.4176382,67.8053426 17.4176382,66.4023768 C17.4622242,64.999411 18.6660459,63.8595012 20.0927975,63.8595012 L20.0927975,63.8595012 Z M79.9717784,0.945252352 C81.264772,0.945252352 82.4685937,1.42752186 83.3157274,2.21669013 C84.2520331,3.0497011 84.831651,4.18961083 84.831651,5.5048913 L84.831651,5.5048913 L84.831651,49.7421576 C84.831651,51.057438 84.2520331,52.1973478 83.3603134,53.0303587 C82.4685937,53.8633697 81.264772,54.3456392 79.9717784,54.3456392 L79.9717784,54.3456392 L5.6915236,54.3456392 C4.39852996,54.3456392 3.19470831,53.8633697 2.34757455,53.0742014 C1.41126882,52.2411905 0.831650984,51.1012807 0.831650984,49.7860003 L0.831650984,49.7860003 L0.831650984,5.54873398 C0.831650984,4.23345351 1.41126882,3.09354378 2.30298856,2.26053282 C3.19470831,1.42752186 4.39852996,0.945252352 5.6915236,0.945252352 L5.6915236,0.945252352 Z M79.3921605,6.03100348 L6.27114143,6.03100348 L6.27114143,49.3475734 L79.3921605,49.3475734 L79.3921605,6.03100348 Z" id="形状结合"></path>
            <path d="M41.1005558,13.9957228 C47.9440277,13.3882088 54.0369252,18.335109 54.6550453,25.0611577 L54.6550453,25.0611577 L54.7874996,26.5799428 C54.831651,26.9704876 54.831651,27.3176385 54.831651,27.7081833 L54.831651,27.7081833 L52.749651,27.8912524 L52.7503525,27.893475 L34.6255109,29.5580654 C35.5609604,33.3517285 39.1878825,35.9625146 43.2198245,35.6058661 C45.2949418,35.3888968 47.2376048,34.390838 48.6062992,32.7852651 L48.6062992,32.7852651 L53.9927738,32.3079326 C53.507108,33.436173 52.8448366,34.5210196 52.0059594,35.5190784 C49.8866907,38.0359224 46.8843933,39.5981015 43.573036,39.9018585 C43.2198245,39.9452524 42.8224616,39.9452524 42.4250988,39.9452524 C36.0672926,39.9452524 30.6366666,35.1719275 30.0185465,28.8364237 L30.0185465,28.8364237 L29.8860923,27.3176385 C29.5770322,24.0630988 30.5925152,20.8953469 32.7117839,18.3785029 C34.8310526,15.8616589 37.8333499,14.2994799 41.1005558,13.9957228 Z M42.2926445,18.2917152 C42.0277359,18.2917152 41.8069787,18.2917152 41.5420701,18.335109 C39.4228014,18.5086845 37.4801385,19.5501372 36.1114441,21.1557101 C35.1564264,22.2760116 34.5453424,23.6287104 34.3381875,25.0516492 L49.8992947,23.622573 C49.4335832,22.2668527 48.5852064,21.0531523 47.4142105,20.1142574 C45.9572133,18.9426231 44.1470046,18.2917152 42.2926445,18.2917152 Z" id="形状结合"></path>
        </g>
    </g>
</svg>