<?xml version="1.0" encoding="UTF-8"?>
<svg width="140px" height="140px" viewBox="0 0 140 140" version="1.1" xmlns="http://www.w3.org/2000/svg" xmlns:xlink="http://www.w3.org/1999/xlink">
    <title>icon_机场信息_hover</title>
    <g id="icon_机场信息_hover" stroke="none" stroke-width="1" fill="none" fill-rule="evenodd">
        <rect id="矩形备份-11" fill="#FFFFFF" opacity="0" x="0" y="0" width="140" height="140"></rect>
        <g id="飞机场/航班" transform="translate(34.000000, 38.000000)" fill="#FFFFFF" fill-rule="nonzero">
            <path d="M70.0276201,57.5901914 L70.0276201,64.109589 L4.37676616,64.109589 L4.37676616,57.5901914 L70.0276201,57.5901914 Z M22.5926541,0 L43.1413538,8.39917759 L50.6430644,3.96816027 L50.6430632,3.96816096 C56.7523494,0.360352898 64.581386,1.57264046 69.2944781,6.85625016 L69.7978013,7.41691884 L69.7978017,7.41691929 C73.0040368,11.0099517 72.6700636,16.5037663 69.0518567,19.6877038 C68.4634753,20.2054629 67.8075391,20.6421516 67.1017409,20.9859863 L14.292199,46.7289331 L3.44010865,31.8430033 L0,25.7473615 L9.40556558,20.1624104 L16.5899593,24.0479754 L23.8793919,19.7734237 L7.91530344,8.69698824 L22.5926603,0 L22.5926541,0 Z M23.1309911,7.27130352 L19.9972592,9.12716285 L36.0051234,20.2340816 L16.7213059,31.5430764 L9.55660748,27.6683829 L8.84757798,28.0899706 L8.98325604,28.3311882 L16.3646024,38.4579813 L64.2087836,15.1337575 L64.2087836,15.1337575 C64.3262512,15.0764677 64.4383065,15.0088295 64.5436031,14.9316563 L64.6967884,14.8099608 L64.6967883,14.8099608 C65.5221429,14.0834623 65.6740811,12.860566 65.051303,11.9566333 L64.8827993,11.7414931 L64.379476,11.1786516 L64.379476,11.1786516 C61.8683145,8.36640391 57.7513273,7.61361947 54.3961314,9.35322209 L54.0000381,9.57270865 L43.6797199,15.666173 L23.1310202,7.27130352 L23.1309911,7.27130352 Z" id="形状"></path>
        </g>
    </g>
</svg>