<?xml version="1.0" encoding="UTF-8"?>
<svg width="140px" height="140px" viewBox="0 0 140 140" version="1.1" xmlns="http://www.w3.org/2000/svg" xmlns:xlink="http://www.w3.org/1999/xlink">
    <title>icon_基本信息-营业执照信息_off</title>
    <g id="icon_基本信息-营业执照信息_off" stroke="none" stroke-width="1" fill="none" fill-rule="evenodd">
        <rect id="矩形备份-11" fill="#FFFFFF" opacity="0" x="0" y="0" width="140" height="140"></rect>
        <g id="编组" transform="translate(34.000000, 42.500000)" fill-rule="nonzero">
            <path d="M64.2229859,0.5 L7.77701407,0.5 C3.40419495,0.578821639 -0.0769475715,4.18741338 0.00129346269,8.5604 L0.00129346269,46.4396 C-0.0769475715,50.8125866 3.40419495,54.4211784 7.77701407,54.5 L64.2229859,54.5 C68.5958051,54.4211784 72.0769476,50.8125866 71.9987065,46.4396 L71.9987065,8.5604 C72.0769476,4.18741338 68.5958051,0.578821639 64.2229859,0.5 Z M68.2548411,46.4396 C68.2770165,47.5306331 67.8645306,48.585721 67.1082646,49.372401 C66.3519985,50.1590811 65.314007,50.6128029 64.2229859,50.6336 L7.77701407,50.6336 C6.68599303,50.6128029 5.64800153,50.1590811 4.89173544,49.372401 C4.13546935,48.585721 3.72298349,47.5306331 3.74515894,46.4396 L3.74515894,8.5604 C3.72298349,7.46936691 4.13546935,6.41427903 4.89173544,5.62759899 C5.64800153,4.84091894 6.68599303,4.38719714 7.77701407,4.3664 L64.2229859,4.3664 C65.314007,4.38719714 66.3519985,4.84091894 67.1082646,5.62759899 C67.8645306,6.41427903 68.2770165,7.46936691 68.2548411,8.5604 L68.2548411,46.4396 Z M61.3430894,25.8548 L43.5957271,25.8548 C42.5300767,25.8548 41.6661964,26.7187113 41.6661964,27.7844 C41.6661964,28.8500887 42.5300767,29.714 43.5957271,29.714 L61.3430894,29.714 C62.4087398,29.714 63.2726201,28.8500887 63.2726201,27.7844 C63.2726201,26.7187113 62.4087398,25.8548 61.3430894,25.8548 Z M61.3430894,34.0916 L43.5957271,34.0916 C42.5300768,34.0916 41.6661965,34.9555114 41.6661965,36.0212 C41.6661965,37.0868886 42.5300768,37.9508 43.5957271,37.9508 L61.3430894,37.9508 C62.4087398,37.9508 63.2726201,37.0868887 63.2726201,36.0212 C63.2726201,34.9555113 62.4087398,34.0916 61.3430894,34.0916 Z M61.3430894,17.5676 L43.5957271,17.5676 C42.5300767,17.5676 41.6661964,18.4315113 41.6661964,19.4972 C41.6661964,20.5628887 42.5300767,21.4268 43.5957271,21.4268 L61.3430894,21.4268 C62.4087398,21.4268 63.2726201,20.5628887 63.2726201,19.4972 C63.2726201,18.4315113 62.4087398,17.5676 61.3430894,17.5676 Z" id="形状" fill="#7F899C"></path>
            <path d="M18.072589,14.9022618 C21.0536919,13.117027 24.7752485,13.117027 27.7563514,14.9022618 C30.7374543,16.6874966 32.4944305,19.9683183 32.3281319,23.4392 C32.3237717,24.5818252 32.1291147,25.7157431 31.7521526,26.7944 L31.7521526,26.7944 L36.863969,35.5388 C37.0837346,35.9081684 37.1484417,36.3494867 37.0439625,36.7664 C36.9833989,36.9530334 36.8986832,37.1309426 36.7919715,37.2956 C36.7559728,37.346 36.7199741,37.3856 36.6839754,37.4288 C36.5823344,37.5283796 36.4740926,37.6209898 36.3599871,37.706 C36.3454631,37.7208453 36.3333203,37.7378459 36.3239884,37.7564 C36.2879897,37.7816 36.2519909,37.7816 36.2159922,37.7816 C36.0004439,37.917597 35.7508804,37.9899731 35.4960181,37.9904 C35.3626296,37.9874139 35.2299163,37.9705225 35.1000323,37.94 L35.1000323,37.94 L31.3921656,36.968 L30.4921979,40.0208 C30.4301261,40.1932593 30.3453856,40.3566932 30.240207,40.5068 C30.2042082,40.5392 30.1682095,40.5572 30.1322108,40.5896 C30.0518362,40.7164365 29.9402897,40.8205504 29.8082225,40.892 C29.7868237,40.8995647 29.7724392,40.9197038 29.7722238,40.9424 L29.7722238,40.9424 L29.6642276,40.9424 C29.4550396,41.0609134 29.2204999,41.1275745 28.9802522,41.1368448 C28.8210719,41.1350837 28.6631504,41.1083575 28.512269,41.0576 C28.4362039,41.0303861 28.3636862,40.9941259 28.2962768,40.9496 C28.2339622,40.9176104 28.1738329,40.8815316 28.1162833,40.8416 C27.9385914,40.7204613 27.7908534,40.5604062 27.6842988,40.3736 C27.6532694,40.3633128 27.6274527,40.3413679 27.6123014,40.3124 L27.6123014,40.3124 L27.5763027,40.262 L23.6884424,33.224 C23.4364514,33.2492 23.1844605,33.3104 22.9324695,33.3104 C22.6804786,33.3104 22.4284876,33.2492 22.1764967,33.224 L22.1764967,33.224 L18.2526377,40.3124 C18.2417133,40.345886 18.2146409,40.3716057 18.1806403,40.3808 C18.0696341,40.5603033 17.9225275,40.7147708 17.7486558,40.8344 C17.680568,40.8797198 17.6082293,40.9183019 17.5326635,40.9496 C17.4759595,40.990825 17.415728,41.0269652 17.35267,41.0576 C17.2025388,41.1112858 17.0441223,41.1380957 16.8846868,41.1368448 C16.60595,41.1347284 16.3327199,41.0589664 16.0927153,40.9172 C16.0669184,40.8937755 16.042856,40.8685091 16.0207179,40.8416 L16.0207179,40.8416 L15.9127218,40.7336 C15.6786979,40.5473325 15.5036479,40.297252 15.4087399,40.0136 C15.4087399,39.9956 15.3727412,39.9704 15.3727412,39.9704 L15.3727412,39.9704 L15.3727412,39.9056 L14.4727735,36.9104 L10.7649067,37.8824 C10.63542,37.915072 10.5024632,37.9319944 10.3689209,37.9328 C10.1147047,37.9279884 9.86629514,37.8559471 9.64894681,37.724 C9.62315422,37.7220541 9.59832587,37.7133639 9.5769494,37.6988 C9.55131257,37.6844703 9.52719069,37.6675844 9.50495199,37.6484 C9.39489909,37.5746766 9.29762261,37.4834766 9.21696234,37.3784 L9.21696234,37.3784 L9.10896622,37.2452 C9.00378755,37.0950932 8.9190471,36.9316593 8.85697527,36.7592 L8.85697527,36.7592 L8.85697527,36.7088 C8.75309022,36.2930337 8.81779059,35.8530553 9.0369688,35.4848 L9.0369688,35.4848 L14.1127864,26.7872 C13.7242219,25.7129487 13.5173961,24.5814495 13.5008084,23.4392 C13.3345098,19.9683183 15.091486,16.6874966 18.072589,14.9022618 Z M29.9162186,29.9768 C29.0750368,30.9829448 28.03277,31.8020733 26.8563285,32.3816 L26.8563285,32.3816 L28.5482677,35.4596 L28.8362574,34.4984 C28.8722561,34.3976 28.9442535,34.322 28.9802522,34.2284 C29.0097477,34.1329449 29.0587857,34.0446734 29.1242471,33.9692 C29.1962445,33.8936 29.2682419,33.8432 29.3402393,33.7748 C29.4131585,33.6948153 29.4981925,33.6267856 29.5922302,33.5732 C29.6642276,33.5408 29.7362251,33.5228 29.8082225,33.4976 C29.9232854,33.4468375 30.0442062,33.41056 30.1682095,33.3896 C30.2399259,33.3806024 30.3124855,33.3806024 30.3842018,33.3896 C30.503586,33.3724677 30.6248046,33.3724677 30.7441888,33.3896 L30.7441888,33.3896 L32.1481384,33.782 Z M15.9127218,29.9192 L13.7168007,33.7352 L15.1207502,33.3572 C15.2166132,33.3500392 15.3128768,33.3500392 15.4087399,33.3572 C15.5045269,33.3482294 15.6009425,33.3482294 15.6967295,33.3572 C15.808412,33.3775432 15.9172065,33.4113916 16.0207179,33.458 C16.1071865,33.4774155 16.191576,33.5051444 16.2727088,33.5408 C16.3694431,33.5934111 16.4550276,33.6643265 16.5246998,33.7496 C16.5966972,33.818 16.6686946,33.8684 16.740692,33.944 C16.8062039,34.0288652 16.8550621,34.1253635 16.8846868,34.2284 C16.9206855,34.3112 16.9926829,34.3796 17.0286817,34.4732 L17.0286817,34.4732 L17.3166713,35.4344 L19.0086105,32.324 C17.8213056,31.7453678 16.7670881,30.9264811 15.9127218,29.9192 L15.9127218,29.9192 Z M25.0277631,17.2739232 C22.5102673,16.2702056 19.6352626,16.9023776 17.7709833,18.8695844 C15.9067041,20.8367911 15.4297167,23.7416757 16.5670228,26.2017837 C17.704329,28.6618916 20.2262037,30.1803048 22.9324695,30.0344 C26.4852266,29.9343467 29.2869536,26.9779355 29.1962445,23.4248 C29.1967357,20.7145068 27.5452588,18.2776408 25.0277631,17.2739232 Z" id="形状结合" fill="#4A66BE"></path>
        </g>
    </g>
</svg>