<?xml version="1.0" encoding="UTF-8"?>
<svg width="140px" height="140px" viewBox="0 0 140 140" version="1.1" xmlns="http://www.w3.org/2000/svg" xmlns:xlink="http://www.w3.org/1999/xlink">
    <title>icon_手机IMEI_off</title>
    <g id="icon_手机IMEI_off" stroke="none" stroke-width="1" fill="none" fill-rule="evenodd">
        <rect id="矩形备份-11" fill="#FFFFFF" opacity="0" x="0" y="0" width="140" height="140"></rect>
        <g id="编组" transform="translate(42.000000, 32.000000)" fill-rule="nonzero">
            <path d="M44.6901132,0 L11.301434,0 C5.07169811,0 0,5.06306507 0,11.2821967 L0,64.3178033 C0,70.5369349 5.07169811,75.6 11.301434,75.6 L44.698566,75.6 C50.9283019,75.6 56,70.5369349 56,64.3178033 L56,11.2821967 C56,5.06306507 50.9283019,0 44.6901132,0 Z M27.9957736,72.8828217 C26.8630943,72.8828217 25.9417358,71.9630316 25.9417358,70.8322804 C25.9417358,69.7015292 26.8546415,68.781739 27.9957736,68.781739 C29.1284528,68.781739 30.0498113,69.7015292 30.0498113,70.8322804 C30.0498113,71.9630316 29.1284528,72.8828217 27.9957736,72.8828217 L27.9957736,72.8828217 Z M50.9919227,58.128595 C50.9919227,62.0249093 47.841791,65.184083 43.9485514,65.184083 L12.0433714,65.184083 C8.15820896,65.184083 5,62.0249093 5,58.128595 L5,12.2395711 C5,8.3432568 8.15013169,5.18408304 12.0433714,5.18408304 L43.9566286,5.18408304 C47.841791,5.18408304 51,8.3432568 51,12.2395711 L51,58.128595 L50.9919227,58.128595 Z" id="形状" fill="#7F899C"></path>
            <polygon id="路径" fill="#4A66BE" points="8.16543396 44.504342 11.7747925 44.504342 11.7747925 28.9438553 8.16543396 28.9438553"></polygon>
            <polygon id="路径" fill="#4A66BE" points="34.9693585 38.0658109 42.8981132 38.0658109 42.8981132 35.1629869 34.9693585 35.1629869 34.9693585 31.8382409 43.4644528 31.8382409 43.4644528 28.9438553 31.4276226 28.9438553 31.4276226 44.4959036 43.6842264 44.4959036 43.6842264 41.7365331 34.9693585 41.7365331 34.9693585 38.0658109"></polygon>
            <polygon id="路径" fill="#4A66BE" points="44.6563019 44.504342 48.2656604 44.504342 48.2656604 28.9438553 44.6563019 28.9438553"></polygon>
            <path d="M21.7406792,39.1290546 C21.6476981,39.2725081 21.5969811,39.6437995 21.5969811,40.2598058 C21.5462642,40.4960822 21.5293585,40.6817279 21.5293585,40.8251814 C21.4363774,39.9728988 21.3603019,39.4075232 21.3180377,39.1290546 L18.5539623,28.9438553 L13.3132075,28.9438553 L13.3132075,44.4959036 L16.6436226,44.4959036 L16.6436226,35.947762 C16.6436226,35.3317558 16.6182642,34.3191428 16.576,32.909923 C16.525283,32.395178 16.5083774,31.9901328 16.5083774,31.7116642 L16.576,31.7116642 C16.8126792,32.7495926 16.9986415,33.5512446 17.1423396,34.1166202 L20.0501132,44.5127804 L23.0255094,44.5127804 L25.933283,34.4035272 C26.1192453,33.8381516 26.3136604,32.9689921 26.4996226,31.7876102 L26.5672453,31.7876102 C26.4742642,33.0618149 26.4235472,34.2178815 26.4235472,35.2558098 L26.4235472,44.5212189 L29.8215849,44.5212189 L29.8215849,28.9438553 L24.5132075,28.9438553 L21.7406792,39.1290546 Z" id="路径" fill="#4A66BE"></path>
        </g>
    </g>
</svg>