<?xml version="1.0" encoding="UTF-8"?>
<svg width="140px" height="140px" viewBox="0 0 140 140" version="1.1" xmlns="http://www.w3.org/2000/svg" xmlns:xlink="http://www.w3.org/1999/xlink">
    <title>icon_全国开发区_off</title>
    <g id="icon_全国开发区_off" stroke="none" stroke-width="1" fill="none" fill-rule="evenodd">
        <rect id="矩形备份-22" fill="#F2F6FC" opacity="0" x="0" y="0" width="140" height="140"></rect>
        <path d="M42.5135135,99.2432432 L37.6486486,99.2432432 L37.6486486,40.8648649 C37.6486486,38.1780742 39.8267228,36 42.5135135,36 L71.7027027,36 C74.3894934,36 76.5675676,38.1780742 76.5675676,40.8648649 L76.5675676,99.2432432 L71.7027027,99.2432432 L71.7027027,40.8648649 L42.5135135,40.8648649 L42.5135135,99.2432432 Z M96.027027,67.6216216 L100.891892,67.6216216 L100.891892,99.2432432 L96.027027,99.2432432 L96.027027,67.6216216 Z M36.4324324,104.108108 C35.0890371,104.108108 34,103.019071 34,101.675676 C34,100.33228 35.0890371,99.2432432 36.4324324,99.2432432 L100.891892,99.2432432 C102.235287,99.2432432 103.324324,100.33228 103.324324,101.675676 C103.324324,103.019071 102.235287,104.108108 100.891892,104.108108 L36.4324324,104.108108 Z M104.20973,67.787027 C105.01966,68.1033519 105.59931,68.8277411 105.73033,69.6873241 C105.86135,70.5469072 105.523835,71.411093 104.844925,71.9543511 C104.166014,72.4976093 103.24885,72.637406 102.438919,72.3210811 L73.2351351,60.9202703 C72.0018781,60.4200902 71.3995355,59.0216821 71.8833339,57.7819071 C72.3671323,56.5421321 73.7574381,55.9213168 75.0035135,56.3886486 L104.212162,67.787027 L104.20973,67.787027 Z M83.8940541,75.6802703 C85.2374494,75.6802703 86.3264865,76.7693074 86.3264865,78.1127027 C86.3264865,79.456098 85.2374494,80.5451351 83.8940541,80.5451351 L74.1156757,80.5451351 C72.7722803,80.5451351 71.6832432,79.456098 71.6832432,78.1127027 C71.6832432,76.7693074 72.7722803,75.6802703 74.1156757,75.6802703 L83.8940541,75.6802703 Z M83.8940541,85.41 C85.2374494,85.41 86.3264865,86.4990371 86.3264865,87.8424324 C86.3264865,89.1858278 85.2374494,90.2748649 83.8940541,90.2748649 L74.1156757,90.2748649 C72.7722803,90.2748649 71.6832432,89.1858278 71.6832432,87.8424324 C71.6832432,86.4990371 72.7722803,85.41 74.1156757,85.41 L83.8940541,85.41 Z" id="形状" fill="#7F899C" fill-rule="nonzero"></path>
        <path d="M54.6756757,74.9189189 C54.6756757,76.2623143 53.5866386,77.3513514 52.2432432,77.3513514 C50.8998479,77.3513514 49.8108108,76.2623143 49.8108108,74.9189189 L49.8108108,70.0540541 C49.8108108,68.7106587 50.8998479,67.6216216 52.2432432,67.6216216 C53.5866386,67.6216216 54.6756757,68.7106587 54.6756757,70.0540541 L54.6756757,74.9189189 Z" id="路径" fill="#4A66BE" fill-rule="nonzero"></path>
        <path d="M54.6756757,57.8918919 C54.6756757,59.2352872 53.5866386,60.3243243 52.2432432,60.3243243 C50.8998479,60.3243243 49.8108108,59.2352872 49.8108108,57.8918919 L49.8108108,53.027027 C49.8108108,51.6836317 50.8998479,50.5945946 52.2432432,50.5945946 C53.5866386,50.5945946 54.6756757,51.6836317 54.6756757,53.027027 L54.6756757,57.8918919 Z" id="路径" fill="#4A66BE" fill-rule="nonzero"></path>
        <path d="M64.4054054,57.8918919 C64.4054054,59.2352872 63.3163683,60.3243243 61.972973,60.3243243 C60.6295776,60.3243243 59.5405405,59.2352872 59.5405405,57.8918919 L59.5405405,53.027027 C59.5405405,51.6836317 60.6295776,50.5945946 61.972973,50.5945946 C63.3163683,50.5945946 64.4054054,51.6836317 64.4054054,53.027027 L64.4054054,57.8918919 Z" id="路径" fill="#4A66BE" fill-rule="nonzero"></path>
        <path d="M64.4054054,74.9189189 C64.4054054,76.2623143 63.3163683,77.3513514 61.972973,77.3513514 C60.6295776,77.3513514 59.5405405,76.2623143 59.5405405,74.9189189 L59.5405405,70.0540541 C59.5405405,68.7106587 60.6295776,67.6216216 61.972973,67.6216216 C63.3163683,67.6216216 64.4054054,68.7106587 64.4054054,70.0540541 L64.4054054,74.9189189 Z" id="路径" fill="#4A66BE" fill-rule="nonzero"></path>
        <polygon id="路径" fill="#4A66BE" fill-rule="nonzero" points="54.6756757 101.675676 49.8108108 101.675676 49.8108108 85.41 65.1351351 85.41 65.1351351 101.675676 60.2702703 101.675676 60.2702703 90.2748649 54.6756757 90.2748649"></polygon>
    </g>
</svg>