<?xml version="1.0" encoding="UTF-8"?>
<svg width="140px" height="140px" viewBox="0 0 140 140" version="1.1" xmlns="http://www.w3.org/2000/svg" xmlns:xlink="http://www.w3.org/1999/xlink">
    <title>icon_知识产权-专利信息_off</title>
    <g id="icon_知识产权-专利信息_off" stroke="none" stroke-width="1" fill="none" fill-rule="evenodd">
        <rect id="矩形备份-11" fill="#FFFFFF" opacity="0" x="0" y="0" width="140" height="140"></rect>
        <path d="M67.8741533,34.7811687 C67.5792345,34.3865302 67.4071985,34.7811687 67.4071985,34.7811687 L58.7562458,106.802681 L68.0953425,107 C68.0707659,107 67.8741533,34.7811687 67.8741533,34.7811687 Z M96.6533172,42.1066445 C96.6533172,42.1066445 89.3786524,37.3956483 75.5911965,40.7007451 C75.5911965,40.7007451 93.1880208,38.9988668 97.6363801,52.6385573 C97.6363801,52.6385573 100.708451,66.475567 90.2142558,77.1061395 C90.2142558,77.1061395 82.6446722,85.6401954 77.5818986,87.736712 L70.872495,33.2766097 C70.872495,33.2766097 70.3318104,32.3886733 70.3318104,33.7945727 L70.3318104,106.210723 C70.3318104,106.210723 78.5158083,103.300265 79.3022586,101.894365 L78.2454661,92.8670115 C78.2454661,92.8670115 100.757605,81.4471621 105.353423,62.479853 C105.30427,62.4551881 109.60517,48.5195188 96.6533172,42.1066445 Z" id="形状" fill="#7F899C" fill-rule="nonzero"></path>
        <path d="M51.8010763,87.6133875 L52.4646437,91.9544102 L57.0604624,92.8176817 L53.0299048,94.6675493 L53.251094,99.1318965 L50.1298695,96.1474434 L45.9764292,98.2932898 L47.8196719,94.1495863 L44.8704835,91.0171439 L49.5154553,91.1651333 L51.8010763,87.6133875 Z M38.9966831,75.231607 L38.9475301,78.8820124 L42.0687545,79.0300018 L39.119566,81.471827 L38.9475301,85.245557 L36.5390262,82.8777264 L33.1474595,85.5908656 L35.0644319,81.6691463 L33,79.3753104 L36.3669901,78.8080177 L38.9966831,75.231607 Z M53.6443191,62.4551881 L55.8316339,66.6728862 L60.5257588,65.1683273 L57.1341921,69.7559989 L58.7562458,74.4669951 L54.1604271,73.0364308 L50.277329,78.0927356 L51.1866621,72.0251698 L47.2052577,71.0879035 L52.218878,68.4487591 L53.6443191,62.4551881 Z M43.7399612,59.5940595 L44.7721772,61.4439271 L46.7383028,60.9506291 L45.2145555,62.8744914 C45.2145555,62.8744915 45.7060869,65.1683273 45.6815103,65.1683273 L45.6815103,65.1683273 L43.6170784,64.3790504 L41.5526465,66.7468809 L41.9950248,64.1817312 L40.2500883,63.737763 L42.8060516,62.4551881 L43.7399612,59.5940595 Z M55.9053636,49.3087957 L55.9053636,50.4433811 L57.1096155,50.6653652 L55.5858682,51.8739454 L55.1434899,53.3045096 L54.1604271,52.737217 C54.1604271,52.737217 52.5137969,53.7484779 52.5137969,53.723813 L52.5137969,53.723813 L53.5460128,52.2439189 L52.9561752,51.1093335 L54.6519585,50.8133546 L55.9053636,49.3087957 Z" id="形状结合" fill="#4A66BE" fill-rule="nonzero"></path>
    </g>
</svg>