<?xml version="1.0" encoding="UTF-8"?>
<svg width="140px" height="140px" viewBox="0 0 140 140" version="1.1" xmlns="http://www.w3.org/2000/svg" xmlns:xlink="http://www.w3.org/1999/xlink">
    <title>icon_知识产权-资质证书</title>
    <g id="icon_知识产权-资质证书" stroke="none" stroke-width="1" fill="none" fill-rule="evenodd">
        <rect id="矩形备份-11" fill="#FFFFFF" opacity="0" x="0" y="0" width="140" height="140"></rect>
        <path d="M93,92.5488503 L93,39.4511497 C93,35.9774425 90.2499756,33 86.7500244,33 L42.2499756,33 C40.7499756,33 39,33.7443606 37.7499756,34.9849859 C36.4999512,36.2256112 36,37.7142598 36,39.4511497 L36,92.5488503 C36,96.0225575 38.7500244,99 42.2499756,99 L86.4999756,99 C90,99 93,96.0225575 93,92.5488503 Z M42.2566361,94 C41.502625,94 41,93.2566368 41,92.5132737 L41,39.4867263 C41,38.9911267 41,38.7433632 41.2513125,38.495527 C41.7540111,38.2477635 42.0053236,38 42.2566361,38 L48.5401109,38 L48.5401109,48.9026112 L51.0534566,46.9203578 C51.5561552,46.6725217 52.0587802,46.6725217 52.5614788,46.9203578 L55.0748246,48.9026112 L55.0748246,38 L86.4919778,38 C87.2459889,38 88,38.7433632 88,39.4867263 L88,92.5132737 C88,93.2566368 87.2459889,94 86.4919778,94 L42.2566361,94 Z M98.2097198,42 C97.958736,42 97.4566947,42 97.2057108,42.2452592 C96.9546534,42.4905183 96.7036695,42.7358493 96.7036695,43.2263676 L96.7036695,46.6603551 C97.4566947,46.6603551 98.2097198,47.3962045 98.2097198,48.1320538 L98.2097198,100.622615 C98.2097198,101.358465 97.4566947,102.094314 96.7036695,102.094314 L52.526169,102.094314 C51.7731439,102.094314 51.0201187,101.358465 51.0201187,100.622615 L46.7530252,100.622615 C46.5019677,100.622615 46.2509839,100.622615 46.2509839,100.867946 C46,101.113205 46,101.113205 46,101.358465 C46.5019677,104.547193 49.2630845,107 52.526169,107 L96.7036695,107 C98.4607037,107 99.966754,106.264151 101.22182,105.037711 C102.476887,103.811272 102.978855,102.339645 102.978855,100.622615 L102.978855,48.1320538 C103.229912,45.1886565 101.22182,42.7358493 98.2097198,42 Z M77.7322817,59 L50.2677183,59 C49.0078502,59 48,59.8888672 48,61 C48,62.1111328 49.0078502,63 50.2677183,63 L77.7322817,63 C78.9921498,63 80,62.1111328 80,61 C80,59.8888672 78.9921498,59 77.7322817,59 Z M77.7322817,71 L50.2677183,71 C49.0078502,71 48,71.8888672 48,73 C48,74.1111328 49.0078502,75 50.2677183,75 L77.7322817,75 C78.9921498,75 80,74.1111328 80,73 C80,71.8888672 78.9921498,71 77.7322817,71 Z" id="形状" fill="#FFFFFF" fill-rule="nonzero"></path>
    </g>
</svg>