<?xml version="1.0" encoding="UTF-8"?>
<svg width="140px" height="140px" viewBox="0 0 140 140" version="1.1" xmlns="http://www.w3.org/2000/svg" xmlns:xlink="http://www.w3.org/1999/xlink">
    <title>icon_小语种_hover</title>
    <g id="icon_小语种_hover" stroke="none" stroke-width="1" fill="none" fill-rule="evenodd">
        <rect id="矩形备份-11" fill="#FFFFFF" opacity="0" x="0" y="0" width="140" height="140"></rect>
        <g id="编组" transform="translate(34.000000, 34.000000)" fill="#FFFFFF" fill-rule="nonzero">
            <path d="M55.5995675,9.7297297 C59.2843244,9.73187824 62.2702703,12.7195668 62.2702703,16.4043243 L62.2702703,65.3254054 C62.2702703,69.0101629 59.2843244,71.9978515 55.5995675,72 L6.67070269,72 C2.98594585,71.9978514 0,69.0101628 0,65.3254054 L0,16.4043243 C0,12.7195669 2.98594585,9.73187827 6.67070269,9.7297297 L55.5995675,9.7297297 Z M7.94335134,15.5597838 C6.78050834,15.5597838 5.83783784,16.5024543 5.83783784,17.6652973 L5.83783784,64.0488649 C5.83783784,65.2164324 6.78551351,66.1543784 7.94335134,66.1543784 L54.326919,66.1543784 C55.4925406,66.1543784 56.4324325,65.2086487 56.4324325,64.0488649 L56.4324325,17.673081 C56.4324325,16.5055135 55.4847568,15.5675675 54.326919,15.5675675 L7.94335134,15.5675675 L7.94335134,15.5597838 Z M57.4054054,0 C65.2816465,0 71.737026,6.24962378 71.9922162,14.1217297 L72,14.5945946 L72,61.2972973 L66.1621622,61.2972973 L66.1621622,14.5945946 C66.1621586,9.91876541 62.4885834,6.06785108 57.817946,5.84756754 L57.4054054,5.83783784 L10.7027027,5.83783784 L10.7027027,0 L57.4054054,0 Z M34.5677838,23.3513513 L48.6486487,58.2382703 L42.1958919,58.2382703 L38.8488649,49.4854054 L23.4311351,49.4854054 L20.0743784,58.2382703 L13.6216216,58.2382703 L27.7024865,23.3513513 L34.5677838,23.3513513 Z M31.2596757,29.5063784 L31.0572973,29.5063784 L25.2272432,44.7976216 L37.043027,44.7976216 L31.2596757,29.5063784 L31.2596757,29.5063784 Z" id="形状"></path>
        </g>
    </g>
</svg>