<?xml version="1.0" encoding="UTF-8"?>
<svg width="140px" height="140px" viewBox="0 0 140 140" version="1.1" xmlns="http://www.w3.org/2000/svg" xmlns:xlink="http://www.w3.org/1999/xlink">
    <title>icon_POI信息_off</title>
    <g id="icon_POI信息_off" stroke="none" stroke-width="1" fill="none" fill-rule="evenodd">
        <rect id="矩形备份-22" fill="#F2F6FC" opacity="0" x="0" y="0" width="140" height="140"></rect>
        <path d="M42.9080831,88.486169 L42.9080831,75.0304766 C43.6143187,75.1702542 44.458557,75.2195878 45.4489036,75.2195878 C50.8511972,75.2195878 59.1271714,73.024252 59.1271714,63.165826 C59.1271714,59.8481618 57.8080528,56.9539379 55.6487578,55.1285878 C53.3433451,53.1675878 49.9136399,52.2795878 45.3515299,52.2795878 C41.357645,52.2795878 38.2567044,52.6084766 36,53.0278116 L36,88.486169 L42.9081188,88.486169 L42.9080831,88.486169 Z M45.3514942,69.8011466 C44.3205514,69.8011466 43.5656126,69.7517858 42.9080831,69.6120079 L42.9080831,57.9364845 C43.5169065,57.7925957 44.5072581,57.6528181 45.9156739,57.6528181 C49.7715533,57.6528181 52.2149715,59.6631538 52.2149715,63.4905943 C52.2149715,67.3714823 49.6782035,69.8011466 45.355561,69.8011466 L45.3514942,69.8011466 Z M105,88.4861119 L105,52.5591119 L98.0431729,52.5591119 L98.0431729,88.4861119 L105,88.4861119 Z" id="形状" fill="#7F899C" fill-rule="nonzero"></path>
        <path d="M77.8342765,52 C87.8433287,52 92.7342105,60.5017617 92.7342105,70.0806426 C92.7342105,82.599 86.3415631,89 77.3634609,89 C67.8211504,89 62.4147972,81.0572852 62.4147972,70.6397617 C62.4147972,59.8933574 68.3853586,52 77.8342765,52 Z M77.6435359,57.6527473 C72.1925055,57.6527473 69.7003861,63.9139855 69.7003861,70.4999855 C69.7003861,77.5505596 72.4725762,83.3472238 77.598873,83.3472238 C82.7698041,83.3472238 85.4486302,77.5998664 85.4486302,70.3561047 C85.4486302,63.7741949 82.9565393,57.6527473 77.6435359,57.6527473 Z" id="形状结合" fill="#4A66BE" fill-rule="nonzero"></path>
    </g>
</svg>