<?xml version="1.0" encoding="UTF-8"?>
<svg width="140px" height="140px" viewBox="0 0 140 140" version="1.1" xmlns="http://www.w3.org/2000/svg" xmlns:xlink="http://www.w3.org/1999/xlink">
    <title>icon_基本信息-投资信息_hover</title>
    <g id="icon_基本信息-投资信息_hover" stroke="none" stroke-width="1" fill="none" fill-rule="evenodd">
        <rect id="矩形备份-11" fill="#FFFFFF" opacity="0" x="0" y="0" width="140" height="140"></rect>
        <g id="编组" transform="translate(33.000000, 33.000000)" fill="#FFFFFF" fill-rule="nonzero">
            <path d="M5.94989091,46.1893489 C0.833742675,29.0485425 10.573373,10.9596827 27.7408927,5.84019401 C44.9084123,0.720705373 62.947572,10.4666949 68.1016176,27.6454234 C73.2556633,44.824152 63.4781355,62.8750897 46.3106159,68.0325005 C32.7433487,72.0901692 18.0770571,66.8569142 10.1565017,55.1010514 L6.85942838,58.4381995 C18.6834154,75.0860181 41.7629286,78.9919984 58.4377821,67.1602913 C75.1126356,55.3285842 78.9781698,32.2340021 67.1541828,15.5482614 C60.2189596,5.76434974 48.9634335,-0.0377373887 36.9878569,0 C16.5611613,-0.0377373887 0,16.534237 0,36.9742694 C0,43.0418115 1.47799838,49.0335093 4.35820035,54.3805308 L7.76896584,50.9296162" id="路径"></path>
            <path d="M4.27695486,54.5263158 L21.7488532,36.972919 L35.500928,50.9393173 L50.8686837,35.332058 L58.4210526,43.0021292 L58.4210526,24.3421053 L40.0849529,24.3421053 L47.6373218,32.0121765 L35.500928,44.3377138 L21.7488532,30.3713155 L1.94736842,49.2221372 C1.94736842,49.2221372 2.21038625,50.3669239 3.07458767,52.1222636 C3.93878909,53.8776033 4.27695486,54.5263158 4.27695486,54.5263158 Z" id="路径"></path>
        </g>
    </g>
</svg>