<?xml version="1.0" encoding="UTF-8"?>
<svg width="140px" height="140px" viewBox="0 0 140 140" version="1.1" xmlns="http://www.w3.org/2000/svg" xmlns:xlink="http://www.w3.org/1999/xlink">
    <title>icon_法律诉讼-失信被执行人_off</title>
    <g id="icon_法律诉讼-失信被执行人_off" stroke="none" stroke-width="1" fill="none" fill-rule="evenodd">
        <rect id="矩形备份-11" fill="#FFFFFF" opacity="0" x="0" y="0" width="140" height="140"></rect>
        <path d="M79.3738573,60.9237087 C79.6449868,60.1516932 79.8259223,59.3510243 79.9130717,58.5375978 C79.9159039,58.4692882 79.9090537,58.4009218 79.892724,58.3345246 C79.8321889,58.2460676 79.7603679,58.1658559 79.679073,58.0959135 L79.394205,57.7913036 C78.8242796,57.1188314 78.5988327,56.2207086 78.7837736,55.3595013 C78.9465553,54.3085971 79.03812,53.4404589 79.0889893,52.6281659 C79.2385227,50.6640372 79.1565713,48.6891805 78.8448168,46.7441181 C78.7981269,46.4130803 78.7284376,46.0856818 78.6362527,45.7642896 C78.3523169,44.633226 77.8206995,43.5790371 77.0796526,42.677576 C76.7235677,42.2968137 75.7977467,41.6114414 74.1902774,40.8448399 C71.3466844,39.484249 67.5416621,38.5044205 62.6378632,38.1388886 C61.1467474,38.0496252 59.6513695,38.0581048 58.1613663,38.1642728 L58.0850624,38.1642728 C57.9288562,38.173226 57.7728302,38.185074 57.617065,38.1998106 L57.6221519,38.2150411 L57.5051525,40.3473104 C57.4186748,40.5046921 57.4186748,40.5046921 57.3220231,40.6519203 C56.8741309,41.3141578 56.3208479,41.898925 55.6840322,42.3831198 C54.5954296,43.3071032 53.3847406,44.9723039 53.2677413,46.9014999 C52.8756832,49.6674506 52.9099931,52.4769876 53.3694798,55.2325805 C53.4765002,55.6033018 53.5144328,55.9904786 53.4813923,56.3748676 L52.8760478,57.8471487 C52.6878314,58.050222 52.6878314,58.050222 52.575919,58.1517586 L52.4233112,58.2888331 C52.219834,58.471599 52.219834,58.4512917 52.219834,58.5274442 C52.2401818,58.7812857 52.3113988,59.3245067 52.4894412,60.009879 C52.7743092,61.1267819 53.2321328,62.1929165 53.8883465,63.1168999 C54.1884753,63.5332001 54.5140387,63.9139624 55.3635557,64.8430226 C55.9536394,65.4928571 56.2283335,65.8025438 56.5793316,66.2137671 C59.0719265,69.1380221 60.4962664,71.9658173 60.8421775,75.7328263 C60.9947854,77.3726429 60.9795246,78.423547 60.8472644,79.0835351 L60.592918,79.8145989 C60.6349989,79.7370113 60.6690862,79.6553642 60.6946566,79.570911 C60.236833,81.1650361 58.252931,82.3580915 54.2953008,83.368381 C52.6095575,83.7956983 50.9010348,84.1279108 49.1778509,84.3634399 C46.3953011,84.8355853 44.0909226,85.6529552 42.3257585,86.7647813 C40.942114,87.6329195 39.8840329,88.6838236 39.166776,89.8921095 C38.3019982,91.3288528 38.0476518,92.6995974 38.0985211,93.7505015 L38.0985211,93.9231138 L60.9846115,93.9231138 L60.9846115,99 L36.826789,99 C35.819451,99.005344 34.8512958,98.6107984 34.1356581,97.9032472 C33.4200205,97.195696 33.0156293,96.2332045 33.0115928,95.2278595 L33.0115928,93.8824991 C32.9200281,92.0345324 33.3575039,89.6890362 34.8021915,87.2826181 C35.9467504,85.3737294 37.5694805,83.7542202 39.6093388,82.4697818 C41.9900212,80.9721165 44.9302658,79.931366 48.3588555,79.3526072 L48.4911156,79.3322999 C50.0205999,79.1223421 51.5371632,78.827428 53.0337426,78.4489312 C54.351257,78.1138603 55.277078,77.7889431 55.8620747,77.5097173 C55.8457647,77.0689975 55.8169272,76.6288283 55.7755969,76.1897411 C55.5415982,73.6157875 54.5750818,71.6967452 52.7030922,69.503554 C52.3406712,69.0809156 51.970966,68.6645534 51.5941419,68.2546534 C50.9323538,67.5636701 50.3155739,66.8311079 49.7475869,66.0614622 C48.2072112,63.9178381 47.3044269,61.3837969 47.1430796,58.7508247 L47.1379927,58.5680588 C47.1010978,57.3978503 47.4875228,56.2534912 48.2265953,55.3442708 C47.7992934,52.5164756 47.7992934,48.6936214 48.2265953,46.3481253 C48.389377,42.9314176 50.2918882,40.3066957 52.3826157,38.519651 C52.2923982,37.9636784 52.3044648,37.395951 52.4182242,36.8442966 C52.7336138,35.2400178 53.9036073,33.8692733 55.912944,33.3463596 C56.5386362,33.1889779 57.0117205,33.1382096 57.830716,33.0925181 L57.9070199,33.0925181 C59.6072252,32.9744715 61.3134141,32.9693834 63.0142959,33.0772876 C72.6285904,33.788044 78.3005154,36.499072 80.8388927,39.2557916 C82.1259274,40.7526375 83.0517528,42.524193 83.5451385,44.4341598 C83.7130071,45.0433795 83.8198326,45.5764469 83.8707019,45.9775166 C84.2573085,48.1605541 84.3030908,50.333438 84.1657438,52.9073916 C84.1195068,53.6884832 84.0431463,54.467508 83.936832,55.2427341 C84.2959397,55.7018776 84.5667233,56.2234355 84.7354797,56.7810141 C84.9186091,57.3445424 85,57.928378 85,58.5680588 L85,58.7609784 C84.9593046,59.4209665 84.8677399,60.1571071 84.6947843,60.9237087 L79.3738573,60.9237087 Z" id="路径" fill="#7F899C" fill-rule="nonzero"></path>
        <path d="M86.5,107 C75.1781626,107 66,97.8218374 66,86.5 C66,75.1781626 75.1781626,66 86.5,66 C97.8218374,66 107,75.1781626 107,86.5 C107,97.8218374 97.8218374,107 86.5,107 Z M86.5,101.875 C91.9929585,101.875 97.0686616,98.9445417 99.8151409,94.1875001 C102.56162,89.4304585 102.56162,83.5695415 99.8151409,78.8124999 C97.0686616,74.0554583 91.9929585,71.125 86.5,71.125 C78.008622,71.125 71.125,78.008622 71.125,86.5 C71.125,94.991378 78.008622,101.875 86.5,101.875 L86.5,101.875 Z M84.0605,76.25 L89.1855,76.25 L89.1855,88.319375 L84.0605,88.319375 L84.0605,76.25 Z M84.0605,91.625 L89.1855,91.625 L89.1855,96.75 L84.0605,96.75 L84.0605,91.625 Z" id="形状" fill="#4A66BE" fill-rule="nonzero"></path>
    </g>
</svg>