<?xml version="1.0" encoding="UTF-8"?>
<svg width="140px" height="140px" viewBox="0 0 140 140" version="1.1" xmlns="http://www.w3.org/2000/svg" xmlns:xlink="http://www.w3.org/1999/xlink">
    <title>icon_公安项目招标信息</title>
    <g id="icon_公安项目招标信息" stroke="none" stroke-width="1" fill="none" fill-rule="evenodd">
        <rect id="矩形备份-11" fill="#FFFFFF" opacity="0" x="0" y="0" width="140" height="140"></rect>
        <path d="M69.9906495,33 C74.7051837,33 79.2135892,33.8827136 83.3625907,35.4895695 L79.2083038,39.6441377 C65.2884279,35.4214378 50.2807549,41.2110423 42.8025723,53.6886061 C35.3243898,66.1661699 37.2934693,82.1318357 47.5791808,92.4182438 C57.8648924,102.704652 73.8294769,104.673865 86.3061956,97.1951757 C98.7829143,89.7164867 104.572127,74.7077971 100.349713,60.7869785 L104.498714,56.6324103 C110.357589,71.7548146 105.686147,88.9303505 92.9751032,99.0013811 C80.2640597,109.072412 62.4764661,109.691295 49.0962959,100.528055 C35.7161256,91.3648152 29.8624091,74.5554808 34.6562259,59.0624378 C39.4500426,43.5693948 53.7739134,33.0042022 69.9906495,33 L69.9906495,33 Z M69.9906495,48.8571306 C73.0931512,48.8571306 76.0370925,49.5231301 78.6956246,50.728272 L74.5994767,54.8246974 C67.6395387,52.7133474 60.1357022,55.6081496 56.3966109,61.8469315 C52.6575196,68.0857134 53.6420593,76.0685463 58.7849151,81.2117504 C63.9277709,86.3549546 71.9100631,87.339561 78.1484225,83.6002164 C84.3867819,79.8608719 87.2813881,72.3565271 85.1701811,65.3961178 L89.2663291,61.2996923 C93.1233054,69.8428868 90.8951407,79.9059243 83.7922861,86.0220567 C76.6894314,92.1381891 66.4077404,92.8471493 58.5327448,87.7637945 C50.6577492,82.6804396 47.0696562,73.0184543 49.7176985,64.026715 C52.3657409,55.0349757 60.6176808,48.8603197 69.9906495,48.8571306 L69.9906495,48.8571306 Z M96.4174106,33 L96.4174106,43.5714204 L106.988115,43.5714204 L96.4174106,54.1428408 L91.1320584,54.1428408 L72.6333257,72.6428265 C71.6891884,73.5870277 70.3130784,73.9557803 69.0233629,73.6101787 C67.7336474,73.2645771 66.7262649,72.2571264 66.3806867,70.9673235 C66.0351085,69.6775207 66.4038361,68.3013174 67.3479734,67.3571163 L85.8467062,48.8571306 L85.8467062,43.5714204 L96.4174106,33 Z" id="形状" fill="#FFFFFF" fill-rule="nonzero"></path>
    </g>
</svg>