<?xml version="1.0" encoding="UTF-8"?>
<svg width="140px" height="140px" viewBox="0 0 140 140" version="1.1" xmlns="http://www.w3.org/2000/svg" xmlns:xlink="http://www.w3.org/1999/xlink">
    <title>icon_上市信息-上市股东信息</title>
    <g id="icon_上市信息-上市股东信息" stroke="none" stroke-width="1" fill="none" fill-rule="evenodd">
        <rect id="矩形备份-11" fill="#FFFFFF" opacity="0" x="0" y="0" width="140" height="140"></rect>
        <g id="编组" transform="translate(32.000000, 35.000000)" fill="#FFFFFF" fill-rule="nonzero">
            <path d="M58.9994227,69.998774 C54.7250177,69.998774 50.7077627,68.3867869 47.687107,65.4595246 C44.6762289,62.5590811 42.9884741,58.6122285 43.0000593,54.498898 C43.0000593,50.3582169 44.6641655,46.4655338 47.6859642,43.5382715 C50.6799591,40.6223599 54.7539023,38.9881882 58.9994227,39.0000643 C63.2738277,39.0000643 67.2922256,40.6121163 70.3140242,43.5393786 C73.324699,46.4398647 75.0120717,50.3867859 74.999935,54.5000052 C74.999935,58.6406863 73.3358228,62.5322623 70.3140242,65.4606317 C67.3196495,68.3768044 63.2454034,70.0113312 58.9994227,69.9999409 L58.9994227,69.998774 Z M58.9994227,43.4275581 C52.6975326,43.4275581 47.5705323,48.3930541 47.5705323,54.498898 C47.5705323,60.6025277 52.6975326,65.570238 58.9994227,65.570238 C65.3013128,65.570238 70.4283131,60.6025277 70.4283131,54.498898 C70.4283131,48.3930541 65.3013128,43.4275581 58.9994227,43.4275581 Z" id="形状"></path>
            <path d="M62.7153414,47 C63.0515556,46.999342 63.3686077,47.1565422 63.5717479,47.4246241 C63.8413636,47.6272609 64,47.9450165 64,48.2824316 C64,48.6198467 63.8413636,48.9376023 63.5717479,49.1402391 L63.5717479,49.1402391 L60.9999995,51.7134871 C60.9999998,51.7138243 61,51.7141614 61,51.7144986 C61,51.8152287 60.9858435,51.9142054 60.9588008,52.0088858 L63.7919966,52.0086919 C64.1217261,51.969992 64.4542456,52.0619035 64.6897315,52.2568342 C64.9252175,52.4517649 65.0362511,52.727018 64.9894997,52.9999617 C65.0362511,53.2729054 64.9252174,53.5481585 64.6897315,53.7430892 C64.4542456,53.9380198 64.1217261,54.0299313 63.7919966,53.9912315 L59.991,53.9909979 L59.991,57.0079979 L63.7919966,57.0086919 C64.1217261,56.9699921 64.4542456,57.0619035 64.6897315,57.2568342 C64.9252174,57.4517648 65.0362511,57.727018 64.9894997,57.9999617 C65.0362511,58.2729053 64.9252175,58.5481585 64.6897315,58.7430892 C64.4542456,58.9380198 64.1217261,59.0299313 63.7919966,58.9912315 L59.991,58.9909979 L59.9913095,60.791869 C60.030003,61.1216145 59.9381065,61.4541501 59.7432076,61.6896474 C59.5483087,61.9251447 59.2731003,62.0361837 59.0002011,61.9894301 C58.7267559,62.0364334 58.4509672,61.9249898 58.2559358,61.6886796 C58.0609044,61.4523694 57.9694363,61.1188255 58.0090927,60.7885516 L58.009,58.9909979 L54.208654,58.9912315 C53.8780444,59.0302077 53.544589,58.9378498 53.3088895,58.7420217 C53.0731899,58.5461936 52.9628471,58.2698271 53.0111508,57.9963005 C52.9659423,57.7239419 53.0776617,57.449798 53.312936,57.2557619 C53.5482102,57.0617258 53.8798008,56.9702616 54.208654,57.0086919 L58.009,57.0079979 L58.009,53.9909979 L54.208654,53.9912315 C53.8780444,54.0302077 53.544589,53.9378498 53.3088895,53.7420217 C53.0731899,53.5461936 52.9628471,53.2698271 53.0111508,52.9963005 C52.9659423,52.7239419 53.0776617,52.449798 53.312936,52.2557619 C53.5482102,52.0617258 53.8798008,51.9702616 54.208654,52.0086919 L58.009,52.0079979 L58.0088475,51.8512792 C58.008323,51.8472191 58.0078215,51.8431541 58.007343,51.8390843 L58,51.7139979 L55.4282521,49.1427507 C55.1586364,48.9402458 55,48.6226969 55,48.2855014 C55,47.9483058 55.1586364,47.630757 55.4282521,47.4282521 C55.630757,47.1586364 55.9483058,47 56.2855014,47 C56.6226969,47 56.9402458,47.1586364 57.1427507,47.4282521 L59.498,49.7839979 L61.8572493,47.4246241 C62.0626941,47.1591062 62.3791273,47.0006622 62.7153414,47 Z" id="形状结合"></path>
            <path d="M60.1872518,70 L7.8561576,70 C3.51557168,69.9851433 0.00373891312,66.5083251 1.81298703e-06,62.2221739 C-0.00472012309,48.4211632 9.21471958,36.2728811 22.6302814,32.402683 C17.9453227,28.7329696 15.3551205,23.046512 15.6828309,17.1504444 C16.0105412,11.2543767 19.2154073,5.88198426 24.2789352,2.74059235 C29.9425263,-0.74336159 37.0748479,-0.917412473 42.905806,2.28603864 C48.736764,5.48948975 52.3474991,11.5656336 52.3356521,18.154581 C52.3089634,23.6897143 49.7654175,28.9201856 45.4074351,32.4015587 C50.2359396,33.7983776 54.6551673,36.3174122 58.2949434,39.7476566 C56.1849376,39.8887891 54.1300216,40.474566 52.2684763,41.4655686 C47.7636846,38.1131018 42.2756157,36.3007774 36.6347298,36.3028381 L31.3972938,36.3028381 C16.9529002,36.3928414 5.27963273,47.9587828 5.23743961,62.2221739 C5.23592761,62.9089608 5.51115983,63.5681301 6.00242869,64.0542898 C6.49369756,64.5404496 7.16064292,64.8136595 7.8561576,64.8136578 L48.4553952,64.8136578 C52.7023821,69.2512446 59.2733155,70.6578063 65.0000018,68.3551651 C63.6282416,69.4214097 61.93301,70.0007821 60.1872518,70 Z M34.0171504,5.19484943 C28.7046948,5.17853123 23.9061068,8.32591923 21.8616124,13.1677155 C19.8171179,18.0095119 20.9299375,23.5908052 24.68055,27.3059627 C28.4311625,31.0211202 34.0798626,32.1374291 38.9895486,30.1337394 C43.8992347,28.1300496 47.1016336,23.4015341 47.1016336,18.1557053 C47.1054236,11.0119013 41.2516989,5.21351253 34.0171504,5.19484943 Z M34.0171504,62.2176768 C33.6693928,62.2167359 33.3369421,62.0763344 33.0960448,61.8286731 L29.5596369,58.3242674 C28.9039825,57.688784 28.6547051,56.7490962 28.9106503,55.8778167 L32.4493353,43.5578686 C31.5470177,42.8903772 31.1786321,41.7275385 31.5348687,40.671281 C31.8911052,39.6150235 32.8919898,38.9024735 34.0194276,38.9024735 C35.1468653,38.9024735 36.14775,39.6150235 36.5039865,40.671281 C36.860223,41.7275385 36.4918374,42.8903772 35.5895198,43.5578686 L39.1270662,55.8766924 C39.3812017,56.7479944 39.1321679,57.686764 38.4780796,58.3231431 L34.9405331,61.8275489 C34.7002536,62.0774339 34.3661072,62.2182034 34.0171504,62.2165525 L34.0171504,62.2176768 Z" id="形状"></path>
        </g>
    </g>
</svg>