<?xml version="1.0" encoding="UTF-8"?>
<svg width="140px" height="140px" viewBox="0 0 140 140" version="1.1" xmlns="http://www.w3.org/2000/svg" xmlns:xlink="http://www.w3.org/1999/xlink">
    <title>icon_地区经纬度信息_hover</title>
    <g id="icon_地区经纬度信息_hover" stroke="none" stroke-width="1" fill="none" fill-rule="evenodd">
        <rect id="矩形备份-11" fill="#FFFFFF" opacity="0" x="0" y="0" width="140" height="140"></rect>
        <g id="编组" transform="translate(34.000000, 34.000000)" fill="#FFFFFF" fill-rule="nonzero">
            <path d="M51.440829,52.5637306 C49.8948157,52.5165461 48.4454796,53.3139114 47.6577498,54.6450258 C46.8700201,55.9761402 46.8685658,57.6303362 47.6539539,58.9628336 C48.4393421,60.2953309 49.8872739,61.0952434 51.4333679,61.0507772 C53.7780312,61.0528375 55.6804266,59.1537825 55.6824886,56.8091192 C55.6845472,54.4644558 53.7854923,52.5620604 51.440829,52.56 L51.440829,52.5637306 Z M35.8992746,0 C16.1160622,0 0,16.0936788 0,35.8843523 C0,55.6712953 16.0936788,71.7724352 35.8992746,71.7724352 C36.4364767,71.7724352 36.9550259,71.8283938 37.5034197,71.8060104 C35.1517459,70.5297324 33.0600964,68.8240195 31.3367876,66.7772021 C27.3711917,64.6060104 23.9390674,60.1144041 21.7119171,53.5038342 L26.4982383,53.5038342 C26.4982383,53.5038342 26.6026943,50.2022798 26.7780311,50.2022798 L20.7419689,50.2022798 C19.9399822,46.9521242 19.4035008,43.6421588 19.1378238,40.3050777 L30.881658,40.3050777 C31.6501554,38.7158549 32.2768912,37.7459067 33.0789637,36.9997927 L18.988601,36.9997927 C18.988601,36.9997927 18.9550259,36.1268394 18.9550259,35.7687047 C18.9550259,31.6240415 19.4026943,27.1025907 20.2047668,23.7935751 L33.4482902,23.7935751 L33.4482902,36.6901554 C34.265285,36.0484974 35.2576166,35.5411399 36.7498446,34.9181347 L36.7498446,23.7898446 L51.5751295,23.7898446 C52.1533679,27.091399 52.4667358,29.3185492 52.6346114,32.1724352 C53.7649741,32.4335751 54.8617617,32.694715 55.917513,33.1498446 C55.7991448,30.0083196 55.4575582,26.8791864 54.8953368,23.786114 L64.8335751,23.786114 C66.3295337,27.091399 67.1651813,31.5867358 67.1651813,35.7612435 C67.1651813,36.1343005 67.1316062,36.9960622 67.1092228,36.9960622 L61.7483938,36.9960622 C62.8601036,36.9960622 63.8710881,40.2976166 64.7589637,40.2976166 L66.8368912,40.2976166 C66.717513,40.2976166 66.5720207,41.8868394 66.4041451,42.7038342 C67.653886,44.9309845 68.5119171,47.3856995 68.9110881,50.0157513 C70.8212052,45.5627094 71.8036874,40.7670788 71.7985693,35.921658 C71.7985693,16.1160622 55.682487,0 35.8992746,0 Z M4.6184456,35.7537824 C4.6184456,31.575544 5.45036269,27.091399 6.95005181,23.7786528 L16.8882902,23.7786528 C16.1570984,27.0839378 15.7430052,31.5941969 15.7430052,35.7537824 C15.7430052,36.1231088 15.7579275,36.988601 15.7728497,36.988601 L4.66321244,36.988601 C4.66321244,36.988601 4.6184456,36.1231088 4.6184456,35.757513 L4.6184456,35.7537824 Z M4.94673575,40.2976166 L15.892228,40.2976166 C16.1160622,43.6029016 16.6084974,46.9119171 17.3359585,50.1985492 L7.9573057,50.1985492 C6.49404424,47.055902 5.48057246,43.7228734 4.94673575,40.2976166 L4.94673575,40.2976166 Z M24.3979275,65.3856995 C18.3917098,63.0055959 13.3144041,56.8091192 9.80393782,53.5001036 L18.242487,53.5001036 C19.734715,56.8091192 21.8387565,62.3229016 24.3979275,65.3856995 L24.3979275,65.3856995 Z M17.6232124,20.4770984 L8.48704663,20.4770984 C11.9825907,13.8665285 17.6082902,9.15481865 24.3904663,6.45015544 C21.4731606,9.95689119 19.1229016,13.8665285 17.6232124,20.4770984 Z M33.4445596,20.4770984 L21.0217617,20.4770984 C23.2974093,13.8665285 27.2182383,6.92393782 31.8665285,4.71170984 C32.4037306,4.63709845 33.4557513,4.78632124 33.4557513,4.74528497 L33.4557513,20.4770984 L33.4445596,20.4770984 L33.4445596,20.4770984 Z M36.7498446,20.4770984 L36.7498446,4.66321244 C36.7498446,4.69678756 38.8725389,4.57740933 39.8984456,4.71917098 C44.5467358,6.95005181 48.4899482,13.8889119 50.7581347,20.4845596 L36.7498446,20.4845596 L36.7498446,20.480829 L36.7498446,20.4770984 Z M54.1716062,20.4770984 C52.6569948,13.8665285 50.3291192,9.95689119 47.4006218,6.45015544 C54.1902591,9.14362694 59.8234197,13.8665285 63.3003109,20.4770984 L54.1716062,20.4770984 L54.1716062,20.4770984 Z M33.4445596,37.0482902 L33.4445596,36.6752332 C33.3251813,36.8020725 33.1834197,36.9251813 33.0603109,37.0482902 L33.4445596,37.0482902 Z M48.1280829,36.6118069 C43.6424866,36.6098331 39.3400399,38.3908522 36.168244,41.5626481 C32.9964481,44.734444 31.2154289,49.0368907 31.2174077,53.522487 C31.2154289,58.0080834 32.9964481,62.3105301 36.168244,65.482326 C39.3400399,68.6541218 43.6424866,70.435141 48.1280829,70.4331643 C52.6143254,70.4361314 56.917731,68.6555495 60.0903341,65.4836462 C63.2629371,62.3117429 65.0444683,58.0087301 65.0424887,53.522487 C65.0444693,49.0355971 63.2624263,44.7320181 60.0890159,41.5600073 C56.9156056,38.3879965 52.611241,36.607852 48.1243523,36.6118069 L48.1280829,36.6118069 Z M62.0505699,58.4132642 L58.051399,58.4132642 C57.4532615,60.8780388 55.5359729,62.8068254 53.0748187,63.4196891 L53.2688083,63.4196891 L53.2688083,67.5456995 L49.9635233,67.5456995 L49.9635233,63.4756477 C47.4240293,62.9013502 45.4284691,60.9390253 44.8116062,58.4095337 L37.2945078,58.4095337 L37.2945078,55.1079793 L44.8601036,55.1079793 C45.5017617,52.638342 47.4715026,50.7059067 49.9709845,50.1463212 L49.9709845,43.5879793 L53.2762694,43.5879793 L53.2762694,50.2022798 L53.0822798,50.2022798 C55.5116616,50.8020845 57.4166182,52.6855565 58.0439378,55.1079793 L62.0841451,55.1079793 L62.0841451,58.4095337 L62.0505699,58.4095337 L62.0505699,58.4132642 Z" id="形状"></path>
        </g>
    </g>
</svg>