<?xml version="1.0" encoding="UTF-8"?>
<svg width="140px" height="140px" viewBox="0 0 140 140" version="1.1" xmlns="http://www.w3.org/2000/svg" xmlns:xlink="http://www.w3.org/1999/xlink">
    <title>icon_基本信息-变更记录_off</title>
    <g id="icon_基本信息-变更记录_off" stroke="none" stroke-width="1" fill="none" fill-rule="evenodd">
        <rect id="矩形备份-11" fill="#FFFFFF" opacity="0" x="0" y="0" width="140" height="140"></rect>
        <g id="编组" transform="translate(35.000000, 34.000000)" fill-rule="nonzero">
            <path d="M61.0481786,0 L5.11398355,0 C2.3012926,0 0,2.32782554 0,5.17294564 L0,61.9621895 C0,64.8073096 2.3012926,67.1351351 5.11398355,67.1351351 L21.5027027,67.1351351 L16.6524089,61.9621895 L5.12197415,61.9621895 L5.11398355,61.9541068 L5.11398355,5.18102837 L5.12197415,5.17294564 L61.040188,5.17294564 L61.0481786,5.18102837 L61.0481786,25.9132246 L66.1621622,31.3690657 L66.1621622,5.17294564 C66.1621622,2.32782554 63.8608696,0 61.0481786,0 Z" id="路径" fill="#7F899C"></path>
            <path d="M53.0170708,13.6216216 L13.264299,13.6216216 C11.847416,13.6216216 10.7027027,14.7732437 10.7027027,16.1986779 C10.7027027,17.6241122 11.847416,18.7757342 13.264299,18.7757342 L53.0250758,18.7757342 C54.4419587,18.7757342 55.5866721,17.6241122 55.5866721,16.1986779 C55.5866721,14.7732437 54.4339538,13.6216216 53.0170708,13.6216216 Z M30.6031036,23.9298468 L13.264299,23.9298468 C11.847416,23.9298468 10.7027027,25.0814688 10.7027027,26.5069031 C10.7027027,27.9323374 11.847416,29.0839594 13.264299,29.0839594 L30.6031036,29.0839594 C32.0199865,29.0839594 33.1646999,27.9323374 33.1646999,26.5069031 C33.1646999,25.0814688 32.0199865,23.9298468 30.6031036,23.9298468 Z" id="形状" fill="#7F899C"></path>
            <path d="M54.3619089,28.1819897 C53.8655996,28.1819897 53.3692903,28.2786293 52.888991,28.4719085 C51.3280183,29.100066 50.3193898,30.6140866 50.3193898,32.337493 L50.3193898,34.6246304 L47.0853745,34.6246304 C45.6684916,34.6246304 44.5237782,35.7762525 44.5237782,37.2016867 C44.5237782,38.627121 45.6684916,39.778743 47.0853745,39.778743 L52.880986,39.778743 C54.2978689,39.778743 55.4425823,38.627121 55.4425823,37.2016867 L55.4425823,35.0031356 L63.5916604,43.6523808 L55.4425823,52.3016259 L55.4425823,50.0950215 C55.4425823,48.6695872 54.2978689,47.5179652 52.880986,47.5179652 L39.1044012,47.5179652 L39.1044012,45.2227744 C39.1044012,43.499368 38.0957726,41.9853475 36.5347999,41.35719 C36.0545006,41.1639108 35.5581914,41.0672712 35.0618821,41.0672712 C33.9892136,41.0672712 32.9405602,41.5102027 32.1560713,42.3316394 L21.469412,53.6706871 C19.9564692,55.2813473 19.9564692,57.8020305 21.469412,59.4046374 L32.1480663,70.7356318 C32.9245502,71.5651218 33.9812087,72 35.0538771,72 C35.5501864,72 36.0464956,71.9033604 36.5267949,71.7100812 C38.0877677,71.0819237 39.0963962,69.5679031 39.0963962,67.8444967 L39.0963962,65.5654126 L42.3304115,65.5654126 C43.7472944,65.5654126 44.8920077,64.4137905 44.8920077,62.9883563 C44.8920077,61.562922 43.7472944,60.4113 42.3304115,60.4113 L36.5347999,60.4113 C35.117917,60.4113 33.9732037,61.562922 33.9732037,62.9883563 L33.9732037,65.1869074 L25.8321306,56.5376622 L33.9812087,47.888417 L33.9812087,50.0950215 C33.9812087,51.5204558 35.125922,52.6720778 36.5428049,52.6720778 L50.3193898,52.6720778 L50.3193898,54.9672686 C50.3193898,56.6906749 51.3280183,58.2046955 52.888991,58.832853 C53.3692903,59.0261322 53.8655996,59.1227718 54.3619089,59.1227718 C55.4345773,59.1227718 56.4832308,58.6798403 57.2677196,57.8584036 L67.946374,46.5274092 C69.4593168,44.916749 69.4593168,42.3960658 67.946374,40.7934589 L57.2677196,29.4463579 C56.4912357,28.6249212 55.4425823,28.1819897 54.3619089,28.1819897 Z" id="路径" fill="#4A66BE"></path>
        </g>
    </g>
</svg>