<?xml version="1.0" encoding="UTF-8"?>
<svg width="140px" height="140px" viewBox="0 0 140 140" version="1.1" xmlns="http://www.w3.org/2000/svg" xmlns:xlink="http://www.w3.org/1999/xlink">
    <title>icon_企业发展-融资信息</title>
    <g id="icon_企业发展-融资信息" stroke="none" stroke-width="1" fill="none" fill-rule="evenodd">
        <rect id="矩形备份-11" fill="#FFFFFF" opacity="0" x="0" y="0" width="140" height="140"></rect>
        <path d="M70,33 C49.65,33 33,49.65 33,70 C33,90.35 49.65,107 70,107 C90.35,107 107,90.35 107,70 C107,49.65 90.35,33 70,33 Z M70,102.375632 C61.3972131,102.428875 53.1311656,99.0352509 47.0479573,92.9520427 C40.9647491,86.8688344 37.5711247,78.6027869 37.6243682,70 C37.5711247,61.3972131 40.9647491,53.1311656 47.0479573,47.0479573 C53.1311656,40.9647491 61.3972131,37.5711247 70,37.6243682 C78.6027869,37.5711247 86.8688344,40.9647491 92.9520427,47.0479573 C99.0352509,53.1311656 102.428875,61.3972131 102.375632,70 C102.428875,78.6027869 99.0352509,86.8688344 92.9520427,92.9520427 C86.8688344,99.0352509 78.6027869,102.428875 70,102.375632 Z" id="形状" fill="#FFFFFF" fill-rule="nonzero"></path>
        <path d="M72.0704151,50 L67.472412,50 C64.2511824,57.813978 57.813978,63.7940094 50,67.472412 L50,72.527588 C57.813978,75.7488176 63.7940094,82.186022 67.472412,90 L72.527588,90 C75.7488176,82.186022 82.186022,76.2059906 90,72.527588 L90,67.472412 C81.7235943,63.7940094 75.7488176,57.813978 72.0704151,50 L72.0704151,50 Z M69.7687861,84.0252233 C66.4980854,77.9941128 61.5475081,73.04171 55.5176038,69.7687861 C61.5467729,66.4972733 66.4972733,61.5467729 69.7687861,55.5176038 C73.04171,61.5475081 77.9941128,66.4980854 84.0252233,69.7687861 C77.9933776,73.0408978 73.0408978,77.9933776 69.7687861,84.0252233 L69.7687861,84.0252233 Z" id="形状" fill="#FFFFFF" fill-rule="nonzero"></path>
    </g>
</svg>