<?xml version="1.0" encoding="UTF-8"?>
<svg width="140px" height="140px" viewBox="0 0 140 140" version="1.1" xmlns="http://www.w3.org/2000/svg" xmlns:xlink="http://www.w3.org/1999/xlink">
    <title>icon_基本信息-主要成员__off</title>
    <g id="icon_基本信息-主要成员__off" stroke="none" stroke-width="1" fill="none" fill-rule="evenodd">
        <rect id="矩形备份-11" fill="#FFFFFF" opacity="0" x="0" y="0" width="140" height="140"></rect>
        <g id="编组" transform="translate(33.000000, 33.000000)" fill-rule="nonzero">
            <path d="M37,0 C57.4388,0 74,16.5612 74,37 C74,57.4388 57.4388,74 37,74 C16.5575,74 0,57.4388 0,37 C0,16.5612 16.55935,0 37,0 Z M37,4.63240001 C19.15305,4.63240001 4.63240001,19.15305 4.63240001,37 C4.63240001,54.84695 19.15305,69.3676 37,69.3676 C54.84695,69.3676 69.3676,54.8451 69.3676,37 C69.3676,19.15305 54.84695,4.63240001 37,4.63240001 Z M25.3709,33.2519 C26.5697,32.93555 27.6501,33.60155 27.9498,34.8244 C28.0978,35.41085 28.0201,35.9936 27.7278,36.46535 C27.44105,36.9408 26.9674501,37.2608501 26.39025,37.41255 C22.69025,38.35975 21.7597,40.6185999 21.7597,46.4276 L21.7597,53.32255 C21.7597,55.1411 22.8549,56.21225 25.9703,56.2122499 L30.90055,56.2122499 C32.12155,56.2122499 33.1298,57.19645 33.0558,58.22875 C33.0558,59.44975 32.0901001,60.41545 30.86725,60.41545 L25.9555,60.41545 C21.00305,60.41545 17.5491,57.48135 17.5491,53.14125 L17.55095,45.45265 C17.5639001,43.47315 17.65085,42.2836 17.9598,40.85725 C18.8108,36.926 21.1196,34.22685 25.37275,33.25375 L25.3709,33.2519 Z M48.5218,32.9448 C54.6526999,34.49325 56.2918,38.43745 56.3362,45.3324 L56.3362,52.984 C56.3362,57.202 53.08575,60.0843 48.3627,60.2508 L47.9298,60.2582 L43.0162,60.2582 C41.7952,60.2582 40.82765,59.29065 40.82765,58.0715 C40.82765,56.9245 41.67865,56.00505 42.78865,55.89405 L43.0162,55.88295 L47.9298,55.88295 C50.9268,55.88295 52.04605,54.90985 52.13485,53.21895 L52.1404,52.99325 L52.1404,46.065 C52.3179999,40.4965 51.3301,37.9435 47.5154,37.08325 C46.28885,36.778 45.6413499,35.7235 45.9503,34.5173 C46.25185,33.29075 47.30635,32.6303 48.5218,32.9448 L48.5218,32.9448 Z M36.963,11.83075 L37.49025,11.8437001 C40.2823612,11.966547 42.9215603,13.1534253 44.8662,15.16075 C46.8840714,17.2429454 47.9771929,20.0507804 47.89835,22.94925 C47.89835,28.9858001 42.9902999,33.90125 36.963,33.90125 C30.9283,33.90125 26.0258,28.9044001 26.0258,22.78275 C26.0258,16.8387 31.0263499,11.83075 36.963,11.83075 Z M36.963,14.7906413 L36.58375,14.8 C32.449,15.00905 28.98765,18.5999 28.98765,22.78275 C28.98765,27.28195 32.57665,30.94125 36.96115,30.94125 C41.3549,30.94125 44.93835,27.35225 44.93835,22.91225 C45.0055695,20.7947522 44.2119818,18.740368 42.7387,17.21795 C41.2244033,15.6560086 39.1384601,14.7794047 36.963,14.7906413 L36.963,14.7906413 Z" id="形状" fill="#7F899C"></path>
            <path d="M36.963,35.9048 C37.24235,35.9048 37.4921,35.97325 37.69005,36.112 L37.8288,36.22855 L40.4373,38.83705 C40.65745,39.02945 40.8628,39.44755 40.8628,39.71395 C40.8655491,39.966609 40.7820144,40.2126448 40.626,40.4114 L40.49465,40.57235 L40.4928,40.5742 L38.15625,43.0717 L40.9035,51.5299 C40.9035,52.022 40.8757501,52.26435 40.7407,52.44935 L40.6667,52.53815 L37.8695,56.49345 C37.5716501,56.7894499 37.34595,56.91895 36.9778,56.91895 C36.7706,56.91895 36.4468501,56.76725 36.2193,56.58225 L36.0935,56.4694 L33.2852,52.49745 C33.2536204,52.4449162 33.224,52.3912293 33.1964,52.3365 C33.01325,52.0368 32.95035,51.8259 33.0262,51.578 L33.08725,51.4226 L35.853,42.97365 L35.9085,43.01435 L33.47945,40.57975 C33.09095,40.19125 33.0484,39.47715 33.34995,39.0091 L33.47945,38.8463 L36.09535,36.2304 C36.3280103,36.0078124 36.64129,35.889581 36.963,35.90295 L36.963,35.9048 Z" id="路径" fill="#4A66BE"></path>
        </g>
    </g>
</svg>