<?xml version="1.0" encoding="UTF-8"?>
<svg width="140px" height="140px" viewBox="0 0 140 140" version="1.1" xmlns="http://www.w3.org/2000/svg" xmlns:xlink="http://www.w3.org/1999/xlink">
    <title>icon_法律诉讼-开庭公告</title>
    <g id="icon_法律诉讼-开庭公告" stroke="none" stroke-width="1" fill="none" fill-rule="evenodd">
        <rect id="矩形备份-11" fill="#FFFFFF" opacity="0" x="0" y="0" width="140" height="140"></rect>
        <path d="M59.145,64.1294469 L59.1455767,64.2941703 L59.145,100.548 L62.1586432,100.548389 C63.4970529,100.548389 64.6069014,101.534529 64.7729515,102.815642 L64.7891991,102.98436 L64.7943983,103.14916 C64.7943983,104.533197 63.7003792,105.660201 62.3249887,105.744847 L62.1586432,105.750352 L33.9207221,105.750352 C32.4767506,105.756436 31.2981161,104.597951 31.2872234,103.15196 C31.2872234,101.766233 32.3776957,100.638218 33.7512196,100.553497 L33.9173494,100.548389 L38.816,100.548 L38.816171,64.2941703 C38.816171,62.9679642 39.8207488,61.8799119 41.1151406,61.7172096 L41.2855591,61.7012918 L41.4519262,61.6961994 C42.8464053,61.6961994 43.9908932,62.7679267 44.0768678,64.1294469 L44.0820521,64.2941703 L44.082,100.548 L53.879,100.548 L53.8796955,64.2941703 C53.8796955,62.9685206 54.8837605,61.8799993 56.176342,61.7172199 L56.346517,61.7012944 C58.2121723,61.8657104 59.145,62.6750946 59.145,64.1294469 Z M97.9316993,100.548389 C99.3839676,100.548389 100.56464,101.709588 100.56464,103.14916 C100.56464,104.532617 99.471179,105.660171 98.0977967,105.744859 L97.9316993,105.75 L73.4607703,105.75 C72.0152707,105.758594 70.8342388,104.599481 70.823346,103.15196 C70.823346,101.766401 71.9162386,100.638231 73.2901236,100.553498 L73.4562866,100.548389 L97.9316993,100.548389 Z M85.287082,67.0154316 C86.0219725,66.822776 86.8045939,67.0296321 87.3471215,67.5604041 C87.8951933,68.0914693 88.1125164,68.8808121 87.9117566,69.6200402 C87.7255532,70.3056696 87.207041,70.8475952 86.546456,71.0672646 L86.3915779,71.1121558 L82.4433971,72.1505402 C83.1719865,72.1340519 83.8978434,72.2906683 84.557835,72.6126361 L84.8021211,72.7411098 L85.0058061,72.8638036 C85.8719091,73.4171015 86.5202946,74.247929 86.8417324,75.2162176 L86.9100568,75.4420452 L87.907,79.096 L106.044902,74.3211433 C106.667219,74.1558204 107.324696,74.2773829 107.840417,74.638688 L107.977421,74.7431344 L108.106598,74.8592564 C108.65961,75.3932235 108.877934,76.1847358 108.67604,76.9256963 C108.488786,77.6129292 107.967691,78.1553076 107.30676,78.3728646 L107.151843,78.4172222 L89.024,83.192 L90.0144111,86.8290816 C90.2834679,87.8124437 90.1999323,88.8534746 89.7873436,89.7773588 L89.6773548,90.0057881 L89.5630172,90.2129999 C89.1442326,90.9245165 88.5397511,91.5012049 87.8225932,91.8879095 L91.7870974,90.8427448 C92.5227485,90.6511856 93.3054893,90.8597022 93.8471449,91.3920109 C94.3943155,91.9228143 94.6110877,92.7128284 94.4093716,93.4522322 C94.2222821,94.1380211 93.7026995,94.6795437 93.0423507,94.8979943 L92.8875509,94.9425896 L76.7211749,99.1984026 C75.9870442,99.3921567 75.2045413,99.1869605 74.664746,98.6612092 C74.1093466,98.1274702 73.8894619,97.3344548 74.0915351,96.5919313 C74.2789557,95.9032488 74.801572,95.3600133 75.4632511,95.1433143 L75.6183256,95.0991858 L79.5556639,94.0643915 C78.7372222,94.0822281 77.9244081,93.8817635 77.2083792,93.4733944 C76.2412891,92.9279887 75.5149372,92.0453577 75.1659046,90.9986195 L75.096937,90.7718697 L71.9924982,79.3873246 C71.6800826,78.2421143 71.8436489,77.0226266 72.4459215,76.0027405 C72.8640026,75.2884061 73.4723458,74.7092681 74.1945745,74.3220116 L70.2303332,75.3673531 C69.4935333,75.5643668 68.7068871,75.3589436 68.1643375,74.8292512 C67.6113301,74.2946705 67.3935545,73.5024826 67.5964066,72.7613441 C67.7845489,72.0739495 68.3067182,71.5319757 68.9674444,71.3156314 L69.1222903,71.2715682 L85.287082,67.0154316 Z M66.8014812,34.4479321 C67.5051405,34.1600309 68.3036718,34.1862037 68.9900817,34.5264506 L69.1592285,34.6180555 L71.5287294,36.0142263 L71.52,36.014 L103.086279,54.6631443 C103.996608,55.2001898 104.481253,56.2163953 104.344609,57.2373047 L104.314006,57.4174174 L104.270265,57.5970483 C103.961255,58.6699655 103.007486,59.4229879 101.906368,59.4898818 L101.731355,59.4947055 L33.8867183,59.4947055 C32.7099655,59.4996145 31.6723592,58.725035 31.3460415,57.5919904 C31.0451333,56.5189732 31.4675451,55.3827334 32.3752976,54.7619805 L32.5310428,54.6633939 L66.333,34.692 L66.0316656,34.5142263 L66.653,34.514 L66.8014812,34.4479321 Z M67.807,39.262 L42.315,54.293 L93.299,54.293 L67.807,39.262 Z M66.2685353,45.2370065 L67.8078886,41.9576554 L69.3465779,45.2370065 L72.8089472,45.7680676 L70.3035563,48.3415326 L70.8900268,51.9571468 L67.8068424,50.2490685 L64.7220087,51.9576554 L65.3129852,48.3407678 L62.8089472,45.7681778 L66.2685353,45.2370065 Z" id="形状" fill="#FFFFFF" fill-rule="nonzero"></path>
    </g>
</svg>