<?xml version="1.0" encoding="UTF-8"?>
<svg width="140px" height="140px" viewBox="0 0 140 140" version="1.1" xmlns="http://www.w3.org/2000/svg" xmlns:xlink="http://www.w3.org/1999/xlink">
    <title>icon_江苏省科技政策</title>
    <g id="icon_江苏省科技政策" stroke="none" stroke-width="1" fill="none" fill-rule="evenodd">
        <rect id="矩形备份-11" fill="#FFFFFF" opacity="0" x="0" y="0" width="140" height="140"></rect>
        <path d="M74.5296227,100.858398 L39.165663,100.858398 L39.165663,48.9208348 L39.1656631,48.9208348 C39.9848898,49.1995264 40.8450524,49.3403448 41.7107956,49.3375021 L90.8343761,49.3375021 L90.8343761,67.7500397 L90.8343761,67.7500401 C90.8343763,69.1698755 91.9907394,70.320878 93.417188,70.320878 C94.8436365,70.3208778 96,69.1698755 96,67.7500401 L96,49.3500181 L96,49.350202 C95.9977977,46.5108123 93.6871814,44.2088778 90.8345669,44.2041809 L88.251755,44.2041809 L88.251755,36.5708391 L88.251755,36.5708391 C88.251755,35.1510036 87.0953917,34 85.6689431,34 C85.6688815,34 85.6688199,34 85.6687583,34 L41.7149694,34 L41.714969,34 C37.4564411,33.9977002 34.0023478,37.4320483 34,41.6708196 C34,41.6722088 34,41.6735981 34,41.6749873 L34,100.841666 L34,100.841731 C33.9931151,103.683687 36.3021179,105.993124 39.1573108,106 C39.1601071,106 39.1629035,106 39.1656999,106 L74.5296596,106 L74.5296595,106 C75.956108,106 77.1124714,104.848998 77.1124714,103.429162 C77.1124714,102.009327 75.956108,100.858324 74.5296595,100.858324 L74.5296227,100.858398 Z M41.6469532,39.0020559 L83,39.0020559 L83,43.9979052 L41.6469532,43.9979052 L41.6469533,43.9979052 C40.2432193,44.0538889 39.0590934,42.9809168 39.0021315,41.6013477 C38.9451672,40.2217786 40.0369338,39.0580372 41.4406678,39.0020559 C41.5094015,38.9993147 41.5782199,38.9993147 41.646954,39.0020559 L41.6469532,39.0020559 Z M83,62.5020219 L83,62.5020187 C83.0023014,61.1224297 81.8503844,60.0022373 80.4271238,60 C80.4257305,60 80.4243371,60 80.4229437,60 L49.4774531,60 L49.4774531,60 C48.0530367,60.055574 46.9447907,61.2199119 47.0021282,62.6006283 C47.0562262,63.9034258 48.1334149,64.9475645 49.4774531,65 L80.4103978,65 L80.4103977,65 C81.8336653,65 82.98745,63.8816181 82.98745,62.5020223 L83,62.5020219 Z M49.5983159,70 L49.5983158,70 C48.1633047,70 47,71.1192873 47,72.5 C47,73.8807127 48.1633047,75 49.5983158,75 L70.4016843,75 L70.4016842,75 C71.8366953,75 73,73.8807127 73,72.5 C73,71.1192873 71.8366953,70 70.4016842,70 L49.5983159,70 Z" id="形状备份" fill="#FFFFFF" fill-rule="nonzero"></path>
        <path d="M91.2394844,76.4578356 C95.9170682,73.7236403 100.38692,73.1375742 102.624693,75.3753473 C104.900746,77.6502348 104.255523,82.2366973 101.399422,87.0006148 C104.255613,91.7641333 104.900586,96.3487997 102.624693,98.6246931 C100.348765,100.900621 95.7648208,100.255594 91.0007722,97.3998926 C86.2360077,100.255504 81.6502686,100.90078 79.3753473,98.6246931 C77.0994195,96.3487653 77.7444464,91.7648208 80.5995623,87.0007722 C77.7445366,82.2360077 77.0992606,77.6502686 79.3753473,75.3753473 C81.6502348,73.0992944 86.2366973,73.7445174 91.0006148,76.6000331 Z M82.0279177,89.1432457 L81.8974187,89.3888871 C80.121557,92.7992494 79.7660696,95.7603097 81.0029002,96.9971402 C82.2685,98.2627401 85.3430942,97.859659 88.8573389,95.971332 C87.6118152,95.0577455 86.3756849,94.0000535 85.1868618,92.8115346 C83.998965,91.6236379 82.9417689,90.3882342 82.0279177,89.1432457 Z M99.9718115,89.1428691 L99.9234067,89.2088017 C99.0203544,90.4316853 97.9790684,91.6445987 96.8115346,92.8115346 C95.62332,94.0000535 94.387573,95.0577455 93.1422462,95.9719666 C96.6561113,97.860501 99.7306228,98.2636576 100.99714,96.9971402 C102.262633,95.7316475 101.859727,92.6568111 99.9718115,89.1428691 Z M91.0002305,79.3325539 L90.8390471,79.4429622 C89.4943603,80.3725172 88.1297732,81.4994396 86.8144146,82.8144146 C85.4469319,84.1822962 84.2828198,85.6033194 83.3325539,86.9998099 C84.2828198,88.3960199 85.4469319,89.8173452 86.8144146,91.1856258 C88.1822962,92.5531085 89.6033194,93.7172206 90.9998099,94.6674864 C92.3960199,93.7171238 93.8173452,92.5531085 95.1856258,91.1856258 C96.5531085,89.8177442 97.7172206,88.396721 98.6674864,87.0002305 C97.7174352,85.6037965 96.5532914,84.1824792 95.1856258,82.8144146 C93.8177442,81.4469319 92.396721,80.2828198 91.0002305,79.3325539 Z M91.5,83 C93.4329966,83 95,84.5670034 95,86.5 C95,88.4329966 93.4329966,90 91.5,90 C89.5670034,90 88,88.4329966 88,86.5 C88,84.5670034 89.5670034,83 91.5,83 Z M100.99714,77.0029002 C99.7317677,75.7364896 96.657395,76.1394714 93.14387,78.0272681 C94.38873,78.9417689 95.6239421,79.998965 96.8115346,81.1868618 C98.0003714,82.3756986 99.0583114,83.6119806 99.9727003,84.8577664 C101.860501,81.343929 102.263658,78.2694175 100.99714,77.0029002 Z M88.8564779,78.027206 C85.3433432,76.1394626 82.2692969,75.7365034 81.0029002,77.0029002 C79.7363693,78.2683929 80.139548,81.3425737 82.0278059,84.8564464 C82.9417689,83.6111538 83.998965,82.3753669 85.1868618,81.1868618 C86.3543955,80.0196269 87.5676894,78.9785854 88.7908052,78.0757333 Z" id="形状结合" fill="#FFFFFF" fill-rule="nonzero"></path>
    </g>
</svg>