<?xml version="1.0" encoding="UTF-8"?>
<svg width="140px" height="140px" viewBox="0 0 140 140" version="1.1" xmlns="http://www.w3.org/2000/svg" xmlns:xlink="http://www.w3.org/1999/xlink">
    <title>icon_经营风险-股权出质</title>
    <g id="icon_经营风险-股权出质" stroke="none" stroke-width="1" fill="none" fill-rule="evenodd">
        <rect id="矩形备份-11" fill="#FFFFFF" opacity="0" x="0" y="0" width="140" height="140"></rect>
        <g id="编组" transform="translate(37.000000, 32.000000)" fill="#FFFFFF" fill-rule="nonzero">
            <path d="M15.4323679,61.1583374 L22.3205764,60.2163547 C23.79327,56.4996184 27.0466584,54.6381785 32.084821,54.6381785 C39.6420648,54.6381785 43.1035068,53.4463656 47.4705942,55.2750409 C49.9815165,56.3276042 49.5246143,58.5269292 48.0152053,59.9235209 C46.08153,61.7132882 39.9235491,59.5958747 39.8480787,62.4586832 C39.7705685,65.3255872 42.7281942,64.3508398 45.3125473,64.3508398 L52.9575,64.3508398 L64.2862266,56.0368182 C64.8349656,55.6333307 65.5772729,55.62029 66.1397372,56.0042562 C66.7022015,56.3882223 66.9630358,57.0860575 66.7910297,57.7467216 L66.0098086,60.7487798 C65.7764353,61.6451852 65.2472073,62.4356617 64.5085585,62.9911083 L52.3211006,72.1611056 L26.9589495,72.1611056 L24.125748,74.8703299 C23.2979884,75.6616957 22.1774968,76.0681169 21.0370675,75.9906464 C19.8966382,75.9131759 18.8408944,75.3589208 18.126867,74.4628199 L12.7970214,67.7747424 C11.880548,66.6231098 11.651203,65.0658794 12.1965,63.6972591 C12.7417969,62.3286388 13.9776063,61.359782 15.4323679,61.1603853 L15.4323679,61.1583374 Z M15.9830983,57.9125925 L15.9830983,44.0183469 C15.982825,42.8875786 15.0696815,41.9710552 13.9433564,41.9710552 C12.8170313,41.9710552 11.9038878,42.8875786 11.9036145,44.0183469 L11.9036145,58.4695911 L15.9830983,57.9125925 Z M28.2215498,51.0668353 L28.2215498,39.9227698 C28.2212774,38.7920008 27.3081336,37.8754763 26.1818079,37.8754763 C25.0554821,37.8754763 24.1423383,38.7920008 24.142066,39.9227698 L24.142066,52.8893671 C25.2782022,52.0497738 26.6387101,51.4415806 28.2215498,51.0668353 Z M40.4600013,50.3050579 L40.4600013,35.8271925 C40.459728,34.6964241 39.5465845,33.7799008 38.4202594,33.7799008 C37.2939343,33.7799008 36.3807908,34.6964241 36.3805175,35.8271925 L36.3805175,50.5303146 C37.877688,50.4668332 39.221878,50.3787783 40.4600013,50.3050579 L40.4600013,50.3050579 Z M52.6984528,52.9180361 L52.6984528,27.6360382 C52.6981804,26.5052692 51.7850366,25.5887448 50.6587109,25.5887448 C49.5323851,25.5887448 48.6192414,26.5052692 48.618969,27.6360382 L48.618969,50.653182 C49.3206402,50.8313396 50.0263909,51.0668353 50.7545788,51.3699079 C51.5439589,51.7016497 52.1477225,52.2647915 52.6984528,52.9180361 L52.6984528,52.9180361 Z M64.9369043,51.6565984 L64.9369043,19.4448838 C64.9366319,18.3141148 64.0234881,17.3975904 62.8971624,17.3975904 C61.7708366,17.3975904 60.8576929,18.3141148 60.8574205,19.4448838 L60.8574205,54.4559254 L64.2841869,51.9412409 C64.4777375,51.7984071 64.7008188,51.7011239 64.9369043,51.6565984 L64.9369043,51.6565984 Z" id="形状"></path>
            <path d="M59.1283833,7.63505907 C46.3030493,26.3518619 24.9217885,37.5564346 2.05780731,37.5421687 C0.9212315,37.5421687 0,36.6307166 0,35.506828 C0,34.3829394 0.9212315,33.4717718 2.05780731,33.4715009 C23.8140734,33.4715009 43.6972834,22.7921398 55.6539673,5.45115316 L52.2413005,6.61128959 C51.5383331,6.879299 50.7434557,6.74611169 50.1690191,6.26406424 C49.5945825,5.78201679 49.3323878,5.02814553 49.4854656,4.29868766 C49.6385434,3.56922978 50.1824302,2.98076047 50.9034032,2.76452143 L58.6858481,0.11249022 C59.2019333,-0.0648942542 59.7682479,-0.0314464192 60.2593109,0.20542252 C60.7503738,0.44229146 61.125637,0.863022791 61.3019516,1.37439296 L63.9839208,9.07200002 C64.2236485,9.75952257 64.0742365,10.5212852 63.591967,11.0703392 C63.1096974,11.6193932 62.3678384,11.8723243 61.6458411,11.7338558 C60.9238438,11.5953873 60.3313968,11.0865558 60.0916692,10.3990332 L59.1283833,7.63505907 Z" id="路径"></path>
        </g>
    </g>
</svg>