<?xml version="1.0" encoding="UTF-8"?>
<svg width="140px" height="140px" viewBox="0 0 140 140" version="1.1" xmlns="http://www.w3.org/2000/svg" xmlns:xlink="http://www.w3.org/1999/xlink">
    <title>icon_河北汽车站信息_hover</title>
    <g id="icon_河北汽车站信息_hover" stroke="none" stroke-width="1" fill="none" fill-rule="evenodd">
        <rect id="矩形备份-11" fill="#FFFFFF" opacity="0" x="0" y="0" width="140" height="140"></rect>
        <g id="编组" transform="translate(33.000000, 33.000000)" fill="#FFFFFF" fill-rule="nonzero">
            <path d="M73.7386255,4.13326149 C73.7386255,1.86506223 71.8957135,0.0221504108 69.6275144,0.0221504108 L4.13326149,0.0221504108 C1.86506223,0.0221504108 0.0221504108,1.86506232 0.0221504108,4.13326149 L0.0221504108,37.8727251 C0.0221504108,40.1409244 1.86506232,41.9838362 4.13326149,41.9838362 L28.7999282,41.9838362 C31.0681274,41.9838362 32.9110392,43.8267481 32.9110392,46.0949473 L32.9110392,69.6275144 C32.9110392,71.8957136 34.6830699,73.7386255 36.8449473,73.7386255 C39.0068247,73.7386255 40.7788553,71.8957136 40.7788553,69.6275144 L40.7788553,46.0949473 C40.7788553,43.826748 42.6217672,41.9838362 44.8899665,41.9838362 L69.5566332,41.9838362 C71.8248324,41.9838362 73.6677443,40.1409243 73.6677443,37.8727251 L73.6677443,4.13326149 L73.7386255,4.13326149 Z M15.0844109,33.5844109 C15.0844109,35.8526102 13.7731082,37.695522 12.2137213,37.695522 C10.6543343,37.695522 9.34303161,35.8526101 9.34303161,33.5844109 L9.34303161,26.1773228 C9.34303161,23.9091236 10.6543343,22.0662117 12.2137213,22.0662117 C13.7731082,22.0662117 15.0844109,23.9091236 15.0844109,26.1773228 L15.0844109,33.5844109 Z M31.5288553,33.5844109 C31.5288553,35.8526102 30.2175526,37.695522 28.6581657,37.695522 C27.0987787,37.695522 25.787476,35.8526101 25.787476,33.5844109 L25.787476,26.1773228 C25.787476,23.9091236 27.0987787,22.0662117 28.6581657,22.0662117 C30.2175526,22.0662117 31.5288553,23.9091236 31.5288553,26.1773228 L31.5288553,33.5844109 Z M47.9732998,33.5844109 C47.9732998,35.8526102 46.6619971,37.695522 45.1026102,37.695522 C43.5432232,37.695522 42.2319205,35.8526101 42.2319205,33.5844109 L42.2319205,26.1773228 C42.2319205,23.9091236 43.5432232,22.0662117 45.1026102,22.0662117 C46.6619971,22.0662117 47.9732998,23.9091236 47.9732998,26.1773228 L47.9732998,33.5844109 L47.9732998,33.5844109 Z M64.4531849,33.5844109 C64.4531849,35.8526102 63.1418822,37.695522 61.5824952,37.695522 C59.9876677,37.695522 58.7118056,35.8526101 58.7118056,33.5844109 L58.7118056,26.1773228 C58.7118056,23.9091236 60.0231083,22.0662117 61.5824952,22.0662117 C63.1773228,22.0662117 64.4531849,23.9091236 64.4531849,26.1773228 L64.4531849,33.5844109 Z M68.8123803,13.6667864 C68.8123803,15.9349856 66.9694684,17.7778975 64.7012691,17.7778975 L9.05950673,17.7778975 C6.79130747,17.7778975 4.94839557,15.9349856 4.94839557,13.6667864 L4.94839557,8.24437258 C4.94839557,5.97617332 6.79130747,4.13326149 9.05950673,4.13326149 L64.6658286,4.13326149 C66.9340278,4.13326149 68.7769397,5.9761734 68.7769397,8.24437258 L68.7769397,13.6667864 L68.8123803,13.6667864 Z M24.6888171,10.9732998 C24.6888171,12.5681274 22.8459052,13.8439895 20.5777059,13.8439895 L13.1706178,13.8439895 C10.9024186,13.8439895 9.05950673,12.5326868 9.05950673,10.9732998 C9.05950673,9.41391289 10.9024186,8.10261018 13.1706178,8.10261018 L20.5777059,8.10261018 C22.8459052,8.06716954 24.6888171,9.37847225 24.6888171,10.9732998 Z" id="形状"></path>
        </g>
    </g>
</svg>