<?xml version="1.0" encoding="UTF-8"?>
<svg width="140px" height="140px" viewBox="0 0 140 140" version="1.1" xmlns="http://www.w3.org/2000/svg" xmlns:xlink="http://www.w3.org/1999/xlink">
    <title>icon_审计政策法规_off</title>
    <g id="icon_审计政策法规_off" stroke="none" stroke-width="1" fill="none" fill-rule="evenodd">
        <rect id="矩形备份-11" fill="#FFFFFF" opacity="0" x="0" y="0" width="140" height="140"></rect>
        <path d="M74.5296227,100.858398 L39.165663,100.858398 L39.165663,48.9208348 L39.1656631,48.9208348 C39.9848898,49.1995264 40.8450524,49.3403448 41.7107956,49.3375021 L90.8343761,49.3375021 L90.8343761,67.7500397 L90.8343761,67.7500401 C90.8343763,69.1698755 91.9907394,70.320878 93.417188,70.320878 C94.8436365,70.3208778 96,69.1698755 96,67.7500401 L96,49.3500181 L96,49.350202 C95.9977977,46.5108123 93.6871814,44.2088778 90.8345669,44.2041809 L88.251755,44.2041809 L88.251755,36.5708391 L88.251755,36.5708391 C88.251755,35.1510036 87.0953917,34 85.6689431,34 C85.6688815,34 85.6688199,34 85.6687583,34 L41.7149694,34 L41.714969,34 C37.4564411,33.9977002 34.0023478,37.4320483 34,41.6708196 C34,41.6722088 34,41.6735981 34,41.6749873 L34,100.841666 L34,100.841731 C33.9931151,103.683687 36.3021179,105.993124 39.1573108,106 C39.1601071,106 39.1629035,106 39.1656999,106 L74.5296596,106 L74.5296595,106 C75.956108,106 77.1124714,104.848998 77.1124714,103.429162 C77.1124714,102.009327 75.956108,100.858324 74.5296595,100.858324 L74.5296227,100.858398 Z M41.6469532,39.0020559 L83,39.0020559 L83,43.9979052 L41.6469532,43.9979052 L41.6469533,43.9979052 C40.2432193,44.0538889 39.0590934,42.9809168 39.0021315,41.6013477 C38.9451672,40.2217786 40.0369338,39.0580372 41.4406678,39.0020559 C41.5094015,38.9993147 41.5782199,38.9993147 41.646954,39.0020559 L41.6469532,39.0020559 Z M83,62.5020219 L83,62.5020187 C83.0023014,61.1224297 81.8503844,60.0022373 80.4271238,60 C80.4257305,60 80.4243371,60 80.4229437,60 L49.4774531,60 L49.4774531,60 C48.0530367,60.055574 46.9447907,61.2199119 47.0021282,62.6006283 C47.0562262,63.9034258 48.1334149,64.9475645 49.4774531,65 L80.4103978,65 L80.4103977,65 C81.8336653,65 82.98745,63.8816181 82.98745,62.5020223 L83,62.5020219 Z M49.5983159,70 L49.5983158,70 C48.1633047,70 47,71.1192873 47,72.5 C47,73.8807127 48.1633047,75 49.5983158,75 L70.4016843,75 L70.4016842,75 C71.8366953,75 73,73.8807127 73,72.5 C73,71.1192873 71.8366953,70 70.4016842,70 L49.5983159,70 Z M80,102.995557 L80,102.995575 C79.9975722,104.100145 80.8910196,104.99755 81.9955796,105 C83.1001471,105.002437 83.99755,104.108987 84,103.004425 C84.0024369,101.899855 83.1089896,101.00245 82.0044296,101 C82.0014699,101 81.9985102,101 81.9955505,101 L81.9955504,101 C80.8934354,101 80,101.893442 80,102.99556 C80,102.99556 80,102.99556 80,102.99556 L80,102.995557 Z" id="形状" fill="#7F899C" fill-rule="nonzero"></path>
        <path d="M106,99.4399784 L102.343843,95.8472422 L102.343843,95.8472422 C107.23849,88.9906232 105.569154,79.5198092 98.6152746,74.6936755 C98.2603298,74.447334 97.8949819,74.2159013 97.5202033,74 L97.5202034,74 C102.288658,79.1214867 102.912079,86.7849823 99.0325265,92.5904868 L89.6760684,83.3485085 L93.2948356,79.7680636 L89.6760684,76.1876188 L87.7524319,78.0843505 L82.5548694,79.6410641 L77,85.1223401 L82.4385412,90.4889079 L86.0614659,86.908463 L95.546718,96.2733553 L95.5467185,96.2733549 C91.6904643,99.1756233 86.668628,100.10699 82.0064544,98.7845801 L82.0064544,98.7845801 C81.6985843,98.6941395 81.3746502,98.8669096 81.2829296,99.1704738 C81.2081176,99.4180679 81.3104283,99.6844198 81.5328186,99.8210243 L81.532818,99.8210239 C86.8132238,103.155406 93.6182781,102.993295 98.7292325,99.4113632 L102.364623,103 L106,99.4399784 Z" id="路径" fill="#4A66BE" fill-rule="nonzero"></path>
    </g>
</svg>