<?xml version="1.0" encoding="UTF-8"?>
<svg width="141px" height="140px" viewBox="0 0 141 140" version="1.1" xmlns="http://www.w3.org/2000/svg" xmlns:xlink="http://www.w3.org/1999/xlink">
    <title>icon_2_off@1x</title>
    <g id="能力集市" stroke="none" stroke-width="1" fill="none" fill-rule="evenodd">
        <g id="数据集市2" transform="translate(-222.000000, -132.000000)">
            <g id="编组-4" transform="translate(200.000000, 117.000000)">
                <g id="icon_2_off" transform="translate(22.096257, 15.000000)">
                    <rect id="矩形备份-22" fill="#F2F6FC" opacity="0" x="0" y="0" width="140" height="140"></rect>
                    <g id="手机号备份-2" transform="translate(38.000000, 29.000000)" fill-rule="nonzero">
                        <path d="M52.7178607,0 L11.9378382,0 C5.73927132,0 0.682546306,5.05672502 0.682546306,11.2552919 L0.682546306,70.4678801 C0.682546306,76.666447 5.73927132,81.723172 11.9378382,81.723172 L52.7178607,81.723172 C58.9164276,81.723172 63.9731526,76.666447 63.9731526,70.4678801 L63.9731526,11.2552919 C63.9731526,5.05672502 58.9164276,0 52.7178607,0 Z M57.7746176,70.304753 C57.7746176,73.0777942 55.4909019,75.361478 52.7178607,75.361478 L11.9378382,75.361478 C9.16479704,75.361478 6.88111323,73.0777942 6.88111323,70.304753 L6.88111323,61.659415 L57.7746176,61.659415 L57.7746176,70.304753 L57.7746176,70.304753 Z M57.7745857,61.659415 L6.88108131,61.659415 L6.88108131,11.8727819 C6.88108131,8.76111738 9.16476512,6.19856692 11.9378063,6.19856692 L52.7178288,6.19856692 C55.49087,6.19856692 57.7745857,8.76111738 57.7745857,11.8727819 L57.7745857,61.659415 L57.7745857,61.659415 Z M32.3278734,72.4253256 C34.6115572,72.4253256 36.4058757,70.6310072 36.4058757,68.3473234 C36.4058757,66.0636396 34.6115572,64.2693211 32.3278734,64.2693211 C30.8597932,64.2693211 29.5548322,65.0849248 28.7392286,66.3898858 C28.0867481,67.6948468 28.0867481,69.162927 28.7392286,70.4678881 C29.5548322,71.60973 30.8597932,72.4253256 32.3278734,72.4253256 Z" id="形状" fill="#7F899C"></path>
                        <g id="地址" transform="translate(13.327849, 12.861538)" fill="#4A66BE">
                            <path d="M19.0000256,0 C29.4144166,0 37.8571843,8.44276764 37.8571843,18.8571587 C37.8571843,26.6619256 31.906693,34.8438296 20.2571638,43.5809765 L20.2571639,43.5809764 C19.512188,44.1397083 18.4878505,44.1397083 17.7428746,43.5809766 C6.09334546,34.8438297 0.142854164,26.6619256 0.142854164,18.8571587 C0.142854164,8.44276772 8.5856218,0 19.0000128,0 L19.0000256,0 Z M19.0000256,4.19048066 C10.8998052,4.19048066 4.33335619,10.7569727 4.33335619,18.8571501 C4.33335619,24.7741257 9.14822507,31.6318173 19.0000256,39.2700371 C28.7491737,31.7104072 33.566148,24.9166102 33.6656638,19.0426034 L33.6667114,18.8571746 C33.6667114,10.7569542 27.1002194,4.19048066 19.000042,4.19048066 L19.0000256,4.19048066 Z M19.0000256,10.4762145 L19.0000252,10.4762145 C23.6287103,10.4762145 27.3810037,14.2284994 27.3810037,18.857193 C27.3810037,23.4858781 23.6287189,27.2381715 19.0000252,27.2381715 L19.0000249,27.2381715 C14.3713398,27.2381715 10.6190464,23.4858867 10.6190464,18.857193 C10.6190464,14.228508 14.3713312,10.4762145 19.0000249,10.4762145 L19.0000256,10.4762145 Z M19.0000256,14.6666952 L19.0000257,14.6666952 C16.6856875,14.6664608 14.809356,16.5424122 14.8091196,18.8567505 C14.8088852,21.1710887 16.6848367,23.0474202 18.9991749,23.0476565 C18.9994578,23.0476565 18.9997407,23.0476565 19.0000236,23.0476565 L19.0000237,23.0476565 C21.3143619,23.0474221 23.1903153,21.1710887 23.1900789,18.8567505 C23.1898446,16.5427431 21.3140311,14.6669272 19.0000237,14.6666952 L19.0000256,14.6666952 Z" id="形状"></path>
                        </g>
                    </g>
                </g>
            </g>
        </g>
    </g>
</svg>