<?xml version="1.0" encoding="UTF-8"?>
<svg width="140px" height="140px" viewBox="0 0 140 140" version="1.1" xmlns="http://www.w3.org/2000/svg" xmlns:xlink="http://www.w3.org/1999/xlink">
    <title>icon_知识产权-软件著作_off</title>
    <g id="icon_知识产权-软件著作_off" stroke="none" stroke-width="1" fill="none" fill-rule="evenodd">
        <rect id="矩形备份-11" fill="#FFFFFF" opacity="0" x="0" y="0" width="140" height="140"></rect>
        <path d="M67.1341135,75.0382129 L67.5586893,75.0382129 C68.195553,75.0382129 68.8324167,74.6094288 69.0447045,73.7518607 L72.6535986,62.1746907 C72.8658864,61.3171225 72.4413107,60.2451623 71.5921591,60.0307703 C70.7430076,59.8163783 69.893856,60.2451623 69.4692803,61.1027305 L65.8603862,72.6799005 C65.8603862,73.7518607 66.284962,74.8238208 67.1341135,75.0382129 L67.1341135,75.0382129 Z M79.446811,67.5344916 L82.8434172,69.0352358 L79.446811,70.7503722 C79.0222352,70.9647642 78.8099474,71.1791562 78.5976594,71.6079403 C78.3853716,72.0367244 78.3853716,72.4655085 78.5976594,72.8942925 C78.8099473,73.5374686 79.446811,73.9662527 80.0836746,73.9662527 C80.2959625,73.9662527 80.5082504,73.9662527 80.7205383,73.7518607 L87.7260386,70.3215881 C88.3629022,70.1071961 88.5751901,69.4640199 88.5751901,68.8208438 C88.5751901,68.1776677 88.1506143,67.5344916 87.7260386,67.3200996 L80.7205383,64.104219 C79.8713867,63.6754349 79.0222351,64.104219 78.5976594,64.9617872 C78.1730837,66.0337473 78.5976594,67.1057075 79.446811,67.5344916 Z M51.6370977,70.5359801 L58.642598,73.9662527 C58.8548859,74.1806447 59.0671738,74.1806447 59.2794617,74.1806447 C59.9163253,74.1806447 60.553189,73.7518607 60.765477,73.1086846 C60.9777648,72.6799005 60.9777648,72.2511164 60.765477,71.8223323 C60.5531891,71.3935482 60.3409012,70.9647642 59.9163254,70.9647642 L56.5197192,69.2496279 L59.9163254,67.7488837 C60.765477,67.3200996 61.1900527,66.2481394 60.9777648,65.3905713 C60.553189,64.5330031 59.7040375,64.104219 58.854886,64.318611 L51.8493857,67.3200996 C51.0002341,67.5344916 50.5756583,68.1776677 50.5756583,68.8208438 C50.5756583,69.4640199 51.0002341,70.1071961 51.6370977,70.5359801 L51.6370977,70.5359801 Z M97.4912813,66.2481393 L104.284494,66.2481393 C103.64763,59.3875942 100.887888,52.741441 96.4298419,47.3816401 C96.8544177,47.3816401 96.8544177,46.952856 97.0667056,46.952856 L104.70907,39.4491348 C105.982797,38.5915666 106.407373,36.8764304 105.558221,35.5900781 C105.345933,35.3756861 105.133645,34.946902 104.70907,34.73251 L104.284494,34.3037259 C103.435342,33.0173736 101.737039,32.5885895 100.463312,33.4461577 C100.251024,33.6605497 99.8264482,33.8749418 99.6141602,34.3037259 L91.9717963,41.8074472 C91.5472205,42.2362313 91.5472205,42.2362313 91.5472205,42.4506233 C86.2400234,38.1627825 79.6590989,35.375686 72.8658865,34.518118 L72.8658865,41.8074472 C85.8154476,43.5225835 95.7929783,53.5990092 97.4912813,66.2481393 L97.4912813,66.2481393 Z M42.5087186,73.5374687 L35.5032184,73.5374687 C36.140082,80.3980138 38.8998246,87.044167 43.3578702,92.4039679 C42.9332944,92.4039679 42.9332944,92.832752 42.7210065,92.832752 L35.2909305,100.550865 C34.0172031,101.408433 33.5926273,103.12357 34.4417789,104.409922 C34.6540667,104.624314 34.8663547,105.053098 35.2909305,105.26749 L35.7155062,105.696274 C36.5646578,106.982626 38.2629609,107.41141 39.5366882,106.553842 C39.7489761,106.33945 40.1735518,106.125058 40.3858398,105.696274 L47.8159158,97.9781608 C48.2404916,97.5493767 48.2404916,97.5493767 48.2404916,97.3349847 C53.5476887,101.622825 60.1286132,104.409922 66.9218256,105.26749 L66.9218256,98.4069449 C54.1845524,96.2630246 44.2070217,86.1865988 42.5087186,73.5374687 L42.5087186,73.5374687 Z M42.7210065,47.3816401 C43.1455823,47.8104242 43.1455823,47.8104242 43.3578702,47.8104242 C39.1121124,53.1702251 36.3523699,59.8163783 35.5032184,66.6769234 L42.5087186,66.6769234 C43.9947338,54.0277933 53.7599767,43.9513675 66.284962,42.4506233 L66.284962,35.161294 C59.7040375,35.5900781 53.1231129,38.3771746 48.0282037,42.6650154 C48.0282037,42.2362313 47.6036279,42.2362313 47.6036279,42.0218392 L40.1735518,34.73251 C39.3244003,33.4461577 37.6260972,33.2317657 36.3523699,34.0893339 C35.9277941,34.3037259 35.7155062,34.518118 35.5032184,34.73251 L35.2909305,34.73251 C34.0172031,35.5900781 33.5926273,37.3052144 34.4417789,38.5915666 C34.6540667,38.8059586 34.8663547,39.2347427 35.2909305,39.4491348 L42.7210065,47.3816401 Z" id="形状" fill="#7F899C" fill-rule="nonzero"></path>
        <path d="M94.0559491,76.6836352 C89.9730261,76.4500967 86.0657104,78.1499311 83.7125578,81.390581 C81.3671144,84.1880719 80.2089113,87.9310574 80.4336722,91.7898655 C80.2176954,95.4397157 81.2773511,98.988137 83.4966408,102.125938 C86.1231987,105.22363 90.0645012,106.851962 94.1226842,106.624273 C97.044879,106.625058 99.8912481,105.686419 102.051263,103.941279 C104.425293,102.198257 106.023866,99.3281819 106.477868,96.1186628 L106.558502,95.5486325 L101.547386,95.5486325 L101.461009,95.9411824 C101.065752,97.7374702 100.077376,99.3660666 98.6500533,100.601612 C97.4001375,101.500842 95.6590373,101.980394 93.8823873,101.980394 C91.5680862,102.173396 89.1497555,101.063259 87.464501,99.1485562 C85.9823114,96.7844138 85.2723477,94.3261257 85.4648519,91.7987658 C85.2678632,89.1365816 86.0272152,86.452507 87.5001128,84.3275117 C89.1497553,82.4583242 91.5680862,81.3481875 93.8404559,81.5394286 L93.9450098,81.5372528 C95.3437709,81.3606747 96.8591952,81.8049974 98.5150924,82.7606032 C99.7729732,83.4865166 100.607136,84.7749409 101.039401,86.5211375 L101.133432,86.9009908 L106.101178,86.9009908 L106.056527,86.3598728 C105.832392,83.6435892 104.486872,81.162198 102.263551,79.3659121 C99.9686055,77.511758 96.8612443,76.4657044 94.0559491,76.6836352 Z" id="路径" fill="#4A66BE" fill-rule="nonzero"></path>
    </g>
</svg>