<?xml version="1.0" encoding="UTF-8"?>
<svg width="140px" height="140px" viewBox="0 0 140 140" version="1.1" xmlns="http://www.w3.org/2000/svg" xmlns:xlink="http://www.w3.org/1999/xlink">
    <title>icon_缺省</title>
    <g id="icon_缺省" stroke="none" stroke-width="1" fill="none" fill-rule="evenodd">
        <rect id="矩形备份-11" fill="#FFFFFF" opacity="0" x="0" y="0" width="140" height="140"></rect>
        <path d="M106,50.1961846 L106,89.3827645 L106,89.3827645 C106,95.5662167 101.040689,100.578947 94.9230621,100.578947 C94.9230621,100.578947 94.9230621,100.578947 94.9230621,100.578947 L45.0769316,100.578947 L45.0769311,100.578947 C38.9593395,100.578947 34,95.5662528 34,89.3827645 C34,89.3827645 34,89.3827645 34,89.3827645 L34,50.1961846 L34,50.1961829 C34,44.0127306 38.9593098,39 45.0769311,39 L94.9230616,39 L94.9230611,39 C101.040653,39 106,44.0126946 106,50.1961829 L106,50.1961846 Z M100.461534,50.1961846 L100.461534,50.1961846 C100.461534,47.1044464 97.9818817,44.5980991 94.923074,44.5980991 L45.0769435,44.5980991 L45.0769433,44.5980991 C42.0181355,44.5980991 39.5384836,47.1044464 39.5384836,50.1961846 C39.5384836,50.1961846 39.5384836,50.1961846 39.5384836,50.1961846 L39.5384836,89.3827645 L39.5384836,89.3827636 C39.5384836,92.4745018 42.0181355,94.9808491 45.0769433,94.9808491 L94.9230738,94.9808491 L94.9230735,94.9808491 C97.9818812,94.9808491 100.461534,92.4745018 100.461534,89.3827636 C100.461534,89.3827636 100.461534,89.3827636 100.461534,89.3827636 L100.461534,50.1961837 L100.461534,50.1961846 Z M56.1538687,72.5885503 L56.1538682,72.5885503 C50.0362766,72.5885503 45.0769371,67.5758558 45.0769371,61.3923674 C45.0769371,55.2089152 50.0362409,50.1961846 56.1538682,50.1961846 L56.1538677,50.1961846 C62.2714593,50.1961846 67.2307988,55.2088791 67.2307988,61.3923674 C67.2307988,67.5758197 62.271495,72.5885503 56.1538677,72.5885503 L56.1538687,72.5885503 Z M56.1538687,66.9904649 L56.1538684,66.9904649 C59.2126761,66.9904649 61.692328,64.4841176 61.692328,61.3923795 C61.692328,58.3006413 59.2126761,55.794294 56.1538684,55.794294 L56.1538682,55.794294 C53.0950605,55.794294 50.6154086,58.3006413 50.6154086,61.3923795 C50.6154086,64.4841176 53.0950605,66.9904649 56.1538682,66.9904649 L56.1538687,66.9904649 Z M63.3039991,83.7847392 L63.3039999,83.7847372 C67.9089207,72.3220931 80.8352653,66.8030199 92.1758196,71.4575222 C100.522993,74.8834464 105.987684,83.0757975 106,92.1818443 L100.46154,92.1818443 L100.461541,92.1777329 C100.461541,82.9025245 93.0225614,75.3834586 83.8461442,75.3834586 C77.9069072,75.3834586 72.419322,78.5877768 69.4524165,83.7882631 L63.3019835,83.7882631 L63.3039991,83.7847392 Z M36.963104,94.9809252 L36.963104,94.9809252 C38.4948788,84.2680513 48.3286462,76.8386477 58.9274146,78.3869613 C67.4334401,79.629521 74.1153435,86.3833242 75.3446329,94.9809252 L69.7230942,94.9809252 L69.7230945,94.9809252 C68.1860604,87.4061737 60.864917,82.5250199 53.370845,84.0786254 C47.9412794,85.2042152 43.698238,89.4929061 42.5846668,94.9809252 L36.963104,94.9809252 L36.963104,94.9809252 Z" id="形状" fill="#FFFFFF" fill-rule="nonzero"></path>
    </g>
</svg>