<?xml version="1.0" encoding="UTF-8"?>
<svg width="140px" height="140px" viewBox="0 0 140 140" version="1.1" xmlns="http://www.w3.org/2000/svg" xmlns:xlink="http://www.w3.org/1999/xlink">
    <title>icon_基本信息-股东信息_off</title>
    <g id="icon_基本信息-股东信息_off" stroke="none" stroke-width="1" fill="none" fill-rule="evenodd">
        <rect id="矩形备份-11" fill="#FFFFFF" opacity="0" x="0" y="0" width="140" height="140"></rect>
        <g id="编组" transform="translate(35.000000, 35.000000)" fill-rule="nonzero">
            <path d="M61.1999965,0 C64.7025489,0 67.6320177,2.56789125 67.9682628,5.9325 L68,6.5625 L68,39.375 C68.0021575,40.5080772 67.1074207,41.4552003 65.9381374,41.5575793 C64.7688541,41.6599584 63.7121037,40.8837018 63.5029297,39.76875 L63.466663,39.375 L63.466663,6.5625 C63.467028,5.50597114 62.6848804,4.60017515 61.6079965,4.41 L61.1999965,4.375 L6.79999961,4.375 C5.70523453,4.37464777 4.7666574,5.12947777 4.56959974,6.16875 L4.53333307,6.5625 L4.53333307,63.4375 C4.5329681,64.4940289 5.31511571,65.3998249 6.39199963,65.59 L6.79999961,65.625 L38.5333311,65.625 C39.7074149,65.6229141 40.6888147,66.4864009 40.7948989,67.6148454 C40.9009831,68.7432898 40.0966335,69.7631316 38.9413311,69.965 L38.5333311,70 L6.79999961,70 C3.29744715,70 0.367978364,67.4321088 0.0317333315,64.0675 L0,63.4375 L0,6.5625 C0,3.18227914 2.6608243,0.355126199 6.14719965,0.030625 L6.79999961,0 L61.1999965,0 Z" id="路径" fill="#7F899C"></path>
            <path d="M65.5185156,46.2207287 C67.9935711,46.2207287 70,48.1852215 70,50.6085462 L70,65.6148817 C69.9989241,67.3013958 69.0106824,68.8380524 67.457794,69.5678597 C65.9049056,70.2976669 64.0622267,70.0914511 62.7175879,69.0373793 L58.796289,65.9659071 L54.8749902,69.0373793 C53.5303514,70.0914511 51.6876725,70.2976669 50.134784,69.5678597 C48.5818956,68.8380524 47.5936539,67.3013958 47.592578,65.6148817 L47.592578,50.6085462 C47.592578,48.1852215 49.5990069,46.2207287 52.0740624,46.2207287 L65.5185156,46.2207287 Z M65.5185156,50.6085462 L52.0740624,50.6085462 L52.0740624,65.6148817 L58.796289,60.3495008 L65.5185156,65.6148817 L65.5185156,50.6085462 Z M38.6296092,54.9963598 C39.7902648,54.9942716 40.7604401,55.8602881 40.865311,56.9920386 C40.9701819,58.123789 40.1750318,59.1466187 39.0329428,59.3490784 L38.6296092,59.3841848 L16.2221873,59.3841848 C15.0615318,59.386273 14.0913564,58.5202564 13.9864855,57.388506 C13.8816147,56.2567555 14.6767648,55.2339259 15.8188537,55.0314661 L16.2221873,54.9963598 L38.6296092,54.9963598 Z" id="形状" fill="#7F899C"></path>
            <path d="M46.0509474,25.3785961 C45.0246875,29.7664135 43.1110936,33.4697314 40.3101659,36.4885497 C42.4034373,37.5846146 44.610418,38.45837 46.8934665,39.0949133 L46.8934665,39.0949133 L44.7916503,43.7547754 C41.3364258,42.8421093 38.4906832,41.5169885 36.249941,39.7794128 C33.1708612,41.7373915 29.7543748,43.1319177 26.1666011,43.8951855 L26.1666011,43.8951855 L26.1710826,43.8907977 L25.8887491,43.065888 C28.9720104,41.0562677 31.4906046,39.1344036 33.4534948,37.3090716 C31.3068637,34.9308746 29.6218256,31.868178 28.4118248,28.1209819 L28.4118248,28.1209819 L28.9720104,27.7085271 C31.4906046,30.450913 33.9195691,32.6009435 36.2544225,34.1542309 C37.9953885,31.9314459 39.3227759,29.4257327 40.1757214,26.7519829 L40.1757214,26.7519829 L27.2914537,26.7519829 L27.2914537,25.3785961 Z M26.4399717,11.6666667 L26.4399717,39.0905255 C26.4399717,41.931121 25.0763483,43.3911255 22.353199,43.4745509 L22.1018948,43.4783429 L17.6204104,40.3235022 L18.0371885,39.6390026 L19.3054485,39.775025 C20.7356022,40.0399395 21.4825319,39.5472546 21.5422931,38.2969704 L21.5461907,38.1295935 L21.5461907,30.8633678 L19.162041,30.8633678 C18.8905038,37.2955093 17.0995328,41.5443285 13.7933106,43.6139209 L13.5601855,43.7547754 L13,43.3423205 C13.899165,39.8292584 14.3646658,35.309287 14.4004672,29.7785241 L14.4027046,29.081914 L14.4027046,11.6666667 L26.4399717,11.6666667 Z M21.5417093,22.087733 L19.3009671,22.087733 L19.3009671,29.6347789 L21.5417093,29.6347789 L21.5417093,22.087733 Z M43.9491312,11.9387113 L43.9491312,20.8547563 C43.9491312,21.6752782 44.3255759,22.087733 45.0695023,22.087733 L45.0695023,22.087733 L46.4722069,22.087733 L46.4722069,23.456732 L42.6898341,23.456732 C40.1757214,23.5444884 38.8716094,22.447534 38.7685353,20.165869 L38.7685353,20.165869 L38.7685353,13.3120982 L34.5693844,13.3120982 L34.5693844,16.3309166 C34.4752732,21.9034447 31.9073827,24.7862407 26.8657127,24.9661412 L26.8701942,24.9661412 L26.4489347,24.2816417 C28.2236025,22.1798772 29.1109364,19.3892253 29.1109364,15.9184617 L29.1109364,15.9184617 L29.1109364,11.9387113 L43.9491312,11.9387113 Z M21.5417093,13.0356657 L19.3009671,13.0356657 L19.3009671,20.8591441 L21.5417093,20.8591441 L21.5417093,13.0356657 Z" id="形状结合" fill="#4A66BE"></path>
        </g>
    </g>
</svg>