<?xml version="1.0" encoding="UTF-8"?>
<svg width="140px" height="140px" viewBox="0 0 140 140" version="1.1" xmlns="http://www.w3.org/2000/svg" xmlns:xlink="http://www.w3.org/1999/xlink">
    <title>icon_经营状况-税务信用</title>
    <g id="icon_经营状况-税务信用" stroke="none" stroke-width="1" fill="none" fill-rule="evenodd">
        <rect id="矩形备份-11" fill="#FFFFFF" opacity="0" x="0" y="0" width="140" height="140"></rect>
        <g id="编组" transform="translate(32.000000, 40.000000)" fill="#FFFFFF" fill-rule="nonzero">
            <path d="M69.8589698,60 L6.1428401,60 C2.75024319,60 0,57.2371902 0,53.8290912 L0,6.16909118 C0,4.53246431 0.648130493,2.96306096 1.80047591,1.80613198 C2.95282133,0.649202997 4.51546748,0 6.14464999,0 L69.8571598,0 C73.2490501,0 75.9990006,2.76170223 76,6.16909118 L76,53.8290912 C76,55.4657181 75.3528098,57.0353129 74.2008038,58.1925829 C73.0487978,59.3498528 71.4863423,60 69.8571598,60 L69.8589698,60 Z M70.5829344,5.45454572 L5.42611509,5.45454572 L5.42611509,54.5454548 L70.5829344,54.5454548 L70.5829344,5.45454572 Z M32.5983186,32.727273 L32.5983186,38.5800003 C32.5983186,39.1890912 32.5458312,39.8290912 32.815508,40.0000002 C33.0833749,40.1709093 34.0571074,40.1109093 34.4408087,39.9000003 C35.0344597,39.5727275 35.4471196,39.0054548 35.7421352,38.1309094 C36.0371507,37.256364 36.5746945,36.2618185 37.5520469,36.2618185 C38.5511181,36.2618185 39.434355,37.1890912 39.3619585,38.1309094 C39.3149008,38.7600003 39.3167107,38.7600003 39.3655783,38.1309094 C39.3655783,38.1490912 39.3547189,38.3254549 39.3438594,38.3945457 C38.7103903,41.0218185 37.6606416,42.3781821 35.4471196,43.2690912 C34.538544,43.6363639 33.6191088,43.6363639 33.083375,43.6363639 L32.4824843,43.6363639 C29.6753113,43.6363639 29.2210235,42.1800003 28.9839251,38.6927276 L28.9839251,32.727273 L27.899788,32.727273 C27.4129218,37.6400003 25.4274487,41.1727275 21.9126003,43.1254548 L21.9107904,43.1218185 C21.0468456,43.5348321 20.0121485,43.2010011 19.5491632,42.3598716 C19.086178,41.5187421 19.3548616,40.4609163 20.1624157,39.9454548 L20.1895644,39.927273 C20.2232869,39.9061393 20.2576939,39.8861285 20.2927294,39.867273 C22.5153008,38.5727276 23.8455859,36.2490912 24.2600557,32.727273 L23.5252315,32.727273 C22.525645,32.727273 21.7153199,31.9132453 21.7153199,30.9090912 L21.7153199,21.8181821 C21.7153199,20.814028 22.525645,20.0000003 23.5252315,20.0000003 L23.9596103,20.0000003 L22.7017218,18.0509093 C22.1569471,17.2089261 22.3947775,16.0827188 23.2329309,15.5354548 C24.0710843,14.9881909 25.1921689,15.227108 25.7369436,16.0690912 L28.2780596,20.0000003 L29.3712462,20.0000003 L31.9123621,16.0709093 C32.2578595,15.5111366 32.8776961,15.1828359 33.5326662,15.212704 C34.1876363,15.2425722 34.7753138,15.6259383 35.0689037,16.2148549 C35.3624937,16.8037715 35.3160836,17.5061419 34.947584,18.0509093 L33.6878855,20.0000003 L34.3847014,20.0000003 C34.8647198,20.0000003 35.325078,20.1915582 35.6645023,20.5325334 C36.0039266,20.8735086 36.1946131,21.3359703 36.1946131,21.8181821 L36.1946131,30.9090912 C36.1946131,31.391303 36.0039266,31.8537647 35.6645023,32.1947399 C35.325078,32.5357151 34.8647198,32.727273 34.3847014,32.727273 L32.5983186,32.727273 L32.5983186,32.727273 Z M18.0954966,33.447273 L18.0954966,41.8181821 C18.0954966,42.8223362 17.2851716,43.6363639 16.285585,43.6363639 C15.2859984,43.6363639 14.4756734,42.8223362 14.4756734,41.8181821 L14.4756734,32.5981821 L12.6530923,36.2709094 C12.4393682,36.7008588 12.0635236,37.0272235 11.6091089,37.1774524 C11.1546941,37.3276814 10.6593676,37.2893248 10.2332404,37.0709093 L10.2187612,37.0654548 C9.33446924,36.611779 8.97913392,35.5271106 9.42240001,34.6345458 L13.0711819,27.2727275 L12.126408,27.2727275 C11.1268214,27.2727275 10.3164963,26.4586998 10.3164963,25.4545457 C10.3164963,24.4503916 11.1268214,23.6363639 12.126408,23.6363639 L14.4756734,23.6363639 L14.4756734,20.7654548 C13.2901639,21.051365 12.0750428,21.1947941 10.85585,21.1927275 L10.85585,17.5563639 C13.5453787,17.5563639 16.0303874,16.6872731 18.3597437,14.9145457 L19.4058727,16.3000002 L20.546117,17.8127276 C19.746171,18.4238939 18.8960886,18.9658344 18.0050011,19.4327276 C18.0649022,19.6158057 18.0954487,19.8072865 18.0954966,20.0000003 L18.0954966,23.6363639 L19.0565597,23.6363639 C20.0561463,23.6363639 20.8664713,24.4503916 20.8664713,25.4545457 C20.8664713,26.4586998 20.0561463,27.2727275 19.0565597,27.2727275 L18.6583791,27.2727275 L20.4990593,30.9909094 C20.9408482,31.8835039 20.58482,32.9670122 19.7008883,33.4200003 L19.6864089,33.4290912 C19.188006,33.6843012 18.5995502,33.6910264 18.0954966,33.447273 L18.0954966,33.447273 Z M25.3351432,23.6363639 L25.3351432,29.0909093 L32.5747898,29.0909093 L32.5747898,23.6363639 L25.3351432,23.6363639 Z M44.3392155,14.5454548 L49.7689505,14.5454548 C51.2683304,14.5454548 52.483818,15.7664964 52.483818,17.2727276 C52.483818,18.7789587 51.2683304,20.0000003 49.7689505,20.0000003 L44.3392155,20.0000003 C42.8398356,20.0000003 41.6243481,18.7789587 41.6243481,17.2727276 C41.6243481,15.7664964 42.8398356,14.5454548 44.3392155,14.5454548 Z M44.3392155,27.2727275 L60.6284204,27.2727275 C62.1278003,27.2727275 63.3432878,28.4937691 63.3432878,30.0000003 C63.3432878,31.5062314 62.1278003,32.727273 60.6284204,32.727273 L44.3392155,32.727273 C42.8398356,32.727273 41.6243481,31.5062314 41.6243481,30.0000003 C41.6243481,28.4937691 42.8398356,27.2727275 44.3392155,27.2727275 Z M44.3392155,40.0000002 L60.6284204,40.0000002 C62.1278003,40.0000002 63.3432878,41.2210418 63.3432878,42.727273 C63.3432878,44.2335041 62.1278003,45.4545457 60.6284204,45.4545457 L44.3392155,45.4545457 C42.8398356,45.4545457 41.6243481,44.2335041 41.6243481,42.727273 C41.6243481,41.2210418 42.8398356,40.0000002 44.3392155,40.0000002 Z" id="形状"></path>
        </g>
    </g>
</svg>