<?xml version="1.0" encoding="UTF-8"?>
<svg width="140px" height="140px" viewBox="0 0 140 140" version="1.1" xmlns="http://www.w3.org/2000/svg" xmlns:xlink="http://www.w3.org/1999/xlink">
    <title>icon_手机号码归属地_off</title>
    <g id="icon_手机号码归属地_off" stroke="none" stroke-width="1" fill="none" fill-rule="evenodd">
        <rect id="矩形备份-11" fill="#FFFFFF" opacity="0" x="0" y="0" width="140" height="140"></rect>
        <g id="编组" transform="translate(43.000000, 34.000000)" fill-rule="nonzero">
            <path d="M48.6412214,0 L5.35877863,0 C2.37022901,0 0,2.36571429 0,5.34857143 L0,66.6514286 C0,69.6342857 2.47328244,72 5.35877863,72 L48.6412214,72 C51.629771,72 54,69.6342857 54,66.6514286 L54,5.34857143 C54,2.46857143 51.629771,0 48.6412214,0 Z M27.3206107,69.4285714 C25.628303,69.4285714 24.3206107,68.1208791 24.3206107,66.4285714 C24.3206107,64.7362637 25.7052261,63.4285714 27.3206107,63.4285714 C29.0129184,63.4285714 30.3206107,64.7362637 30.3206107,66.4285714 C30.3206107,68.1208791 29.0129184,69.4285714 27.3206107,69.4285714 Z M50.0515267,54.836401 C50.0515267,58.1893422 47.5264671,60.8485714 44.3426962,60.8485714 L9.76035727,60.8485714 C6.57658638,60.8485714 4.05152672,58.1893422 4.05152672,54.836401 L4.05152672,9.86074181 C4.05152672,6.50780064 6.57658638,3.84857143 9.76035727,3.84857143 L44.3426962,3.84857143 C47.5264671,3.84857143 50.0515267,6.50780064 50.0515267,9.86074181 L50.0515267,54.836401 Z" id="形状" fill="#7F899C"></path>
            <path d="M26.3970588,17.0016869 C20.6323529,17.0016869 16,21.5410749 16,27.2153099 C16,29.2786681 16.6176471,31.4451942 17.8529412,33.0958807 C17.8529412,33.3022165 18.0588235,33.3022165 18.0588235,33.4053844 L25.1617647,42.3809925 C25.4705882,42.8968321 25.9852941,43 26.5,43 C27.0147059,43 27.5294118,42.7936642 27.8382353,42.3809925 L34.9411765,33.4053844 C34.9411765,33.1990486 35.1470588,33.1990486 35.1470588,33.0958807 C36.2794118,31.4451942 37,29.381836 37,27.2153099 C36.7941176,21.5410749 32.1617647,16.898519 26.3970588,17.0016869 L26.3970588,17.0016869 Z M26.3970588,31.4451942 C24.0294118,31.4451942 22.2794118,29.6913397 22.2794118,27.4216457 C22.2794118,25.1519517 24.1323529,23.3980973 26.3970588,23.3980973 C28.7647059,23.3980973 30.5147059,25.1519517 30.5147059,27.4216457 C30.5147059,29.5881718 28.7647059,31.4451942 26.3970588,31.4451942 Z" id="形状" fill="#4A66BE"></path>
        </g>
    </g>
</svg>