<?xml version="1.0" encoding="UTF-8"?>
<svg width="140px" height="140px" viewBox="0 0 140 140" version="1.1" xmlns="http://www.w3.org/2000/svg" xmlns:xlink="http://www.w3.org/1999/xlink">
    <title>icon_漏洞信息_off</title>
    <g id="icon_漏洞信息_off" stroke="none" stroke-width="1" fill="none" fill-rule="evenodd">
        <rect id="矩形备份-11" fill="#FFFFFF" opacity="0" x="0" y="0" width="140" height="140"></rect>
        <g id="编组" transform="translate(34.000000, 33.000000)" fill-rule="nonzero">
            <path d="M52.1495219,0 C58.3850362,0 63.2432432,6.03314866 63.2432432,12.7009632 L63.2432432,26.6941977 C63.1872707,28.2652692 61.9174557,29.5095293 60.3700898,29.5095293 C58.822724,29.5095293 57.552909,28.2652692 57.4969364,26.6941977 L57.4969364,12.7009632 C57.4969364,9.32499974 55.1637929,5.83816097 52.153285,5.83816097 L11.9027953,5.83816097 C8.8922875,5.83816097 5.75006996,9.32499974 5.75006996,12.7009632 L5.75006996,62.3501828 C5.75006996,65.7873188 9.0428129,67.1713491 11.9027953,67.1713491 L32.024277,67.1713491 C33.612115,67.1713491 34.899312,68.4791218 34.899312,70.0923412 C34.899312,71.7055606 33.612115,73.0133333 32.024277,73.0133333 L11.9027953,73.0133333 C5.34741453,73.0133333 0,68.6624314 0,62.3463595 L0,12.7047864 C0.00376313479,6.03697195 5.67480726,0 11.9065585,0 L52.1495219,0 Z M26.9152045,47.36 C28.482499,47.36 29.7530423,48.6852371 29.7530423,50.32 C29.7530423,51.9547629 28.482499,53.28 26.9152045,53.28 L18.4091199,53.28 C16.8418253,53.28 15.571282,51.9547629 15.571282,50.32 C15.571282,48.6852371 16.8418253,47.36 18.4091199,47.36 L26.9152045,47.36 Z M29.7567568,32.56 C31.3240513,32.56 32.5945946,33.8852371 32.5945946,35.52 C32.5945946,37.1547629 31.3240513,38.48 29.7567568,38.48 L18.4091199,38.48 C16.8418253,38.48 15.571282,37.1547629 15.571282,35.52 C15.571282,33.8852371 16.8418253,32.56 18.4091199,32.56 L29.7567568,32.56 Z M46.7837838,17.76 C48.3510783,17.76 49.6216216,19.0852371 49.6216216,20.72 C49.6216216,22.3547629 48.3510783,23.68 46.7837838,23.68 L18.4054054,23.68 C16.8381108,23.68 15.5675676,22.3547629 15.5675676,20.72 C15.5675676,19.0852371 16.8381108,17.76 18.4054054,17.76 L46.7837838,17.76 Z" id="形状结合" fill="#7F899C"></path>
            <path d="M52.0521582,33.5466667 C63.051719,33.5466667 72,42.6208865 72,53.7714108 C72,64.9219352 63.051719,73.996155 52.0559499,73.996155 L52.0521582,74 C41.0563892,74 32.1081081,64.9257802 32.1081081,53.7714108 C32.1081081,42.6208865 41.0563892,33.5466667 52.0521582,33.5466667 Z M52.0521582,39.1103938 C44.0730404,39.1209933 37.6084671,45.6799899 37.602201,53.7714108 C37.6084671,61.8628318 44.0730404,68.4218284 52.0521582,68.4324278 C60.0357184,68.4281872 66.5072151,61.8673308 66.5134904,53.7714108 C66.5072151,45.6754909 60.0357184,39.1146345 52.0521582,39.1103938 Z M52.6786712,58.3576375 C54.2144581,58.3576375 55.4594595,59.6501487 55.4594595,61.244542 C55.4594595,62.8399774 54.2136444,64.1333333 52.6768537,64.1333333 C51.140063,64.1333333 49.8942479,62.8399774 49.8942479,61.244542 L49.8942479,61.244542 C49.8978829,59.6501487 51.1428843,58.3576375 52.6786712,58.3576375 Z M52.3987749,41.44 C53.9325542,41.44 55.1759281,42.7308216 55.1759281,44.3231307 L55.1759281,52.9687492 C55.1759281,54.5610583 53.9325542,55.8518799 52.3987749,55.8518799 C50.8649955,55.8518799 49.6216216,54.5610583 49.6216216,52.9687492 L49.6216216,44.3231307 C49.6216216,42.7308216 50.8649955,41.44 52.3987749,41.44 Z" id="形状结合" fill="#4A66BE"></path>
        </g>
    </g>
</svg>