<?xml version="1.0" encoding="UTF-8"?>
<svg width="140px" height="140px" viewBox="0 0 140 140" version="1.1" xmlns="http://www.w3.org/2000/svg" xmlns:xlink="http://www.w3.org/1999/xlink">
    <title>icon_全国开发区_hover</title>
    <g id="icon_全国开发区_hover" stroke="none" stroke-width="1" fill="none" fill-rule="evenodd">
        <rect id="矩形备份-11" fill="#FFFFFF" opacity="0" x="0" y="0" width="140" height="140"></rect>
        <g id="编组" transform="translate(34.000000, 36.000000)" fill="#FFFFFF" fill-rule="nonzero">
            <path d="M8.51351351,63.2432432 L3.64864865,63.2432432 L3.64864865,4.86486486 C3.64864865,2.17807419 5.82672284,0 8.51351351,0 L37.7027027,0 C40.3894934,0 42.5675676,2.17807419 42.5675676,4.86486486 L42.5675676,63.2432432 L37.7027027,63.2432432 L37.7027027,4.86486486 L8.51351351,4.86486486 L8.51351351,63.2432432 Z M62.027027,31.6216216 L66.8918919,31.6216216 L66.8918919,63.2432432 L62.027027,63.2432432 L62.027027,31.6216216 Z M2.43243243,68.1081081 C1.0890371,68.1081081 -4.32086799e-15,67.019071 -4.32086799e-15,65.6756757 C-4.32086799e-15,64.3322803 1.0890371,63.2432432 2.43243243,63.2432432 L66.8918919,63.2432432 C68.2352872,63.2432432 69.3243243,64.3322803 69.3243243,65.6756757 C69.3243243,67.019071 68.2352872,68.1081081 66.8918919,68.1081081 L2.43243243,68.1081081 Z M70.2097297,31.787027 C71.0196605,32.1033519 71.59931,32.8277411 71.73033,33.6873241 C71.86135,34.5469072 71.5238354,35.411093 70.8449246,35.9543511 C70.1660139,36.4976093 69.2488497,36.637406 68.4389189,36.3210811 L39.2351351,24.9202703 C38.0018781,24.4200902 37.3995355,23.0216821 37.8833339,21.7819071 C38.3671323,20.5421321 39.7574381,19.9213168 41.0035135,20.3886486 L70.2121622,31.787027 L70.2097297,31.787027 Z M49.8940541,39.6802703 C51.2374494,39.6802703 52.3264865,40.7693074 52.3264865,42.1127027 C52.3264865,43.456098 51.2374494,44.5451351 49.8940541,44.5451351 L40.1156757,44.5451351 C38.7722803,44.5451351 37.6832432,43.456098 37.6832432,42.1127027 C37.6832432,40.7693074 38.7722803,39.6802703 40.1156757,39.6802703 L49.8940541,39.6802703 Z M49.8940541,49.41 C51.2374494,49.41 52.3264865,50.4990371 52.3264865,51.8424324 C52.3264865,53.1858278 51.2374494,54.2748649 49.8940541,54.2748649 L40.1156757,54.2748649 C38.7722803,54.2748649 37.6832432,53.1858278 37.6832432,51.8424324 C37.6832432,50.4990371 38.7722803,49.41 40.1156757,49.41 L49.8940541,49.41 Z M20.6756757,38.9189189 C20.6756757,40.2623143 19.5866386,41.3513514 18.2432432,41.3513514 C16.8998479,41.3513514 15.8108108,40.2623143 15.8108108,38.9189189 L15.8108108,34.0540541 C15.8108108,32.7106587 16.8998479,31.6216216 18.2432432,31.6216216 C19.5866386,31.6216216 20.6756757,32.7106587 20.6756757,34.0540541 L20.6756757,38.9189189 Z M20.6756757,21.8918919 C20.6756757,23.2352872 19.5866386,24.3243243 18.2432432,24.3243243 C16.8998479,24.3243243 15.8108108,23.2352872 15.8108108,21.8918919 L15.8108108,17.027027 C15.8108108,15.6836317 16.8998479,14.5945946 18.2432432,14.5945946 C19.5866386,14.5945946 20.6756757,15.6836317 20.6756757,17.027027 L20.6756757,21.8918919 Z M30.4054054,21.8918919 C30.4054054,23.2352872 29.3163683,24.3243243 27.972973,24.3243243 C26.6295776,24.3243243 25.5405405,23.2352872 25.5405405,21.8918919 L25.5405405,17.027027 C25.5405405,15.6836317 26.6295776,14.5945946 27.972973,14.5945946 C29.3163683,14.5945946 30.4054054,15.6836317 30.4054054,17.027027 L30.4054054,21.8918919 Z M30.4054054,38.9189189 C30.4054054,40.2623143 29.3163683,41.3513514 27.972973,41.3513514 C26.6295776,41.3513514 25.5405405,40.2623143 25.5405405,38.9189189 L25.5405405,34.0540541 C25.5405405,32.7106587 26.6295776,31.6216216 27.972973,31.6216216 C29.3163683,31.6216216 30.4054054,32.7106587 30.4054054,34.0540541 L30.4054054,38.9189189 Z M20.6756757,65.6756757 L15.8108108,65.6756757 L15.8108108,49.41 L31.1351351,49.41 L31.1351351,65.6756757 L26.2702703,65.6756757 L26.2702703,54.2748649 L20.6756757,54.2748649 L20.6756757,65.6756757 Z" id="形状"></path>
        </g>
    </g>
</svg>