<?xml version="1.0" encoding="UTF-8"?>
<svg width="60px" height="60px" viewBox="0 0 60 60" version="1.1" xmlns="http://www.w3.org/2000/svg" xmlns:xlink="http://www.w3.org/1999/xlink">
    <title>icon/3-shijianshibie</title>
    <g id="icon/3-shijianshibie" stroke="none" stroke-width="1" fill="none" fill-rule="evenodd">
        <rect id="矩形备份-4" fill="#546DC8" x="0" y="0" width="60" height="60" rx="8"></rect>
        <g id="编组备份" transform="translate(12.500000, 12.500000)" fill="#FFFFFF" fill-rule="nonzero">
            <path d="M1.25,12.4921875 C1.93359375,12.4921875 2.49609375,11.9296875 2.49609375,11.2460937 L2.49609375,2.5 L11.2539063,2.5 C11.9375,2.5 12.5,1.94140625 12.5,1.25390625 C12.5,0.5703125 11.9414063,0.0078125 11.2539063,0.0078125 L1.25,0.0078125 C0.56640625,0.0078125 0.00390625,0.56640625 0.00390625,1.25390625 L0.00390625,11.2460937 C0.00390625,11.9335937 0.5625,12.4921875 1.25,12.4921875 L1.25,12.4921875 Z M34.9960938,1.25390625 C34.9960938,0.5703125 34.4375,0.0078125 33.75,0.0078125 L23.7460938,0.0078125 C23.0625,0.0078125 22.5,0.56640625 22.5,1.25390625 C22.5,1.9375 23.0585938,2.5 23.7460938,2.5 L32.5039062,2.5 L32.5039062,11.2460937 C32.5039062,11.9296875 33.0664062,12.4921875 33.75,12.4921875 C34.4335938,12.4921875 34.9960938,11.9296875 34.9960938,11.2460937 L34.9960938,1.25390625 L34.9960938,1.25390625 Z M11.2539063,32.5 L2.49609375,32.5 L2.49609375,23.7539062 C2.49609375,23.0703125 1.93359375,22.5078125 1.25,22.5078125 C0.56640625,22.5078125 0.00390625,23.0703125 0.00390625,23.7539062 L0.00390625,33.7460938 C0.00390625,34.4296875 0.5625,34.9921875 1.25,34.9921875 L11.2539063,34.9921875 C11.9375,34.9921875 12.5,34.4335938 12.5,33.7460938 C12.5,33.0585938 11.9375,32.5 11.2539063,32.5 L11.2539063,32.5 Z M33.75,22.5078125 C33.0664062,22.5078125 32.5039062,23.0703125 32.5039062,23.7539062 L32.5039062,32.5 L23.7460938,32.5 C23.0625,32.5 22.5,33.0585938 22.5,33.7460938 C22.5,34.4296875 23.0585938,34.9921875 23.7460938,34.9921875 L33.75,34.9921875 C34.4335938,34.9921875 34.9960938,34.4335938 34.9960938,33.7460938 L34.9960938,23.7539062 C34.9960938,23.0664062 34.4375,22.5078125 33.75,22.5078125 Z" id="形状"></path>
        </g>
        <g id="事件" transform="translate(21.037037, 19.000000)" fill="#FFFFFF" fill-rule="nonzero">
            <path d="M15.4242991,0.429044748 L2.24190098,0.429044748 C0.994087028,0.429044748 0.022777304,1.40035447 0.022777304,2.64816842 L0.022777304,19.4345747 C0.022777304,20.5429549 0.994087028,21.5142646 2.24190098,21.5142646 L15.4242991,21.5142646 C16.6721131,21.5142646 17.6434228,20.5429549 17.6434228,19.2951409 L17.6434228,2.64580514 C17.6434228,1.53742494 16.6721131,0.429044748 15.4242991,0.429044748 Z M2.75237032,5.45574982 C2.75237032,4.86256553 3.23684354,4.37809231 3.83002783,4.37809231 L13.8361723,4.37809231 C14.4293566,4.37809231 14.9138298,4.86256553 14.9138298,5.45574982 C14.9138298,6.0489341 14.4293566,6.53340732 13.8361723,6.53340732 L3.83002783,6.53340732 C3.23684354,6.53340732 2.75237032,6.04657082 2.75237032,5.45574982 Z M9.15923325,15.218476 C9.15923325,15.8116603 8.67476003,16.2961335 8.08157574,16.2961335 L3.83002783,16.2961335 C3.23684354,16.2961335 2.75237032,15.8116603 2.75237032,15.218476 C2.75237032,14.6252917 3.23684354,14.1408185 3.83002783,14.1408185 L8.08157574,14.1408185 C8.67476003,14.1408185 9.15923325,14.6252917 9.15923325,15.218476 Z M3.83002783,11.4135888 C3.23684354,11.4135888 2.75237032,10.9291156 2.75237032,10.3359313 C2.75237032,9.74274699 3.23684354,9.25827377 3.83002783,9.25827377 L13.8361723,9.25827377 C14.4293566,9.25827377 14.9138298,9.74274699 14.9138298,10.3359313 C14.9138298,10.9291156 14.4293566,11.4135888 13.8361723,11.4135888 L3.83002783,11.4135888 Z" id="形状"></path>
        </g>
    </g>
</svg>