<?xml version="1.0" encoding="UTF-8"?>
<svg width="60px" height="60px" viewBox="0 0 60 60" version="1.1" xmlns="http://www.w3.org/2000/svg" xmlns:xlink="http://www.w3.org/1999/xlink">
    <title>icon/3-guanxishibie</title>
    <g id="icon/3-guanxishibie" stroke="none" stroke-width="1" fill="none" fill-rule="evenodd">
        <rect id="矩形备份-4" fill="#546DC8" x="0" y="0" width="60" height="60" rx="8"></rect>
        <g id="编组备份" transform="translate(12.500000, 12.500000)" fill="#FFFFFF" fill-rule="nonzero">
            <path d="M1.25,12.4921875 C1.93359375,12.4921875 2.49609375,11.9296875 2.49609375,11.2460937 L2.49609375,2.5 L11.2539063,2.5 C11.9375,2.5 12.5,1.94140625 12.5,1.25390625 C12.5,0.5703125 11.9414063,0.0078125 11.2539063,0.0078125 L1.25,0.0078125 C0.56640625,0.0078125 0.00390625,0.56640625 0.00390625,1.25390625 L0.00390625,11.2460937 C0.00390625,11.9335937 0.5625,12.4921875 1.25,12.4921875 L1.25,12.4921875 Z M34.9960938,1.25390625 C34.9960938,0.5703125 34.4375,0.0078125 33.75,0.0078125 L23.7460938,0.0078125 C23.0625,0.0078125 22.5,0.56640625 22.5,1.25390625 C22.5,1.9375 23.0585938,2.5 23.7460938,2.5 L32.5039062,2.5 L32.5039062,11.2460937 C32.5039062,11.9296875 33.0664062,12.4921875 33.75,12.4921875 C34.4335938,12.4921875 34.9960938,11.9296875 34.9960938,11.2460937 L34.9960938,1.25390625 L34.9960938,1.25390625 Z M11.2539063,32.5 L2.49609375,32.5 L2.49609375,23.7539062 C2.49609375,23.0703125 1.93359375,22.5078125 1.25,22.5078125 C0.56640625,22.5078125 0.00390625,23.0703125 0.00390625,23.7539062 L0.00390625,33.7460938 C0.00390625,34.4296875 0.5625,34.9921875 1.25,34.9921875 L11.2539063,34.9921875 C11.9375,34.9921875 12.5,34.4335938 12.5,33.7460938 C12.5,33.0585938 11.9375,32.5 11.2539063,32.5 L11.2539063,32.5 Z M33.75,22.5078125 C33.0664062,22.5078125 32.5039062,23.0703125 32.5039062,23.7539062 L32.5039062,32.5 L23.7460938,32.5 C23.0625,32.5 22.5,33.0585938 22.5,33.7460938 C22.5,34.4296875 23.0585938,34.9921875 23.7460938,34.9921875 L33.75,34.9921875 C34.4335938,34.9921875 34.9960938,34.4335938 34.9960938,33.7460938 L34.9960938,23.7539062 C34.9960938,23.0664062 34.4375,22.5078125 33.75,22.5078125 Z" id="形状"></path>
        </g>
        <g id="关系" transform="translate(19.000000, 19.000000)" fill="#FFFFFF" fill-rule="nonzero">
            <path d="M15.2697333,6.15216162 L15.2697331,6.15216148 C16.6434122,7.52579462 18.8705451,7.52575375 20.2441731,6.15207493 C21.6178062,4.77839582 21.6177654,2.551263 20.2440865,1.17763497 C20.2440865,1.17763497 20.2440865,1.17763497 20.2440865,1.17763497 L20.2440868,1.17763518 C18.8704076,-0.195997958 16.6432748,-0.195959644 15.2696468,1.17772157 C13.8960136,2.55140069 13.896052,4.77853351 15.2697332,6.15216154 C15.2697332,6.15216154 15.2697332,6.15216154 15.2697332,6.15216154 L15.2697333,6.15216162 Z M17.7571831,8.94115423 C15.8225893,8.94115423 14.2397166,10.5240269 14.2397166,12.4586208 L14.2397166,13.8657607 L10.700028,15.9104429 L7.18256144,13.8657607 L7.18256144,12.4586208 C7.18256144,10.5240269 5.59968872,8.94115423 3.66509489,8.94115423 C1.73050106,8.94115423 0.147372914,10.5240269 0.147372914,12.4588762 L0.147372914,20.3732398 C0.147372914,20.857016 0.543027238,21.2526703 1.02680341,21.2526703 L6.30313095,21.2526703 C6.78690712,21.2526703 7.18256144,20.857016 7.18256144,20.3732398 L7.18256144,15.9104429 L10.2165072,17.6693039 C10.2384738,17.6693039 10.2384738,17.6912705 10.2604405,17.6912705 C10.5242951,17.8452922 10.8540497,17.8672588 11.1398709,17.6912705 L14.2397166,15.8884763 L14.2397166,20.3732398 C14.2397166,20.857016 14.6353709,21.2526703 15.1191471,21.2526703 L20.3954746,21.2526703 C20.8792508,21.2526703 21.2749051,20.857016 21.2749051,20.3732398 L21.2749051,12.4588762 C21.2746497,10.5240269 19.691777,8.94115423 17.7571831,8.94115423 L17.7571831,8.94115423 Z M1.15556348,6.15216162 L1.15556316,6.1521613 C2.52919119,7.52584552 4.75632401,7.52589405 6.13000312,6.15226688 C7.50368735,4.77863885 7.50373588,2.55150603 6.13010871,1.17782691 L6.13010881,1.17782702 C4.75648078,-0.195857208 2.52934796,-0.195905739 1.15566884,1.17772187 C-0.218015382,2.5513499 -0.218063913,4.77848272 1.15556369,6.15216184 C1.15556369,6.15216184 1.15556369,6.15216184 1.15556369,6.15216184 L1.15556348,6.15216162 Z" id="形状"></path>
        </g>
    </g>
</svg>