<?xml version="1.0" standalone="no"?><!DOCTYPE svg PUBLIC "-//W3C//DTD SVG 1.1//EN" "http://www.w3.org/Graphics/SVG/1.1/DTD/svg11.dtd"><svg t="1610591117742" class="icon" viewBox="0 0 1024 1024" version="1.1" xmlns="http://www.w3.org/2000/svg" p-id="5082" xmlns:xlink="http://www.w3.org/1999/xlink" width="200" height="200"><defs><style type="text/css"></style></defs><path d="M525.312 247.936h-1.92a129.664 129.664 0 0 1-12.096 39.04l-57.92 142.4h137.728l-55.872-142.4c-6.72-16.896-9.92-29.888-9.92-39.04z" fill="#05BB8A" p-id="5083"></path><path d="M849.152 98.432a37.376 37.376 0 0 0-37.248-37.248H211.712a37.376 37.376 0 0 0-37.248 37.248v561.92c0 20.48 12.864 47.872 28.672 60.992l280 231.68a47.424 47.424 0 0 0 57.536 0.32l279.936-227.072c15.936-12.864 28.864-40.192 28.864-60.672l-0.32-567.168z m-193.28 491.712l-40-100.032H429.76l-41.984 100.032H315.776L489.792 174.08h66.048l174.016 416.064h-73.984z" fill="#05BB8A" p-id="5084"></path></svg>