<?xml version="1.0" encoding="UTF-8"?>
<svg width="60px" height="60px" viewBox="0 0 60 60" version="1.1" xmlns="http://www.w3.org/2000/svg" xmlns:xlink="http://www.w3.org/1999/xlink">
    <title>icon/2-5</title>
    <g id="icon/2-5" stroke="none" stroke-width="1" fill="none" fill-rule="evenodd">
        <rect id="矩形备份-4" fill="#4BC8D5" x="0" y="0" width="60" height="60" rx="8"></rect>
        <g id="编组备份" transform="translate(13.000000, 12.500000)" fill="#FFFFFF" fill-rule="nonzero">
            <path d="M1.25,12.4921875 C1.93359375,12.4921875 2.49609375,11.9296875 2.49609375,11.2460937 L2.49609375,2.5 L11.2539063,2.5 C11.9375,2.5 12.5,1.94140625 12.5,1.25390625 C12.5,0.5703125 11.9414063,0.0078125 11.2539063,0.0078125 L1.25,0.0078125 C0.56640625,0.0078125 0.00390625,0.56640625 0.00390625,1.25390625 L0.00390625,11.2460937 C0.00390625,11.9335937 0.5625,12.4921875 1.25,12.4921875 L1.25,12.4921875 Z M34.9960938,1.25390625 C34.9960938,0.5703125 34.4375,0.0078125 33.75,0.0078125 L23.7460938,0.0078125 C23.0625,0.0078125 22.5,0.56640625 22.5,1.25390625 C22.5,1.9375 23.0585938,2.5 23.7460938,2.5 L32.5039062,2.5 L32.5039062,11.2460937 C32.5039062,11.9296875 33.0664062,12.4921875 33.75,12.4921875 C34.4335938,12.4921875 34.9960938,11.9296875 34.9960938,11.2460937 L34.9960938,1.25390625 L34.9960938,1.25390625 Z M11.2539063,32.5 L2.49609375,32.5 L2.49609375,23.7539062 C2.49609375,23.0703125 1.93359375,22.5078125 1.25,22.5078125 C0.56640625,22.5078125 0.00390625,23.0703125 0.00390625,23.7539062 L0.00390625,33.7460938 C0.00390625,34.4296875 0.5625,34.9921875 1.25,34.9921875 L11.2539063,34.9921875 C11.9375,34.9921875 12.5,34.4335938 12.5,33.7460938 C12.5,33.0585938 11.9375,32.5 11.2539063,32.5 L11.2539063,32.5 Z M33.75,22.5078125 C33.0664062,22.5078125 32.5039062,23.0703125 32.5039062,23.7539062 L32.5039062,32.5 L23.7460938,32.5 C23.0625,32.5 22.5,33.0585938 22.5,33.7460938 C22.5,34.4296875 23.0585938,34.9921875 23.7460938,34.9921875 L33.75,34.9921875 C34.4335938,34.9921875 34.9960938,34.4335938 34.9960938,33.7460938 L34.9960938,23.7539062 C34.9960938,23.0664062 34.4375,22.5078125 33.75,22.5078125 Z" id="形状"></path>
        </g>
        <path d="M38.0860944,23.6699438 L34.2178711,23.6699438 L34.2178711,20.8571632 C34.2178711,20.27485 33.7447417,19.8017206 33.1624285,19.8017206 L26.8349719,19.8017206 C26.2526587,19.8017206 25.7795293,20.27485 25.7795293,20.8571632 L25.7795293,23.6699438 L21.911306,23.6699438 C20.7466797,23.6699438 19.8004207,24.6136031 19.8004207,25.7808291 L19.8004207,26.1317767 L40.1969796,26.1317767 L40.1969796,25.7808291 C40.1969796,24.6136031 39.2507207,23.6699438 38.0860944,23.6699438 L38.0860944,23.6699438 Z M32.1095855,23.6699438 L27.8878149,23.6699438 L27.8878149,21.9126058 L32.1069859,21.9126058 L32.1069859,23.6699438 L32.1095855,23.6699438 Z M19.8004207,38.0873942 C19.8004207,39.2520205 20.74408,40.1982794 21.911306,40.1982794 L38.088694,40.1982794 C39.2533203,40.1982794 40.1995793,39.2546201 40.1995793,38.0873942 L40.1995793,28.2400624 L19.8004207,28.2400624 L19.8004207,38.0873942 Z M27.1859196,33.1637283 L28.9432576,33.1637283 L28.9432576,31.4063903 C28.9432576,30.8240771 29.416387,30.3509477 29.9987002,30.3509477 C30.5810134,30.3509477 31.0541428,30.8240771 31.0541428,31.4063903 L31.0541428,33.1637283 L32.8114808,33.1637283 C33.393794,33.1637283 33.8669234,33.6368577 33.8669234,34.2191709 C33.8669234,34.8014841 33.393794,35.2746136 32.8114808,35.2746136 L31.0541428,35.2746136 L31.0541428,37.0319515 C31.0541428,37.6142647 30.5810134,38.0873942 29.9987002,38.0873942 C29.416387,38.0873942 28.9432576,37.6142647 28.9432576,37.0319515 L28.9432576,35.2746136 L27.1859196,35.2746136 C26.6036064,35.2746136 26.1304769,34.8014841 26.1304769,34.2191709 C26.1304769,33.6368577 26.6036064,33.1637283 27.1859196,33.1637283 Z" id="形状" fill="#FFFFFF" fill-rule="nonzero"></path>
    </g>
</svg>