<?xml version="1.0" encoding="UTF-8"?>
<svg width="60px" height="60px" viewBox="0 0 60 60" version="1.1" xmlns="http://www.w3.org/2000/svg" xmlns:xlink="http://www.w3.org/1999/xlink">
    <title>icon/2-2</title>
    <g id="icon/2-2" stroke="none" stroke-width="1" fill="none" fill-rule="evenodd">
        <rect id="矩形备份-4" fill="#4BC8D5" x="0" y="0" width="60" height="60" rx="8"></rect>
        <g id="编组备份" transform="translate(13.000000, 12.500000)" fill="#FFFFFF" fill-rule="nonzero">
            <path d="M1.25,12.4921875 C1.93359375,12.4921875 2.49609375,11.9296875 2.49609375,11.2460937 L2.49609375,2.5 L11.2539063,2.5 C11.9375,2.5 12.5,1.94140625 12.5,1.25390625 C12.5,0.5703125 11.9414063,0.0078125 11.2539063,0.0078125 L1.25,0.0078125 C0.56640625,0.0078125 0.00390625,0.56640625 0.00390625,1.25390625 L0.00390625,11.2460937 C0.00390625,11.9335937 0.5625,12.4921875 1.25,12.4921875 L1.25,12.4921875 Z M34.9960938,1.25390625 C34.9960938,0.5703125 34.4375,0.0078125 33.75,0.0078125 L23.7460938,0.0078125 C23.0625,0.0078125 22.5,0.56640625 22.5,1.25390625 C22.5,1.9375 23.0585938,2.5 23.7460938,2.5 L32.5039062,2.5 L32.5039062,11.2460937 C32.5039062,11.9296875 33.0664062,12.4921875 33.75,12.4921875 C34.4335938,12.4921875 34.9960938,11.9296875 34.9960938,11.2460937 L34.9960938,1.25390625 L34.9960938,1.25390625 Z M11.2539063,32.5 L2.49609375,32.5 L2.49609375,23.7539062 C2.49609375,23.0703125 1.93359375,22.5078125 1.25,22.5078125 C0.56640625,22.5078125 0.00390625,23.0703125 0.00390625,23.7539062 L0.00390625,33.7460938 C0.00390625,34.4296875 0.5625,34.9921875 1.25,34.9921875 L11.2539063,34.9921875 C11.9375,34.9921875 12.5,34.4335938 12.5,33.7460938 C12.5,33.0585938 11.9375,32.5 11.2539063,32.5 L11.2539063,32.5 Z M33.75,22.5078125 C33.0664062,22.5078125 32.5039062,23.0703125 32.5039062,23.7539062 L32.5039062,32.5 L23.7460938,32.5 C23.0625,32.5 22.5,33.0585938 22.5,33.7460938 C22.5,34.4296875 23.0585938,34.9921875 23.7460938,34.9921875 L33.75,34.9921875 C34.4335938,34.9921875 34.9960938,34.4335938 34.9960938,33.7460938 L34.9960938,23.7539062 C34.9960938,23.0664062 34.4375,22.5078125 33.75,22.5078125 Z" id="形状"></path>
        </g>
        <g id="编组" transform="translate(19.698822, 21.500000)" fill="#FFFFFF" fill-rule="nonzero">
            <path d="M18.4154637,0.00818048007 L3.13240206,0.00818048007 C1.40579144,0.00818048007 0.0010827106,1.34730101 0.0010827106,2.99323766 L0.0010827106,4.56829286 L21.5467349,4.56829286 L21.5467349,2.99323766 C21.5467349,1.34730101 20.1420502,0.00818048007 18.4154637,0.00818048007 L18.4154637,0.00818048007 Z M0.00105865036,13.9150688 C0.00105865036,15.5610295 1.40576738,16.90015 3.13240206,16.90015 L18.4154637,16.90015 C20.1420502,16.90015 21.5467589,15.5610295 21.5467589,13.9150688 L21.5467589,7.62129614 L0.00105865036,7.62129614 L0.00105865036,13.9150688 L0.00105865036,13.9150688 Z M13.0019347,12.2992796 L17.4829611,12.2992796 C17.9316845,12.2992796 18.2954512,12.6630463 18.2954512,13.1117938 C18.2954512,13.5605412 17.9317086,13.9242839 17.482937,13.9242839 L13.0019588,13.9242839 C12.5531873,13.9242839 12.1894446,13.5605172 12.1894446,13.1117697 C12.1894446,12.6630222 12.5531873,12.2992796 13.0019588,12.2992796 L13.0019347,12.2992796 Z" id="形状"></path>
        </g>
    </g>
</svg>