<?xml version="1.0" standalone="no"?><!DOCTYPE svg PUBLIC "-//W3C//DTD SVG 1.1//EN" "http://www.w3.org/Graphics/SVG/1.1/DTD/svg11.dtd"><svg t="1610591367334" class="icon" viewBox="0 0 1024 1024" version="1.1" xmlns="http://www.w3.org/2000/svg" p-id="5926" xmlns:xlink="http://www.w3.org/1999/xlink" width="200" height="200"><defs><style type="text/css"></style></defs><path d="M1024 251.050667a42.666667 42.666667 0 0 0-42.666667-42.666667v85.333333c23.552 0.170667 42.666667-18.944 42.666667-42.666666zM981.248 208.469333v85.333334h-938.666667v-85.333334z" p-id="5927" fill="#989CA6"></path><path d="M0 251.050667a42.666667 42.666667 0 0 0 42.666667 42.666666v-85.333333a42.666667 42.666667 0 0 0-42.666667 42.666667zM632.490667 371.2a42.666667 42.666667 0 0 0-42.666667 42.666667h85.333333a42.666667 42.666667 0 0 0-42.666666-42.666667z" p-id="5928" fill="#989CA6"></path><path d="M589.824 412.672h85.333333v332.629333h-85.333333zM632.490667 787.968a42.666667 42.666667 0 0 0 42.666666-42.666667h-85.333333a42.666667 42.666667 0 0 0 42.666667 42.666667z" p-id="5929" fill="#989CA6"></path><path d="M512.170667 1013.418667c-92.842667 0-185.685333-1.024-278.528 0.341333-60.586667 0.853333-109.568-38.058667-126.805334-94.549333-3.584-11.776-5.461333-23.722667-5.461333-36.010667 0.170667-155.477333 0-310.784 0.170667-466.261333 0-25.941333 21.162667-46.762667 45.909333-45.738667 20.992 0.853333 37.376 16.725333 39.082667 37.546667 0.341333 3.242667 0.170667 6.485333 0.170666 9.728v471.04c0 25.941333 19.968 45.909333 45.909334 45.909333h559.104c25.770667 0 45.738667-19.968 45.738666-45.909333V415.573333c0-23.722667 20.992-44.885333 43.690667-44.373333 20.992 0.512 40.96 21.162667 41.642667 43.178667 0.170667 2.730667 0 5.461333 0 8.362666v461.482667c0 60.586667-38.229333 110.421333-95.914667 125.610667-9.898667 2.56-19.797333 3.754667-30.037333 3.754666-94.890667-0.170667-189.781333-0.170667-284.672-0.170666zM748.714667 208.384c-1.194667 0-2.389333-0.341333-3.584-0.341333H508.245333c-78.848 0-157.525333-0.170667-236.373333 0.170666-6.485333 0-7.850667-1.877333-7.850667-8.021333 0.341333-22.186667 0.170667-44.202667 0.170667-66.389333 0-25.941333 19.797333-45.738667 45.909333-45.738667 133.802667 0 267.605333 0.341333 401.408-0.170667 27.306667-0.170667 39.765333 14.848 40.277334 39.082667 0.682667 25.6 0 51.2 0.170666 76.8 0.170667 3.925333-1.365333 4.608-3.242666 4.608h89.429333v-1.706667c-0.682667-1.024-1.024-2.389333-0.853333-4.778666 0.512-11.093333 0.341333-22.186667 0.170666-33.28-0.512-18.944 1.365333-37.717333-1.365333-56.661334-8.533333-55.978667-61.952-102.058667-118.101333-102.058666H304.810667c-68.266667 0-118.272 50.005333-118.272 118.272 0 26.624-0.170667 53.418667 0.170666 80.042666h562.005334z" p-id="5930" fill="#989CA6"></path><path d="M384.512 371.2a42.666667 42.666667 0 0 0-42.666667 42.666667h85.333334c0.170667-23.552-18.944-42.666667-42.666667-42.666667z" p-id="5931" fill="#989CA6"></path><path d="M341.845333 412.672h85.333334v332.629333h-85.333334zM384.512 787.968a42.666667 42.666667 0 0 0 42.666667-42.666667h-85.333334a42.666667 42.666667 0 0 0 42.666667 42.666667z" p-id="5932" fill="#989CA6"></path></svg>