<?xml version="1.0" encoding="UTF-8"?>
<svg width="60px" height="60px" viewBox="0 0 60 60" version="1.1" xmlns="http://www.w3.org/2000/svg" xmlns:xlink="http://www.w3.org/1999/xlink">
    <title>icon/3-shitishibie</title>
    <g id="icon/3-shitishibie" stroke="none" stroke-width="1" fill="none" fill-rule="evenodd">
        <rect id="矩形备份-4" fill="#546DC8" x="0" y="0" width="60" height="60" rx="8"></rect>
        <g id="编组备份" transform="translate(12.500000, 12.500000)" fill="#FFFFFF" fill-rule="nonzero">
            <path d="M1.25,12.4921875 C1.93359375,12.4921875 2.49609375,11.9296875 2.49609375,11.2460937 L2.49609375,2.5 L11.2539063,2.5 C11.9375,2.5 12.5,1.94140625 12.5,1.25390625 C12.5,0.5703125 11.9414063,0.0078125 11.2539063,0.0078125 L1.25,0.0078125 C0.56640625,0.0078125 0.00390625,0.56640625 0.00390625,1.25390625 L0.00390625,11.2460937 C0.00390625,11.9335937 0.5625,12.4921875 1.25,12.4921875 L1.25,12.4921875 Z M34.9960938,1.25390625 C34.9960938,0.5703125 34.4375,0.0078125 33.75,0.0078125 L23.7460938,0.0078125 C23.0625,0.0078125 22.5,0.56640625 22.5,1.25390625 C22.5,1.9375 23.0585938,2.5 23.7460938,2.5 L32.5039062,2.5 L32.5039062,11.2460937 C32.5039062,11.9296875 33.0664062,12.4921875 33.75,12.4921875 C34.4335938,12.4921875 34.9960938,11.9296875 34.9960938,11.2460937 L34.9960938,1.25390625 L34.9960938,1.25390625 Z M11.2539063,32.5 L2.49609375,32.5 L2.49609375,23.7539062 C2.49609375,23.0703125 1.93359375,22.5078125 1.25,22.5078125 C0.56640625,22.5078125 0.00390625,23.0703125 0.00390625,23.7539062 L0.00390625,33.7460938 C0.00390625,34.4296875 0.5625,34.9921875 1.25,34.9921875 L11.2539063,34.9921875 C11.9375,34.9921875 12.5,34.4335938 12.5,33.7460938 C12.5,33.0585938 11.9375,32.5 11.2539063,32.5 L11.2539063,32.5 Z M33.75,22.5078125 C33.0664062,22.5078125 32.5039062,23.0703125 32.5039062,23.7539062 L32.5039062,32.5 L23.7460938,32.5 C23.0625,32.5 22.5,33.0585938 22.5,33.7460938 C22.5,34.4296875 23.0585938,34.9921875 23.7460938,34.9921875 L33.75,34.9921875 C34.4335938,34.9921875 34.9960938,34.4335938 34.9960938,33.7460938 L34.9960938,23.7539062 C34.9960938,23.0664062 34.4375,22.5078125 33.75,22.5078125 Z" id="形状"></path>
        </g>
        <g id="实体" transform="translate(19.000000, 19.000000)" fill="#FFFFFF" fill-rule="nonzero">
            <path d="M19.0990592,3.13857349 L11.042955,0.436536358 L11.0429549,0.436536357 C10.9488395,0.404854881 10.8469402,0.404854881 10.752824,0.436536336 L2.82176108,3.09523084 C2.43408798,3.22528921 2.40240579,3.75886225 2.7725724,3.93227294 L10.8078562,7.71147129 C10.9304111,7.76899716 11.0729741,7.76899716 11.1955293,7.71147129 L19.1482635,3.97478842 C19.5184294,3.80221103 19.4867496,3.26863916 19.0990748,3.13858055 L19.0990592,3.13857349 Z M20.9415534,6.69517411 L12.8320862,10.4426808 C12.6711806,10.5168808 12.5686344,10.6777865 12.5694636,10.8545327 L12.6019832,21.1366378 C12.6028169,21.4692866 12.9529734,21.6868836 13.2539423,21.5426524 L21.3308908,17.6609111 C21.4876278,17.5850438 21.5876734,17.427473 21.5876734,17.2540623 L21.5876734,7.10534095 C21.5876734,6.77519254 21.2425181,6.55592705 20.9415492,6.69515757 L20.9415534,6.69517411 Z M9.16793251,10.4418537 L1.05761448,6.69517411 C0.756645539,6.55594501 0.412324514,6.77521003 0.412324514,7.1053575 L0.412324514,17.2532517 C0.412324514,17.4266629 0.512369415,17.5850663 0.669107137,17.6601005 L8.7460556,21.5418418 C9.04702454,21.6869067 9.39718052,21.4684755 9.39801475,21.1358272 L9.43053433,10.8537221 C9.43136301,10.6769761 9.32881709,10.5169045 9.16791172,10.4418702 L9.16793251,10.4418537 Z" id="形状"></path>
        </g>
    </g>
</svg>