<?xml version="1.0" encoding="UTF-8"?>
<svg width="60px" height="60px" viewBox="0 0 60 60" version="1.1" xmlns="http://www.w3.org/2000/svg" xmlns:xlink="http://www.w3.org/1999/xlink">
    <title>icon/3-5</title>
    <g id="icon/3-5" stroke="none" stroke-width="1" fill="none" fill-rule="evenodd">
        <rect id="矩形备份-4" fill="#546DC8" x="0" y="0" width="60" height="60" rx="8"></rect>
        <g id="情感分析-10" transform="translate(8.000000, 10.500000)" fill="#FFFFFF" fill-rule="nonzero" stroke="#FFFFFF">
            <path d="M36.3000422,2.05000704 C32.4500378,0.40000512 28.325033,0.67500544 24.2000282,2.875008 C23.3750272,3.42500864 22.5500262,3.70000896 21.450025,2.875008 C20.625024,2.60000768 19.800023,2.05000704 18.7000218,1.77500672 C14.0250163,0.40000512 9.90001152,0.95000576 6.60000768,3.97500928 C3.30000384,6.72501248 1.92500224,10.575017 2.7500032,15.5250227 C2.7500032,16.0750234 3.30000384,16.625024 3.57500416,16.9000243 C4.95000576,17.1750246 5.5000064,16.625024 5.77500672,16.0750234 C5.77500672,15.800023 6.05000704,15.5250227 5.77500672,14.4250214 C5.22500608,11.6750182 6.05000704,9.20001536 7.70000896,7.27501312 C9.35001088,5.35001088 11.8250138,4.2500096 14.3000166,3.97500928 C17.0500198,3.97500928 19.5250227,4.80001024 21.7250253,6.72501248 C22.5500262,7.55001344 23.3750272,7.55001344 24.2000282,6.72501248 C24.7500288,6.17501184 25.5750298,5.6250112 26.4000307,5.07501056 C29.4250342,3.42500864 32.4500378,3.42500864 35.200041,4.80001024 C37.6750438,6.17501184 39.6000461,8.3750144 40.1500467,11.4000179 C40.7000474,15.2500224 39.0500454,18.5500262 37.9500442,20.7500288 C34.37504,26.8000358 29.1500339,30.9250406 23.9250278,34.7750451 C23.1000269,35.3250458 22.2750259,35.0500454 22.0000256,34.7750451 C18.4250214,32.3000422 14.3000166,29.0000384 11.0000128,24.8750336 C9.6250112,23.2250317 8.80001024,23.2250317 8.2500096,23.2250317 C7.97500928,23.2250317 7.42500864,23.500032 7.42500864,23.7750323 C7.42500864,23.7750323 7.15000832,24.325033 7.42500864,24.6000333 C11.0000128,29.2750387 15.6750182,33.6750438 22.2750259,38.075049 C22.5500262,38.3500493 22.8250266,38.3500493 23.3750272,38.3500493 C23.6500275,38.3500493 24.2000282,38.3500493 24.4750285,38.075049 C29.7000346,34.5000448 33.550039,31.200041 36.8500429,27.6250368 C40.425047,23.7750323 42.3500493,20.2000282 43.1750502,16.0750234 C44.2750515,10.0250163 41.5250483,4.52500992 36.3000422,2.05000704 L36.3000422,2.05000704 Z" id="路径"></path>
            <path d="M17.0500198,19.3750272 C17.0500198,19.1000269 17.3250202,18.8250266 17.3250202,18.5500262 L18.4250214,16.0750234 L19.2500224,18.5500262 C19.2500224,18.8250266 19.5250227,19.1000269 19.5250227,19.3750272 L19.800023,20.4750285 C20.3500237,22.675031 20.9000243,24.6000333 21.450025,26.8000358 C21.7250253,27.9000371 22.0000256,28.4500378 22.5500262,28.4500378 C23.3750272,28.4500378 23.6500275,28.1750374 23.9250278,27.0750362 L24.7500288,25.7000346 C25.3000294,24.8750336 25.5750298,24.0500326 25.8500301,23.2250317 C26.4000307,21.8500301 27.2250317,21.8500301 28.0500326,21.8500301 L32.1750374,21.8500301 C32.7250381,21.8500301 33.550039,21.8500301 33.550039,21.0250291 C33.550039,20.7500288 33.8250394,19.6500275 32.4500378,19.6500275 L27.2250317,19.6500275 C25.5750298,19.6500275 25.0250291,19.9250278 24.4750285,21.3000294 C24.2000282,22.4000307 23.3750272,24.6000333 23.1000269,24.325033 C22.8250266,24.0500326 22.5500262,22.4000307 22.5500262,22.4000307 L22.0000256,19.9250278 C21.450025,17.450025 20.625024,14.9750221 20.0750234,12.5000192 C19.800023,11.1250176 19.5250227,11.1250176 18.9750221,10.8500173 C18.4250214,10.8500173 18.1500211,11.1250176 17.6000205,11.9500186 L17.0500198,13.6000205 L15.4000179,17.7250253 C14.8500173,19.1000269 14.3000166,19.6500275 12.6500147,19.6500275 L1.65000192,19.6500275 C1.10000128,19.6500275 0.82500096,19.9250278 0.55000064,19.9250278 C0.27500032,20.2000282 2.80331314e-15,20.4750285 0.27500032,20.7500288 C0.27500032,21.3000294 0.55000064,21.8500301 1.65000192,21.8500301 L13.750016,21.8500301 C16.2250189,21.8500301 16.2250189,21.8500301 17.0500198,19.3750272 L17.0500198,19.3750272 Z" id="路径"></path>
        </g>
    </g>
</svg>