<?xml version="1.0" encoding="UTF-8"?>
<svg width="60px" height="60px" viewBox="0 0 60 60" version="1.1" xmlns="http://www.w3.org/2000/svg" xmlns:xlink="http://www.w3.org/1999/xlink">
    <title>icon/2-3</title>
    <g id="icon/2-3" stroke="none" stroke-width="1" fill="none" fill-rule="evenodd">
        <rect id="矩形备份-4" fill="#4BC8D5" x="0" y="0" width="60" height="60" rx="8"></rect>
        <g id="编组备份" transform="translate(13.000000, 12.500000)" fill="#FFFFFF" fill-rule="nonzero">
            <path d="M1.25,12.4921875 C1.93359375,12.4921875 2.49609375,11.9296875 2.49609375,11.2460937 L2.49609375,2.5 L11.2539063,2.5 C11.9375,2.5 12.5,1.94140625 12.5,1.25390625 C12.5,0.5703125 11.9414063,0.0078125 11.2539063,0.0078125 L1.25,0.0078125 C0.56640625,0.0078125 0.00390625,0.56640625 0.00390625,1.25390625 L0.00390625,11.2460937 C0.00390625,11.9335937 0.5625,12.4921875 1.25,12.4921875 L1.25,12.4921875 Z M34.9960938,1.25390625 C34.9960938,0.5703125 34.4375,0.0078125 33.75,0.0078125 L23.7460938,0.0078125 C23.0625,0.0078125 22.5,0.56640625 22.5,1.25390625 C22.5,1.9375 23.0585938,2.5 23.7460938,2.5 L32.5039062,2.5 L32.5039062,11.2460937 C32.5039062,11.9296875 33.0664062,12.4921875 33.75,12.4921875 C34.4335938,12.4921875 34.9960938,11.9296875 34.9960938,11.2460937 L34.9960938,1.25390625 L34.9960938,1.25390625 Z M11.2539063,32.5 L2.49609375,32.5 L2.49609375,23.7539062 C2.49609375,23.0703125 1.93359375,22.5078125 1.25,22.5078125 C0.56640625,22.5078125 0.00390625,23.0703125 0.00390625,23.7539062 L0.00390625,33.7460938 C0.00390625,34.4296875 0.5625,34.9921875 1.25,34.9921875 L11.2539063,34.9921875 C11.9375,34.9921875 12.5,34.4335938 12.5,33.7460938 C12.5,33.0585938 11.9375,32.5 11.2539063,32.5 L11.2539063,32.5 Z M33.75,22.5078125 C33.0664062,22.5078125 32.5039062,23.0703125 32.5039062,23.7539062 L32.5039062,32.5 L23.7460938,32.5 C23.0625,32.5 22.5,33.0585938 22.5,33.7460938 C22.5,34.4296875 23.0585938,34.9921875 23.7460938,34.9921875 L33.75,34.9921875 C34.4335938,34.9921875 34.9960938,34.4335938 34.9960938,33.7460938 L34.9960938,23.7539062 C34.9960938,23.0664062 34.4375,22.5078125 33.75,22.5078125 Z" id="形状"></path>
        </g>
        <g id="教育" transform="translate(17.100641, 21.468982)" fill="#FFFFFF" fill-rule="nonzero">
            <path d="M14.1427394,0.589259648 L26.2113883,4.48212442 C26.776522,4.66428403 26.7691541,5.83157389 26.2113883,6.01159106 L14.1427132,9.90476936 C13.5812373,10.0859884 13.1759505,10.0866154 12.6132466,9.90419456 L0.545276973,6.01159106 C-0.0167998607,5.83034591 -0.0216856678,4.66488496 0.545276973,4.4820983 L12.6132989,0.589259648 C13.1796606,0.406472982 13.5776579,0.407073911 14.1427916,0.58923352 L14.1427394,0.589259648 Z M21.9105551,8.51274294 L21.9105551,14.8243334 C19.8092583,16.1446082 16.7520051,16.9764991 13.3492529,16.9764991 C9.94644136,16.9764991 6.88996109,16.1446379 4.78795082,14.8243334 L4.78795082,8.51274294 L12.4804367,10.9930449 C13.1207141,11.1999696 13.5819541,11.1992858 14.2208639,10.9937584 L21.9105551,8.51274294 Z M3.09843777,6.62051416 C3.09843777,6.62051416 2.27307603,6.55681578 1.981652,9.02613403 L1.97188039,9.10634488 C1.60450427,9.29307677 1.35710477,9.64945328 1.35710477,10.0584241 C1.35710477,10.3792675 1.50898283,10.6676346 1.7514704,10.8678482 C1.50775484,12.7083604 1.22244461,14.4398957 0.878347929,15.5432259 C0.878347929,15.5432259 0.687932089,16.4671398 1.12692316,16.4873624 C1.56533943,16.5069579 3.95321886,16.4873624 3.95321886,16.4873624 C3.95321886,16.4873624 4.43814175,16.351422 4.23670018,15.5652773 C4.23670018,15.5652773 3.50194795,13.4419108 3.35806485,10.8795009 C3.60909605,10.6792874 3.76831589,10.3854335 3.76831589,10.0584241 C3.76831589,9.70578377 3.58338678,9.39168124 3.29622151,9.19146766 C3.29930453,8.11139076 3.47561162,7.86310293 4.02849164,7.01937369 L3.0984639,6.62051416 L3.09843777,6.62051416 Z" id="形状"></path>
        </g>
    </g>
</svg>