<?xml version="1.0" encoding="UTF-8"?>
<svg width="60px" height="60px" viewBox="0 0 60 60" version="1.1" xmlns="http://www.w3.org/2000/svg" xmlns:xlink="http://www.w3.org/1999/xlink">
    <title>icon/3-wenbenjulei</title>
    <g id="icon/3-wenbenjulei" stroke="none" stroke-width="1" fill="none" fill-rule="evenodd">
        <rect id="矩形备份-4" fill="#546DC8" x="0" y="0" width="60" height="60" rx="8"></rect>
        <g id="编组-3" transform="translate(8.500000, 8.000000)" fill="#FFFFFF" fill-rule="nonzero">
            <path d="M11.2546733,5.37943945 C11.5917658,5.21761628 11.9794453,5.19678331 12.3319385,5.3215498 C12.6844317,5.44631628 12.9726805,5.70639695 13.1329106,6.04424963 C13.4690145,6.74769027 13.1733261,7.59049072 12.4714014,7.92974907 C5.06144146,11.4888273 1.25017113,19.8613425 3.41889156,27.8159583 C3.59669265,28.5565939 3.15594381,29.3049912 2.42200635,29.5086825 C1.68775764,29.709664 0.926834984,29.2901473 0.704855112,28.5619717 C-1.82234788,19.2909393 2.61940283,9.53268762 11.2546733,5.3827404 L11.2546733,5.37943945 Z M8.3122115,39.507243 C7.90233689,39.2132291 7.67990228,38.7233061 7.72832945,38.2212143 C7.77675661,37.7191225 8.08872675,37.2807432 8.54723873,37.0704859 C9.00483976,36.8614798 9.53930401,36.9133646 9.94815951,37.2064848 C12.8217328,39.2693009 16.2714261,40.3758543 19.8087405,40.3694497 C24.6433036,40.3694497 29.1504131,38.3340874 32.3496883,34.8205622 C32.6886739,34.4475799 33.2014847,34.2847661 33.6935385,34.3938992 C34.1855923,34.5030322 34.5814818,34.8673876 34.7309896,35.3487133 C34.882833,35.829991 34.7673,36.3561615 34.4273027,36.728508 C30.686192,40.8517354 25.3762257,43.2010891 19.8087405,43.1963967 C15.6854425,43.2019926 11.6646765,41.9114676 8.31485226,39.507243 L8.3122115,39.507243 L8.3122115,39.507243 Z M39.6111057,23.3154507 C39.6111057,24.0964542 38.9806254,24.7289151 38.2035831,24.7289151 C37.4246644,24.7274579 36.7943054,24.0950302 36.7954002,23.3161109 C36.7954002,15.836171 31.9449925,9.22900076 24.8288167,7.01604765 C24.3394603,6.87160334 23.9655713,6.4751855 23.8499734,5.97822379 C23.7343755,5.48126208 23.8949265,4.9605285 24.2702969,4.61494071 C24.6457537,4.26995092 25.1787733,4.15571438 25.6626352,4.31653537 C33.9559278,6.89589326 39.6097854,14.5956761 39.6111057,23.31281 L39.6111057,23.3154507 Z" id="形状" stroke="#FFFFFF"></path>
            <path d="M14.5622196,9.0177403 C16.7918234,9.0177403 18.5992745,7.21028923 18.5992745,4.98068535 C18.5992745,2.75108147 16.7918234,0.943630404 14.5622196,0.943630404 C12.3326157,0.943630404 10.5251646,2.75108147 10.5251646,4.98068535 C10.5251646,7.21028923 12.3326157,9.0177403 14.5622196,9.0177403 Z M13.3415303,4.98068535 C13.3415303,4.30651731 13.8880515,3.75999613 14.5622196,3.75999613 C15.2363876,3.75999613 15.7829088,4.30651731 15.7829088,4.98068535 C15.7829088,5.65485339 15.2363876,6.20137457 14.5622196,6.20137457 C13.8880515,6.20137457 13.3415303,5.65485339 13.3415303,4.98068535 Z M41.7107687,28.0235434 C42.4316674,26.775146 42.4317933,25.2369844 41.7110988,23.988469 C40.9904043,22.7399537 39.6583801,21.9707639 38.2167868,21.970646 C35.9882768,21.9704637 34.1815647,23.7768802 34.1813824,26.0053903 C34.1812001,28.2339003 35.9876166,30.0406124 38.2161267,30.0407947 C39.6577199,30.0409127 40.9898699,29.2719408 41.7107687,28.0235434 Z M36.9967578,26.0057204 C36.9967578,25.3322815 37.5426878,24.7863515 38.2161267,24.7863515 C38.8895655,24.7863515 39.4354955,25.3322815 39.4354955,26.0057204 C39.4354955,26.6791592 38.8895655,27.2250892 38.2161267,27.2250892 C37.5426878,27.2250892 36.9967578,26.6791592 36.9967578,26.0057204 Z M6.67692364,40.5556229 C8.90634522,40.5556229 10.7136485,38.7483197 10.7136485,36.5188981 C10.7136485,34.2894765 8.90634522,32.4821732 6.67692364,32.4821732 C4.44750207,32.4821732 2.64019879,34.2894765 2.64019879,36.5188981 C2.64019879,38.7483197 4.44750207,40.5556229 6.67692364,40.5556229 Z M5.45623442,36.5192282 C5.45623442,35.8450601 6.0027556,35.298539 6.67692364,35.298539 C7.35109168,35.298539 7.89761286,35.8450601 7.89761286,36.5192282 C7.89761286,37.1933962 7.35109168,37.7399174 6.67692364,37.7399174 C6.0027556,37.7399174 5.45623442,37.1933962 5.45623442,36.5192282 Z" id="形状" transform="translate(22.445865, 20.749627) rotate(2.000000) translate(-22.445865, -20.749627) "></path>
            <g id="文本" transform="translate(9.410950, 14.202340)">
                <path d="M16.5609846,0.253930447 L16.5609846,5.19439668 L16.035403,5.19439668 C15.7200536,4.03811624 15.4047042,3.30230008 15.0893547,2.77671852 C14.7740053,2.25113695 14.2484237,1.93578752 13.6177249,1.62043808 C13.3023754,1.41020521 12.6716766,1.41020521 11.8307456,1.41020521 L10.4642306,1.41020521 L10.4642306,15.3907049 C10.4642306,16.3367532 10.4642306,16.8623348 10.5693471,17.1776842 C10.6744637,17.3879171 10.8846965,17.598151 11.200046,17.8083831 C11.5153954,18.018616 11.9358621,18.018616 12.4614437,18.018616 L13.0921426,18.018616 L13.0921426,18.5441975 L3.6316596,18.5441975 L3.6316596,17.8083814 L4.26235846,17.8083814 C4.78794003,17.8083814 5.20840676,17.7032648 5.52375619,17.4930319 C5.73398907,17.3879154 5.94422293,17.1776825 6.04933776,16.8623331 C6.15445432,16.6521002 6.15445432,16.1265169 6.15445432,15.1804686 L6.15445432,1.19996889 L4.89305659,1.19996889 C3.63165886,1.19996889 2.79072786,1.41020176 2.26513644,1.93578505 C1.52932028,2.67160122 1.00373871,3.72276435 0.793506579,4.98415469 L0.267925013,4.98415469 L0.267925013,0.0436884589 L16.5609846,0.0436884589 L16.5609846,0.253930447 Z" id="路径"></path>
                <path d="M20.1160371,10.5625341 L20.1160371,12.7184971 L19.8866793,12.7184971 C19.7490644,12.2139095 19.6114495,11.8928078 19.4738346,11.66345 C19.3362197,11.4340922 19.1068619,11.2964773 18.8316322,11.1588624 C18.6940173,11.0671192 18.4187875,11.0671192 18.0518148,11.0671192 L17.4554833,11.0671192 L17.4554833,17.1680494 C17.4554833,17.5808941 17.4554833,17.8102519 17.501355,17.9478667 C17.5472266,18.03961 17.6389699,18.1313536 17.7765847,18.2230965 C17.9141996,18.3148397 18.0976865,18.3148397 18.3270443,18.3148397 L18.6022741,18.3148397 L18.6022741,18.5441975 L14.4738275,18.5441975 L14.4738275,18.2230958 L14.7490572,18.2230958 C14.978415,18.2230958 15.1619019,18.1772241 15.2995168,18.0854809 C15.39126,18.0396092 15.4830037,17.947866 15.5288746,17.8102511 C15.5747462,17.7185079 15.5747462,17.4891493 15.5747462,17.0763047 L15.5747462,10.9753745 L15.0242867,10.9753745 C14.4738271,10.9753745 14.1068545,11.0671177 13.8774924,11.2964762 C13.5563906,11.617578 13.3270328,12.0762936 13.2352899,12.6267499 L13.0059321,12.6267499 L13.0059321,10.4707869 L20.1160371,10.4707869 L20.1160371,10.5625341 Z" id="路径备份"></path>
            </g>
        </g>
    </g>
</svg>