<?xml version="1.0" encoding="UTF-8"?>
<svg width="60px" height="60px" viewBox="0 0 60 60" version="1.1" xmlns="http://www.w3.org/2000/svg" xmlns:xlink="http://www.w3.org/1999/xlink">
    <title>icon/3-wenben jiucuo</title>
    <g id="icon/3-wenben-jiucuo" stroke="none" stroke-width="1" fill="none" fill-rule="evenodd">
        <rect id="矩形备份-4" fill="#546DC8" x="0" y="0" width="60" height="60" rx="8"></rect>
        <path d="M40.5021553,43.4388936 C40.1510039,43.4422378 39.8131384,43.3047553 39.5641328,43.0571364 L33.5019127,37.0148743 C32.9838572,36.4975076 32.9832987,35.6581321 33.5006653,35.1400766 C34.018032,34.622021 34.8574075,34.6214626 35.375463,35.1388292 L41.4401779,41.1835861 C41.689262,41.4316963 41.8292782,41.7687911 41.8292782,42.1203612 C41.8292782,42.4719314 41.689262,42.8090262 41.4401779,43.0571364 C41.1857317,43.2960886 40.8511768,43.4313342 40.5021553,43.436337 L40.5021553,43.4388936 Z M37.8502459,40.0260278 C37.4962035,40.026548 37.1573295,39.8823463 36.9122233,39.6268679 C36.6623726,39.378659 36.521869,39.0410286 36.521869,38.6888453 C36.521869,38.3366621 36.6623726,37.9990317 36.9122233,37.7508228 L39.5641328,35.1188713 C39.8992559,34.7837481 40.3877086,34.6528676 40.8454954,34.7755312 C41.3032822,34.8981947 41.6608544,35.2557669 41.783518,35.7135537 C41.9061815,36.1713405 41.775301,36.6597932 41.4401779,36.9949163 L38.7882684,39.6268679 C38.5364802,39.8724939 38.2018219,40.0149017 37.8502459,40.0260278 L37.8502459,40.0260278 Z M34.2777771,43.5960004 C33.9278468,43.5994001 33.5910543,43.4628869 33.3422493,43.2167998 C33.0931651,42.9686896 32.953149,42.6315949 32.953149,42.2800247 C32.953149,41.9284545 33.0931651,41.5913597 33.3422493,41.3432495 L36.9122233,37.7508228 C37.2473465,37.4156996 37.7357992,37.2848191 38.1935859,37.4074827 C38.6513727,37.5301463 39.0089449,37.8877184 39.1316085,38.3455052 C39.2542721,38.803292 39.1233916,39.2917447 38.7882684,39.6268679 L35.2157996,43.2192946 C34.9659752,43.4650864 34.6282103,43.6007313 34.2777771,43.5960004 L34.2777771,43.5960004 Z M44.5710775,22.2135773 L38.7483525,22.2135773 C35.9296901,22.2094554 33.64574,19.9255053 33.6416182,17.1068429 L33.6416182,11.4188339 C33.620393,10.9277793 33.8702766,10.464664 34.2923568,10.212804 C34.7144371,9.96094408 35.2406666,9.96094408 35.6627469,10.212804 C36.0848271,10.464664 36.3347107,10.9277793 36.3134855,11.4188339 L36.3134855,17.1068429 C36.3134855,18.4415292 37.4111715,19.5392152 38.7483525,19.5392152 L44.5710775,19.5392152 C45.3095208,19.5392152 45.9082586,20.1379529 45.9082586,20.8763962 C45.9151069,21.233094 45.7764259,21.5772048 45.524156,21.8294747 C45.2718861,22.0817446 44.9277753,22.2204256 44.5710775,22.2135773 L44.5710775,22.2135773 Z M29.889528,47.5052592 L16.6449493,47.5052592 C13.8272588,47.5011411 11.5437099,45.2187077 11.5382149,42.4010196 L11.5382149,15.2108399 C11.5423368,12.3921775 13.8262869,10.1082274 16.6449493,10.1041055 L34.9763045,10.1041055 C35.6916833,10.135027 36.2557413,10.7239925 36.2557413,11.4400392 C36.2557413,12.156086 35.6916833,12.7450514 34.9763045,12.7759729 L16.6449493,12.7759729 C15.9987762,12.7746447 15.3786862,13.030748 14.9217718,13.4876624 C14.4648574,13.9445768 14.2087541,14.5646667 14.2100823,15.2108399 L14.2100823,42.4010196 C14.2100823,43.7357059 15.3077682,44.8333919 16.6449493,44.8333919 L29.8920228,44.8333919 C30.6305275,44.8333919 31.2292039,45.4320682 31.2292039,46.1705729 C31.2292039,46.9090776 30.6305275,47.507754 29.8920228,47.507754 L29.889528,47.5052592 Z M37.3912136,49.9975053 C31.4072404,49.9934003 26.5542113,45.1492963 26.5390912,39.1653408 C26.5542113,33.1813854 31.4072404,28.3372813 37.3912136,28.3331764 C43.3751867,28.3372813 48.2282159,33.1813853 48.2433359,39.1653408 C48.2295883,45.1502709 43.376158,49.9958911 37.3912136,50 L37.3912136,49.9975053 Z M37.3912136,30.9875805 C32.8737876,30.9930428 29.209969,34.6479416 29.1934954,39.1653408 C29.2017531,43.6865652 32.8699819,47.3469797 37.3912136,47.3455962 C41.9124452,47.3469797 45.580674,43.6865652 45.5889318,39.1653408 C45.5724581,34.6479415 41.9086396,30.9930428 37.3912136,30.9875805 L37.3912136,30.9875805 Z M44.5910354,29.3510306 C43.8535052,29.3496546 43.2563479,28.7513811 43.2563491,28.0138496 L43.2563491,21.4352181 L34.1605243,12.4790987 C33.8218359,12.148432 33.6852836,11.6621953 33.8023053,11.2035492 C33.9193269,10.7449031 34.2721441,10.383527 34.7278541,10.2555477 C35.1835641,10.1275684 35.6729336,10.252429 36.0116219,10.5830957 L45.9057638,20.3175743 L45.9057638,28.0163443 C45.9138746,28.3699423 45.7783583,28.7117365 45.5301484,28.9637071 C45.2819385,29.2156778 44.9422207,29.3563183 44.5885407,29.3535662 L44.5910354,29.3510306 Z M30.3286024,26.32491 L19.5163959,26.32491 C18.7778912,26.32491 18.1792148,25.7262337 18.1792148,24.987729 C18.1792148,24.2492243 18.7778912,23.6505479 19.5163959,23.6505479 L30.3286024,23.6505479 C31.0671071,23.6505479 31.6657835,24.2492243 31.6657835,24.987729 C31.6657835,25.7262337 31.0671071,26.32491 30.3286024,26.32491 Z M23.9270976,33.7218164 L19.5163959,33.7218164 C19.0253413,33.7430416 18.562226,33.493158 18.310366,33.0710778 C18.0585061,32.6489975 18.0585061,32.122768 18.310366,31.7006877 C18.562226,31.2786075 19.0253413,31.0287239 19.5163959,31.0499491 L23.9270976,31.0499491 C24.4181523,31.0287239 24.8812675,31.2786075 25.1331275,31.7006877 C25.3849874,32.122768 25.3849874,32.6489975 25.1331275,33.0710778 C24.8812675,33.493158 24.4181523,33.7430416 23.9270976,33.7218164 Z" id="形状" fill="#FFFFFF" fill-rule="nonzero"></path>
    </g>
</svg>