<?xml version="1.0" encoding="UTF-8"?>
<svg width="60px" height="60px" viewBox="0 0 60 60" version="1.1" xmlns="http://www.w3.org/2000/svg" xmlns:xlink="http://www.w3.org/1999/xlink">
    <title>icon/3-wenbenfenlei</title>
    <g id="icon/3-wenbenfenlei" stroke="none" stroke-width="1" fill="none" fill-rule="evenodd">
        <rect id="矩形备份-4" fill="#546DC8" x="0" y="0" width="60" height="60" rx="8"></rect>
        <g id="nlptc-智能文本分类" transform="translate(12.000000, 12.000000)" fill="#FFFFFF" fill-rule="nonzero">
            <path d="M24.4166854,26.2500352 L24.4166854,35.4166982 L15.2500224,35.4166982 L15.2500224,26.2500352 L24.4166854,26.2500352 Z M26.2500352,35.4166982 L26.2500352,26.2500352 L35.4166982,26.2500352 L35.4166982,35.4166982 L26.2500352,35.4166982 Z M13.4166726,31.7500416 L13.4166726,35.4166982 L0.58335299,35.4166982 L0.58335299,0.58335299 L28.083385,0.58335299 L35.4166982,7.88001382 L35.4166982,13.4166726 L31.7500416,13.4166726 L31.7500416,9.750016 L26.2500352,9.750016 L26.2500352,4.2500096 L4.2500096,4.2500096 L4.2500096,31.7500416 L13.4166726,31.7500416 L13.4166726,31.7500416 Z M26.2500352,15.2500224 L35.4166982,15.2500224 L35.4166982,24.4166854 L26.2500352,24.4166854 L26.2500352,15.2500224 Z M15.2500224,15.2500224 L24.4166854,15.2500224 L24.4166854,24.4166854 L15.2500224,24.4166854 L15.2500224,15.2500224 Z M18.0000256,18.0000256 L18.0000256,21.6666822 L21.6666822,21.6666822 L21.6666822,18.0000256 L18.0000256,18.0000256 Z M29.0000384,18.0000256 L29.0000384,21.6666822 L32.666695,21.6666822 L32.666695,18.0000256 L29.0000384,18.0000256 Z M29.0000384,29.0000384 L29.0000384,32.666695 L32.666695,32.666695 L32.666695,29.0000384 L29.0000384,29.0000384 Z M18.0000256,29.0000384 L18.0000256,32.666695 L21.6666822,32.666695 L21.6666822,29.0000384 L18.0000256,29.0000384 Z" id="形状"></path>
        </g>
    </g>
</svg>