<?xml version="1.0" encoding="UTF-8"?>
<svg width="60px" height="60px" viewBox="0 0 60 60" version="1.1" xmlns="http://www.w3.org/2000/svg" xmlns:xlink="http://www.w3.org/1999/xlink">
    <title>icon/3-4</title>
    <g id="icon/3-4" stroke="none" stroke-width="1" fill="none" fill-rule="evenodd">
        <rect id="矩形备份-4" fill="#546DC8" x="0" y="0" width="60" height="60" rx="8"></rect>
        <g id="新闻" transform="translate(7.391892, 11.500000)" fill="#FFFFFF" fill-rule="nonzero">
            <path d="M45.1479645,20.410378 C45.1479645,20.410378 45.8985452,23.4285283 42.3671967,24.9093357 C38.6210717,26.4918865 13.9626752,36.8621176 13.9626752,36.8621176 C13.9626751,36.8621176 8.27903849,40.4251174 5.92330485,32.919318 C3.57208639,25.4067177 6.00521598e-05,14.0145978 6.00521598e-05,14.0145978 L7.65509655,11.9934523 L6.12228393,6.92024577 L38.7499736,-1.501304e-05 L45.1480058,20.410363 L45.1479645,20.410378 Z M8.5164472,31.6645657 C8.5164472,31.6645657 9.98143841,37.3820943 16.6598204,33.7964886 L14.5595486,35.0715724 L8.56844486,14.9957975 L3.64671996,16.1352347 L8.51646221,31.6668251 L8.5164472,31.6645657 Z M41.4403066,23.245403 C41.4403066,23.245403 44.1306434,22.1511813 43.2579804,19.3726767 C42.3853175,16.5941683 37.9745163,2.49362841 37.9745163,2.49362841 L9.50442534,9.04989804 L11.1774072,14.3966421 L17.1752668,33.5319626 C18.032106,33.0933717 19.0585026,32.6027793 20.1979397,32.0669714 L16.3320069,19.7163064 L27.7942002,16.1374792 L31.2938974,27.3012508 C36.7514377,25.063073 41.4403104,23.245403 41.4403104,23.245403 L41.4403066,23.245403 Z M39.6836759,13.0876927 L40.3777362,15.2964824 L30.9140788,18.4841937 L30.1680208,16.1058467 L39.6859504,13.0876927 L39.6836759,13.0876927 Z M31.3865692,19.9989081 L40.8162971,16.7004194 L41.5103575,18.9092091 L32.1281083,22.3749957 L31.3888324,19.9989081 L31.3865692,19.9989081 Z M18.2581912,9.37999726 L19.6463156,9.04313992 L21.6855443,15.5609762 L20.1188173,16.0244362 L17.8761168,13.8812084 C17.2430957,13.2798386 16.5083388,12.5405627 15.9363607,11.8442391 L15.8979273,11.8555431 C16.2257416,12.7372514 16.5445127,13.6732169 16.8858905,14.7719575 L17.5189115,16.793103 L16.0697478,17.2226523 L13.9468702,10.4470797 L15.812019,9.98587912 L18.0095039,12.0612818 C18.6312202,12.6490873 19.2755461,13.3680168 19.8181323,14.0236437 L19.8384794,14.0168614 L19.8384794,14.0168613 C19.4669577,13.127714 19.1394986,12.2207913 18.8572984,11.299396 L18.2559286,9.38224957 L18.2581912,9.37999726 Z M24.0277024,13.5692359 L26.5710878,12.8457838 L26.9373354,14.0123496 L22.9651478,15.1811748 L20.9440023,8.71986263 L24.8393231,7.75902807 L25.2078313,8.92333436 L22.7661818,9.5495733 L23.1821669,10.8743953 L25.4813877,10.2685027 L25.8431138,11.4237637 L23.5484156,12.0567848 L24.0277032,13.5715104 L24.0277024,13.5692359 Z M30.0549501,10.2232722 L30.3330269,13.0062995 L28.8838631,13.4358488 L25.5130303,7.59397471 L26.9712394,7.23224865 L28.2191946,9.66485656 C28.5831812,10.3679623 28.9539515,11.1298478 29.2455911,11.7266949 L29.2659381,11.7221733 L29.2659373,11.7221682 C29.1440675,10.966134 29.0422963,10.2069959 28.9607312,9.445557 L28.6736113,6.81626326 L30.0594726,6.47714533 L31.3119504,8.90749003 C31.6623724,9.57668127 31.9494942,10.1961381 32.2456564,10.8427234 L32.2592212,10.8359411 C32.1326169,10.1418807 32.0399249,9.40486431 31.9291463,8.65427987 L31.6194183,6.09280753 L32.8945021,5.77855795 L33.3421384,12.122318 L31.9766236,12.5247388 L30.6766707,10.051438 L30.6766702,10.051437 C30.3676695,9.46110927 30.0810991,8.85931156 29.8175715,8.2473275 L29.7994852,8.25184909 C29.9080028,8.96625961 29.9984346,9.5676257 30.0549542,10.2232564 L30.0549501,10.2232722 Z M35.8651842,8.70854655 C34.8749579,8.59776796 34.1130724,8.21117205 33.8463019,7.36111871 C33.5320523,6.35054595 34.0746412,5.39423406 35.3203347,5.09128968 L35.3203345,5.09128976 C35.7853108,4.96647059 36.2729794,4.95176307 36.7446291,5.04833482 L36.8079312,6.16742559 L36.8079313,6.16742562 C36.4248398,6.06663933 36.0221938,6.06663933 35.6391061,6.16742556 C35.1213851,6.29629037 34.9563468,6.62862615 35.0467816,6.92705161 C35.1575602,7.30008136 35.5034595,7.38599273 36.283432,7.48546538 C37.3188738,7.6211127 37.9021567,8.03483756 38.1553629,8.84645751 C38.4537868,9.81181475 38.0626705,10.8223838 36.6406372,11.2428915 L36.6406371,11.2428915 C36.114415,11.4033907 35.5564254,11.4298136 35.0173934,11.3197583 L34.9201795,10.1509331 C35.2954702,10.2458861 35.8584044,10.2820589 36.3670837,10.1396291 C36.9119332,9.98137405 37.1199276,9.65129998 37.0001048,9.2737483 C36.8870656,8.90976165 36.568296,8.77411433 35.8651903,8.70855238 L35.8651842,8.70854655 Z" id="形状"></path>
        </g>
    </g>
</svg>