<?xml version="1.0" standalone="no"?><!DOCTYPE svg PUBLIC "-//W3C//DTD SVG 1.1//EN" "http://www.w3.org/Graphics/SVG/1.1/DTD/svg11.dtd"><svg t="1610591067376" class="icon" viewBox="0 0 1026 1024" version="1.1" xmlns="http://www.w3.org/2000/svg" p-id="3299" xmlns:xlink="http://www.w3.org/1999/xlink" width="200.390625" height="200"><defs><style type="text/css"></style></defs><path d="M536.016761 999.312935c-33.910803 33.865589-89.976664 32.735229-125.289114-2.532007l-383.463362-382.966003c-35.31245-35.267235-36.44281-91.287882-2.532007-125.153471l429.717697-429.12991c33.910803-33.865589 101.054193-60.496873 149.976179-59.502156l261.339256 5.244871c35.267235 0.72343 80.300782 16.412829 116.065375 38.206172 21.793343 35.719379 37.527955 80.662497 38.251386 115.884518l5.244871 260.977541c0.994717 48.876771-25.681782 115.929732-59.592585 149.795321L536.016761 999.312935zM794.417081 230.984566c-35.31245-35.31245-92.553885-35.31245-127.866335 0-35.31245 35.31245-35.31245 92.553885 0 127.866335 35.31245 35.31245 92.553885 35.31245 127.866335 0C829.774745 323.538451 829.774745 266.297015 794.417081 230.984566zM698.51733 582.662201 442.739445 326.884317c-17.633618-17.633618-46.29955-17.633618-63.933167 0-17.633618 17.678832-17.633618 46.29955 0 63.933167l255.777884 255.777884c17.633618 17.633618 46.29955 17.633618 63.933167 0C716.196162 628.961751 716.196162 600.295819 698.51733 582.662201zM602.617578 678.561952 346.839694 422.784068c-17.633618-17.633618-46.29955-17.633618-63.933167 0-17.633618 17.678832-17.633618 46.29955 0 63.933167l255.777884 255.777884c17.678832 17.678832 46.29955 17.678832 63.933167 0C620.251196 724.861502 620.251196 696.240784 602.617578 678.561952zM506.717827 774.506918 250.939943 518.729034c-17.633618-17.678832-46.29955-17.678832-63.933167 0-17.678832 17.678832-17.678832 46.29955 0 63.933167l255.777884 255.777884c17.678832 17.678832 46.29955 17.678832 63.933167 0C524.351445 820.761253 524.351445 792.140536 506.717827 774.506918zM1018.273596 70.925575c-9.85674-9.85674-22.607202-18.944835-36.44281-27.399929-8.455094-13.835608-17.588403-26.58607-27.445143-36.397595L1018.273596 70.925575z" p-id="3300" fill="#2B9EEA"></path></svg>