<?xml version="1.0" encoding="UTF-8"?>
<svg width="60px" height="60px" viewBox="0 0 60 60" version="1.1" xmlns="http://www.w3.org/2000/svg" xmlns:xlink="http://www.w3.org/1999/xlink">
    <title>icon/4-4</title>
    <g id="icon/4-4" stroke="none" stroke-width="1" fill="none" fill-rule="evenodd">
        <rect id="矩形备份-4" fill="#F8C27E" x="0" y="0" width="60" height="60" rx="8"></rect>
        <g id="icon_4-4">
            <rect id="矩形备份-4" fill="#F8C27E" x="0" y="0" width="60" height="60" rx="8"></rect>
            <path d="M14.3378906,25.7275391 L12.7480469,21.9033203 L9.2890625,21.9033203 L10.7929688,25.7275391 L14.3378906,25.7275391 Z M17.9902344,40.7666016 L21.5351562,35.7929688 L24.7578125,40.6484375 L28.7539062,40.6484375 L23.5869141,32.9248047 L27.8623047,26.9306641 L27.8623047,22.1611328 L15.0253906,22.9990234 L15.0253906,24.1699219 L24.4892578,23.5576172 L24.4892578,25.8134766 L21.5888672,29.9492188 L18.8710938,25.8886719 L14.9931641,25.8886719 L19.5693359,32.8173828 L13.9833984,40.7666016 L17.9902344,40.7666016 Z M14.4560547,30.8085938 L12.4580078,26.984375 L8.99902344,26.984375 L10.921875,30.8085938 L14.4560547,30.8085938 Z M12.5439453,40.6591797 L14.8320312,32.4521484 L11.3730469,32.4521484 L8.99902344,40.6591797 L12.5439453,40.6591797 Z M37.4335938,31.7109375 L50.2490234,30.9804688 L50.2490234,25.5341797 L44.9316406,25.8886719 L45.1357422,24.2021484 L50.8828125,23.8691406 L50.8828125,22.6982422 L45.2753906,23.03125 L45.4472656,21.6777344 L42.203125,21.6777344 L42.0097656,23.2246094 L37.0146484,23.5146484 L37.0146484,24.6855469 L41.8701172,24.40625 L41.6660156,26.1142578 L40.5810547,26.1787109 L40.5810547,27.3603516 L41.2148438,27.3173828 L41.2148438,30.3251953 L40.2158203,30.3789062 L40.2158203,25.8242188 L37.4335938,25.8242188 L37.4335938,31.7109375 Z M35.8652344,40.9384766 L35.8652344,30.4863281 L34.9521484,30.4863281 L37.1113281,26.2646484 L34.8125,26.2646484 L37.1542969,21.7207031 L33.78125,21.7207031 L30.8808594,27.15625 L33.2763672,27.15625 L30.7519531,32.0009766 L32.6425781,32.0009766 L32.6425781,40.9384766 L35.8652344,40.9384766 Z M46.5,30.0136719 L46.5,26.9628906 L47.4667969,26.8984375 L47.4667969,29.9599609 L46.5,30.0136719 Z M43.4169922,30.1962891 L43.4169922,27.1669922 L44.2978516,27.1132812 L44.2978516,30.1425781 L43.4169922,30.1962891 Z M36.6171875,34.5361328 L51.1621094,33.7089844 L51.1621094,32.4951172 L36.6171875,33.3652344 L36.6171875,34.5361328 Z M46.7041016,38.0810547 L45.7480469,34.4824219 L43.0625,34.4824219 L43.9648438,38.0810547 L46.7041016,38.0810547 Z M39.9794922,40.7880859 L47.8535156,40.2832031 L47.8535156,39.1123047 L43.0625,39.3916016 L43.0625,34.9873047 L39.9794922,34.9873047 L39.9794922,40.7880859 Z M51.2480469,39.6601562 L50.0878906,35.0625 L47.1982422,35.0625 L48.3046875,39.6601562 L51.2480469,39.6601562 Z M39.0556641,39.875 L39.8291016,35.5673828 L37.1435547,35.5673828 L36.3056641,39.875 L39.0556641,39.875 Z" id="汉德" fill="#FFFFFF" fill-rule="nonzero"></path>
        </g>
    </g>
</svg>