<?xml version="1.0" encoding="UTF-8"?>
<svg width="60px" height="60px" viewBox="0 0 60 60" version="1.1" xmlns="http://www.w3.org/2000/svg" xmlns:xlink="http://www.w3.org/1999/xlink">
    <title>icon/2-1</title>
    <g id="icon/2-1" stroke="none" stroke-width="1" fill="none" fill-rule="evenodd">
        <rect id="矩形备份-4" fill="#4BC8D5" x="0" y="0" width="60" height="60" rx="8"></rect>
        <g id="编组备份" transform="translate(13.000000, 12.500000)" fill="#FFFFFF" fill-rule="nonzero">
            <path d="M1.25,12.4921875 C1.93359375,12.4921875 2.49609375,11.9296875 2.49609375,11.2460937 L2.49609375,2.5 L11.2539063,2.5 C11.9375,2.5 12.5,1.94140625 12.5,1.25390625 C12.5,0.5703125 11.9414063,0.0078125 11.2539063,0.0078125 L1.25,0.0078125 C0.56640625,0.0078125 0.00390625,0.56640625 0.00390625,1.25390625 L0.00390625,11.2460937 C0.00390625,11.9335937 0.5625,12.4921875 1.25,12.4921875 L1.25,12.4921875 Z M34.9960938,1.25390625 C34.9960938,0.5703125 34.4375,0.0078125 33.75,0.0078125 L23.7460938,0.0078125 C23.0625,0.0078125 22.5,0.56640625 22.5,1.25390625 C22.5,1.9375 23.0585938,2.5 23.7460938,2.5 L32.5039062,2.5 L32.5039062,11.2460937 C32.5039062,11.9296875 33.0664062,12.4921875 33.75,12.4921875 C34.4335938,12.4921875 34.9960938,11.9296875 34.9960938,11.2460937 L34.9960938,1.25390625 L34.9960938,1.25390625 Z M11.2539063,32.5 L2.49609375,32.5 L2.49609375,23.7539062 C2.49609375,23.0703125 1.93359375,22.5078125 1.25,22.5078125 C0.56640625,22.5078125 0.00390625,23.0703125 0.00390625,23.7539062 L0.00390625,33.7460938 C0.00390625,34.4296875 0.5625,34.9921875 1.25,34.9921875 L11.2539063,34.9921875 C11.9375,34.9921875 12.5,34.4335938 12.5,33.7460938 C12.5,33.0585938 11.9375,32.5 11.2539063,32.5 L11.2539063,32.5 Z M33.75,22.5078125 C33.0664062,22.5078125 32.5039062,23.0703125 32.5039062,23.7539062 L32.5039062,32.5 L23.7460938,32.5 C23.0625,32.5 22.5,33.0585938 22.5,33.7460938 C22.5,34.4296875 23.0585938,34.9921875 23.7460938,34.9921875 L33.75,34.9921875 C34.4335938,34.9921875 34.9960938,34.4335938 34.9960938,33.7460938 L34.9960938,23.7539062 C34.9960938,23.0664062 34.4375,22.5078125 33.75,22.5078125 Z" id="形状"></path>
        </g>
        <path d="M42.2033094,24.5406081 C43.2892562,24.5406081 44.169923,25.5105952 44.169923,26.6294495 L44.169923,34.9879488 C44.169923,36.1068031 43.2892562,37.0767902 42.2033094,37.0767902 L18.7982576,37.0767902 C17.7123108,37.0767902 16.830077,36.1068031 16.830077,34.9879488 L16.830077,26.6294495 C16.9021601,25.4353781 17.7812598,24.5406081 18.7998246,24.5406081 L42.2033094,24.5406081 Z M40.3040779,32.8975405 C39.760321,32.8975405 39.3544621,33.345709 39.3544621,33.9427447 C39.3544621,34.5397803 39.761888,34.9879488 40.3040779,34.9879488 C40.8462678,34.9879488 41.2536937,34.5397803 41.2536937,33.9427447 C41.2536937,33.345709 40.8462677,32.8975405 40.3040779,32.8975405 Z M20.7664381,32.8975405 C20.2242483,32.8975405 19.8168224,33.345709 19.8168224,33.9427447 C19.8168224,34.5397803 20.2242483,34.9879488 20.7664381,34.9879488 C21.3101951,34.9879488 21.7160539,34.5397803 21.716054,33.9427447 C21.7468066,33.6739968 21.660123,33.4050468 21.4782237,33.2048375 C21.2963244,33.0046282 21.0368951,32.8926256 20.7664381,32.8975405 Z M36.4366657,26.6294495 L34.4700522,26.6294495 L34.4700522,34.9879488 L36.4366657,34.9879488 L36.4366657,26.6294495 Z M29.0434524,26.6294495 L27.2789847,26.6294495 L23.6842345,34.9879488 L25.8545611,34.9879488 L28.0938366,29.5394107 L30.3315451,34.9879488 L32.5018716,34.9879488 L29.0434524,26.6294495 Z M20.7664381,26.6294495 C20.2242483,26.6294495 19.8168224,27.077618 19.8168224,27.6746536 C19.8168224,28.2716893 20.2242483,28.7198578 20.7664381,28.7198578 C21.3101951,28.7198578 21.716054,28.2716893 21.716054,27.6746536 C21.716054,27.077618 21.308628,26.6294495 20.7664381,26.6294495 Z M40.3040779,26.6294495 C39.760321,26.6294495 39.3544621,27.077618 39.3544621,27.6746536 C39.3544621,28.2716893 39.761888,28.7198578 40.3040779,28.7198578 C40.8462678,28.7198578 41.2536937,28.2716893 41.2536937,27.6746536 C41.2536937,27.077618 40.8462677,26.6294495 40.3040779,26.6294495 Z" id="形状结合" fill="#FFFFFF" fill-rule="nonzero"></path>
    </g>
</svg>