<?xml version="1.0" encoding="UTF-8"?>
<svg width="60px" height="60px" viewBox="0 0 60 60" version="1.1" xmlns="http://www.w3.org/2000/svg" xmlns:xlink="http://www.w3.org/1999/xlink">
    <title>icon/4-3</title>
    <g id="icon/4-3" stroke="none" stroke-width="1" fill="none" fill-rule="evenodd">
        <rect id="矩形备份-4" fill="#F8C27E" x="0" y="0" width="60" height="60" rx="8"></rect>
        <g id="icon_4-3">
            <g id="编组-8" transform="translate(0.000000, 0.000034)">
                <rect id="矩形备份-4" fill="#F8C27E" x="0" y="0" width="60" height="60" rx="8"></rect>
                <g id="编组" transform="translate(10.000000, 18.500000)"></g>
            </g>
            <path d="M28.4041073,40.0535952 L27.4070744,40.0535952 C27.2340356,40.0535952 27.1549322,40.1112748 27.0947806,40.222514 C27.0700608,40.2670096 26.3259941,41.6677997 26.3259941,41.6677997 C26.2699625,41.7889269 26.1529553,41.776567 26.1043396,41.6677997 C26.1043396,41.6677997 25.4476163,40.3386971 25.4121845,40.2727776 C25.337201,40.1285786 25.2144259,40.0535952 25.0249073,40.0535952 L24.0633061,40.0535952 C24.0113945,40.0535952 23.9998585,40.0890269 24.0138664,40.1211627 C24.0270503,40.1541225 25.4978799,43.2152608 25.4978799,43.2152608 L24.7431013,44.6242908 C24.6689418,44.7668417 24.7628771,44.868193 24.9079001,44.868193 L25.9593167,44.868193 L28.4724989,40.1607144 C28.4980427,40.1129227 28.4807388,40.0535952 28.4041073,40.0535952 Z M41.2065046,40.0535952 L40.2102957,40.0535952 C40.0372569,40.0535952 39.9581535,40.1112748 39.8980019,40.222514 C39.8732821,40.2670096 39.1292153,41.6677997 39.1292153,41.6677997 C39.0723597,41.7889269 38.9545286,41.776567 38.9083849,41.6677997 C38.9083849,41.6677997 38.2508375,40.3386971 38.2162298,40.2727776 C38.1412463,40.1285786 38.0176472,40.0535952 37.8273045,40.0535952 L36.8665274,40.0535952 C36.8154397,40.0535952 36.8022558,40.0890269 36.8170877,40.1211627 C36.8302716,40.1541225 38.3011012,43.2152608 38.3011012,43.2152608 C38.3011012,43.2152608 37.5644504,44.588035 37.5463225,44.6242908 C37.4729871,44.7668417 37.5660984,44.868193 37.7111214,44.868193 L38.7617139,44.868193 L41.2757201,40.1607144 C41.3004399,40.1129227 41.2839601,40.0535952 41.2065046,40.0535952 L41.2065046,40.0535952 Z M44.7356716,40.3996727 C44.3566343,40.082435 43.832574,39.9242281 43.1618427,39.9242281 C42.4919355,39.9242281 41.991771,40.0890269 41.6201497,40.4062647 C41.2658322,40.7061985 41.0680736,41.1865871 41.0680736,41.5821043 C41.0680736,42.0690849 41.2790161,42.4901459 41.5995498,42.7645359 C41.9703472,43.0817737 42.5389032,43.2399806 43.1626667,43.2399806 C43.832574,43.2399806 44.3409784,43.0743577 44.7200157,42.757944 C45.054822,42.4569605 45.2519162,42.0321064 45.2654998,41.5821043 C45.2654998,41.0942998 45.0883411,40.7004306 44.7356716,40.3996727 L44.7356716,40.3996727 Z M43.833398,41.8911021 C43.5202802,42.4604821 43.1181711,42.7010884 42.6550863,42.5198097 C42.1944736,42.338531 42.145858,41.8943981 42.4919355,41.2731065 C42.8190612,40.6855987 43.2203463,40.4565283 43.6702471,40.644399 C44.1259159,40.8347416 44.1753556,41.2673386 43.833398,41.8911021 Z M31.9423383,40.3996727 C31.5633009,40.082435 31.0392406,39.9242281 30.3685094,39.9242281 C29.6986021,39.9242281 29.1984377,40.0890269 28.8268163,40.4062647 C28.4724989,40.7061985 28.2747402,41.1865871 28.2747402,41.5821043 C28.2747402,42.0690849 28.4856827,42.4901459 28.8062165,42.7645359 C29.1770138,43.0817737 29.7455698,43.2399806 30.3693334,43.2399806 C31.0392407,43.2399806 31.547645,43.0743577 31.9266824,42.757944 C32.2614887,42.4569605 32.4585829,42.0321064 32.4721665,41.5821043 C32.4721665,41.0942998 32.2950077,40.7004306 31.9423383,40.3996727 L31.9423383,40.3996727 Z M31.0400647,41.8911021 C30.7269469,42.4604821 30.3248377,42.7010884 29.861753,42.5198097 C29.4003163,42.338531 29.3525246,41.8943981 29.6986022,41.2731065 C30.0257278,40.6855987 30.427013,40.4565283 30.8769138,40.644399 C31.3325826,40.8347416 31.3828462,41.2673386 31.0400647,41.8911021 Z M33.0127067,40.211802 C32.872742,40.2536712 32.7786318,40.3846806 32.7836363,40.5306878 L32.7836363,43.1567572 L32.7927002,43.1625251 L32.7927002,43.1567572 L33.9462921,43.1567572 C34.0641232,43.1567572 34.1325147,43.0850697 34.1325147,42.9804224 L34.1325147,40.7177345 C34.9153092,40.5199759 35.4179456,40.7259744 35.4179456,41.0465081 L35.4179456,42.9886624 C35.4179456,43.0924856 35.4756252,43.1567572 35.5992243,43.1567572 L36.7585841,43.1567572 L36.7585841,41.0992438 C36.7585841,40.0626591 35.3783939,39.5699106 33.0127067,40.211802 L33.0127067,40.211802 Z M49.5420295,40.0535952 L48.3900857,40.0535952 C48.2714305,40.0535952 48.203039,40.1252826 48.203039,40.2307539 L48.203039,42.4926179 C47.4202446,42.6903765 46.9176081,42.4843779 46.9176081,42.1630202 L46.9176081,40.22169 C46.9176081,40.1186907 46.8599285,40.0535952 46.7363294,40.0535952 L45.5769696,40.0535952 L45.5769696,42.1111086 C45.5769696,43.1476932 46.9571598,43.6404417 49.3228471,42.9985503 C49.4622849,42.9559444 49.5560555,42.8254077 49.5519174,42.6796646 L49.5519174,40.0535952 L49.5428535,40.0535952 L49.5420295,40.0535952 Z" id="形状" fill="#FFFFFF" fill-rule="nonzero"></path>
            <path d="M27.5001857,19.4603331 L11.9884957,19.4603331 C11.5410669,19.478461 11.0590303,19.7256592 11.0590302,20.3609587 L11.0590302,28.0076245 C11.0590302,32.2858022 10.3330914,35.000039 10.0216216,35.9657601 L10.0142057,35.983064 C10.0026698,36.0292077 9.96476601,36.2483901 10.0933091,36.409069 C10.1730088,36.5078923 10.2953032,36.5624497 10.4220828,36.55574 L12.3955488,36.55574 C12.8075459,36.55574 13.0135444,36.2492141 13.068752,36.1577508 L13.076992,36.1404469 C13.5334847,35.1615418 13.7518432,33.2680033 13.9487778,31.4931198 L18.2434353,31.4931198 L18.2434353,35.1046863 C18.2434353,35.4688917 18.5400732,35.5784829 18.719704,35.5784829 L20.9502562,35.5784829 L21.0046398,35.5760109 C21.1785025,35.559531 21.3787331,35.4293399 21.3787331,35.1046863 L21.3787331,31.5186636 L25.6206551,31.5203116 L25.6206551,34.0565657 C25.6206551,34.0994134 25.6206551,34.1801648 25.5044719,34.1801648 L24.1687773,34.1801648 C23.7386524,34.1801648 23.6455411,34.4504349 23.6455411,34.6745613 L23.6455411,36.0432156 C23.6455411,36.3810532 23.9141632,36.5573905 24.1778413,36.5573905 C24.1949563,36.5573905 24.2120465,36.5560806 24.2289289,36.553268 L27.882519,36.553268 C27.9031189,36.553268 28.1206533,36.55162 28.3357158,36.4271969 C28.5417143,36.3077177 28.7856166,36.0588715 28.7856166,35.5422271 L28.7856166,20.745764 C28.7856166,19.5567404 28.1766849,19.4603331 27.5001857,19.4603331 Z M14.4481182,21.9117157 L18.2434353,21.9100678 C18.2434353,21.9158357 18.2409633,24.269987 18.2434353,24.275755 L14.0328252,24.275755 L14.0328252,22.433304 C14.0328252,22.433304 13.9842095,21.9117157 14.4481182,21.9117157 Z M18.2434353,29.1991201 C18.2360194,29.2296079 18.2434353,29.0804649 18.2434353,29.0870569 L14.0352972,29.0870569 L14.0352972,26.6974738 L18.2434353,26.6974738 L18.2434353,29.1991201 Z M21.3787331,21.9117157 L25.1361465,21.9117157 C25.4360804,21.9117157 25.6206551,22.0386108 25.6206551,22.4028163 L25.6206551,24.275755 L21.3795571,24.275755 L21.3795571,21.9117157 L21.3787331,21.9117157 Z M25.6931665,29.0870569 L21.3795571,29.0870569 L21.3795571,26.6974738 L25.6939905,26.6974738 L25.6939905,29.0870569 L25.6931665,29.0870569 Z M49.0591689,20.4491261 L37.2348527,20.4491261 C37.3073642,19.624308 37.337852,19.1332074 37.337852,19.1332074 C37.3765797,18.9041371 37.3048923,18.7624101 37.2381487,18.6824826 C37.1364668,18.5687621 36.9918676,18.5027365 36.8393355,18.5003799 L34.8296138,18.5003799 C34.5528065,18.4902459 34.3101328,18.6838946 34.2585858,18.9560487 C34.2585858,18.9560487 34.23057,19.5180127 34.1531146,20.4491261 L31.0730244,20.4491261 C30.9405902,20.4499974 30.8139266,20.5034437 30.7208996,20.597707 C30.6278725,20.6919702 30.5761029,20.8193283 30.5769799,20.9517625 L30.5769799,22.3640885 C30.5769799,22.6417745 30.7994584,22.866725 31.0730244,22.866725 L33.9125083,22.866725 C33.4659034,26.7271376 32.4952383,32.5082806 30.5077644,35.7696495 C30.4459648,35.8734728 30.3503815,36.1536308 30.4748047,36.3645733 C30.5275403,36.4502687 30.6346595,36.5540919 30.8620819,36.5565639 L32.8330759,36.5565639 C32.9558511,36.552444 33.3686721,36.5005323 33.6282303,36.1000712 L33.6628381,36.0415676 C33.66943,36.0308557 33.676022,36.0217917 33.676022,36.0151998 C34.9622768,33.7113121 35.8225267,30.2200488 36.3836668,27.0089436 L44.2223232,27.0089436 C44.3294425,27.0089436 44.5082492,26.9965837 44.5082492,27.2956936 C44.5082492,27.808218 43.5812558,29.1612164 42.3559764,30.5323426 C41.7309255,29.8717025 41.1579136,29.1637023 40.6420686,28.4146776 C40.5019896,28.2095031 40.2679753,28.2095031 40.2679752,28.2095031 L37.5356106,28.2095031 C37.2842924,28.2095031 37.2620445,28.3808939 37.3131322,28.499549 C38.186566,30.1112816 39.2561104,31.4601601 40.3132949,32.5511283 C39.5659322,33.1921958 38.8251615,33.7129601 38.1939819,33.9766382 C37.8808642,34.1084773 37.4441472,34.1809888 37.197773,34.1809888 L36.6077932,34.1809888 C36.2246359,34.1809888 36.1438845,34.4166511 36.1438845,34.709169 L36.1438845,36.1181991 C36.1438845,36.4667486 36.3119793,36.552444 36.5847214,36.552444 L37.9459597,36.552444 C38.4296443,36.552444 39.0237441,36.4263729 39.5057807,36.1948305 C40.2968151,35.8190892 41.2798401,35.1681338 42.2941769,34.3449636 C43.966885,35.6724182 45.1987563,36.2187264 44.8839905,36.0044879 C44.7266077,35.8998406 45.9073913,36.6290754 47.496876,36.6290754 L48.767475,36.6290754 C49.0006654,36.6290754 49.2593995,36.4931164 49.2593995,36.1874146 L49.2593995,34.5946338 C49.2593995,34.296348 49.0674089,34.2155965 48.8696503,34.2155965 L48.6570598,34.2155965 C47.3642129,34.2155965 46.9983595,33.9898221 46.5023151,33.7879436 C45.7739211,33.3772695 45.0766025,32.9137675 44.4159618,32.4011614 C46.4240356,30.3304641 48.1049837,27.8469457 48.1049837,25.8396959 C48.1049837,24.9151744 47.361741,24.5831048 46.6448661,24.5831048 L36.7635281,24.5831048 C36.843146,24.0123173 36.9167602,23.4407084 36.9843585,22.8683729 L49.0591689,22.8683729 C49.331087,22.8683729 49.5519351,22.6425985 49.5519351,22.3657365 L49.5519351,20.9509386 C49.5542038,20.6763856 49.333718,20.451844 49.0591689,20.4491261 L49.0591689,20.4491261 Z" id="形状" fill="#FFFFFF" fill-rule="nonzero"></path>
        </g>
    </g>
</svg>