<?xml version="1.0" encoding="UTF-8"?>
<svg width="60px" height="60px" viewBox="0 0 60 60" version="1.1" xmlns="http://www.w3.org/2000/svg" xmlns:xlink="http://www.w3.org/1999/xlink">
    <title>icon/3-3</title>
    <g id="icon/3-3" stroke="none" stroke-width="1" fill="none" fill-rule="evenodd">
        <rect id="矩形备份-4" fill="#546DC8" x="0" y="0" width="60" height="60" rx="8"></rect>
        <g id="编组" transform="translate(11.071006, 14.000000)" fill="#FFFFFF" fill-rule="nonzero">
            <path d="M3.05206005,8.35474261 C6.93122163,5.02441843 9.99511985,2.39035406 18.3093851,7.08744324 C22.3022218,9.34318282 25.5241994,10.1957458 28.2062205,10.1957458 C32.9015335,10.1957458 35.9441176,7.58299546 38.5755178,5.32192741 C39.513337,4.51643301 36.6545868,1.04490311 35.7158794,1.85128558 C31.8376059,5.18427401 28.7737077,7.81656223 20.4585543,3.11858491 C9.47203694,-3.08736314 4.32646407,1.33353118 0.191533605,4.88410078 C-0.745397603,5.69048329 2.11246459,9.16112508 3.05117194,8.35474261 L3.05206005,8.35474261 Z M35.7158794,13.1894852 C31.8376059,16.5215855 28.7737077,19.1547618 20.4585543,14.4567845 C9.47292505,8.25083646 4.32735218,12.6717308 0.192421679,16.2223004 C-0.744509529,17.0286829 2.11335266,20.4993247 3.05206005,19.6929422 C6.93122163,16.3608419 9.99511985,13.7276656 18.3093851,18.4247548 C22.3022218,20.6804943 25.5241994,21.5330573 28.2062205,21.5330573 C32.9015335,21.5330573 35.9441176,18.920307 38.5755178,16.660127 C39.513337,15.8537445 36.6554748,12.3831027 35.7158794,13.1894852 Z M35.7158794,24.5267967 C31.8376059,27.8588971 28.7737077,30.4911853 20.4585543,25.7940961 C9.47292505,19.588148 4.32735218,24.0090423 0.192421679,27.5596119 C-0.744509529,28.3659944 2.11335266,31.8366362 3.05206005,31.0302538 C6.93122163,27.6981534 9.99511985,25.0658652 18.3093851,29.7620663 C22.3022218,32.0195821 25.5241994,32.8703689 28.2062205,32.8703689 C32.9015335,32.8703689 35.9441176,30.2576185 38.5755178,27.9974385 C39.513337,27.1919441 36.6554748,23.7213023 35.7158794,24.5267967 Z" id="形状"></path>
        </g>
    </g>
</svg>