<?xml version="1.0" standalone="no"?><!DOCTYPE svg PUBLIC "-//W3C//DTD SVG 1.1//EN" "http://www.w3.org/Graphics/SVG/1.1/DTD/svg11.dtd"><svg t="1610591393757" class="icon" viewBox="0 0 1024 1024" version="1.1" xmlns="http://www.w3.org/2000/svg" p-id="6777" xmlns:xlink="http://www.w3.org/1999/xlink" width="200" height="200"><defs><style type="text/css"></style></defs><path d="M318.105988 695.141522h0.0512c20.991958 20.991958 55.03989 20.991958 76.031848 0L982.783058 106.598699c21.043158-21.043158 21.043158-55.19349 0-76.236648L982.629459 30.208452a53.759892 53.759892 0 0 0-76.031848 0.153599L318.105988 618.904874a53.964692 53.964692 0 0 0 0 76.236648zM970.136684 431.10365h-0.256c-29.644741 0-53.657493 24.012752-53.657492 53.606293v431.461537H107.776808V107.622697l431.410338 0.204799h0.0512a53.759892 53.759892 0 0 0 53.606292-53.964692v-0.204799C592.895838 24.013264 568.831886 0.000512 539.187146 0.000512H53.556117A53.350293 53.350293 0 0 0 0.001024 53.606805v916.836566A53.299093 53.299093 0 0 0 53.607317 1023.998464h916.836566A53.401493 53.401493 0 0 0 1023.998976 970.340971V484.761142a53.759892 53.759892 0 0 0-53.862292-53.606292z" p-id="6778" fill="#5075E7"></path></svg>