<?xml version="1.0" encoding="UTF-8"?>
<svg width="60px" height="60px" viewBox="0 0 60 60" version="1.1" xmlns="http://www.w3.org/2000/svg" xmlns:xlink="http://www.w3.org/1999/xlink">
    <title>icon/3-2</title>
    <g id="icon/3-2" stroke="none" stroke-width="1" fill="none" fill-rule="evenodd">
        <rect id="矩形备份-4" fill="#546DC8" x="0" y="0" width="60" height="60" rx="8"></rect>
        <g id="编组" transform="translate(14.615385, 10.000000)" fill="#FFFFFF" fill-rule="nonzero">
            <path d="M2.78365385,6.91266026 L27.8477564,6.91266026 C28.7691161,6.91266026 29.5160256,6.16575068 29.5160256,5.24439103 C29.5160256,4.32303137 28.7691161,3.57612179 27.8477564,3.57612179 L2.78365385,3.57612179 C1.86229419,3.57612179 1.11538462,4.32303137 1.11538462,5.24439103 C1.11538462,6.16575068 1.86229419,6.91266026 2.78365385,6.91266026 Z" id="路径"></path>
            <path d="M20.6490385,3.16586538 L27.0400641,6.69150641 C27.8368935,7.06513193 28.7869532,6.75756219 29.2136382,5.98783943 C29.6403231,5.21811667 29.3977419,4.24942329 28.6586538,3.77163462 L22.2612179,0.239583333 C21.8741714,0.0259146155 21.4179886,-0.0248886339 20.9934172,0.0983934361 C20.5688458,0.221675506 20.2108157,0.508900347 19.9983974,0.896634615 C19.7830582,1.28368491 19.7306397,1.74053165 19.8527165,2.16629703 C19.9747933,2.59206241 20.2613238,2.95172458 20.6490385,3.16586538 L20.6490385,3.16586538 Z" id="路径"></path>
            <path d="M22.4182692,10.4735577 L28.7163462,6.66266026 C29.5049451,6.18472153 29.7567849,5.15798992 29.2788462,4.36939103 C28.8009074,3.58079213 27.7741758,3.3289523 26.9855769,3.80689103 L20.6842949,7.61778846 C19.8984753,8.09864535 19.6479775,9.12353953 20.1233974,9.91266026 C20.3526289,10.2921524 20.7236155,10.5646722 21.1542907,10.669935 C21.5849658,10.7751978 22.0398327,10.7045277 22.4182692,10.4735577 L22.4182692,10.4735577 Z M9.52403846,39.8197508 C6.66185897,39.8197508 4.36378205,38.9863782 2.62660256,37.3261218 C0.889423077,35.6690705 0.0208333333,33.3902244 0.0208333333,30.4895833 C0.0208333333,27.2748397 0.97275641,24.0921474 2.87980769,20.9286859 C5.78685897,16.4671474 9.75160256,14.0024038 14.7932692,13.5408654 L14.9599359,13.4831731 L15.2483974,13.4831731 C15.3221154,13.4831731 15.4567308,13.4895833 15.6490385,13.5120192 C15.8413462,13.53125 15.9951923,13.5376603 16.1105769,13.5376603 C18.0913462,13.5376603 19.7323718,14.0921474 21.0336538,15.2011218 L21.3733974,15.431891 L21.4887821,15.3709936 L21.7163462,15.2524038 C22.4407051,14.7203526 23.2387821,14.4575321 24.1201923,14.4575321 C24.9951923,14.4575321 25.6939103,14.7043269 26.2067308,15.1979167 C26.7259615,15.6947115 26.9791667,16.3613782 26.9791667,17.2011218 C26.9791667,17.4735577 26.6650641,18.8902244 26.0304487,21.4671474 C25.4086538,24.0472756 24.7355769,26.7043269 24.0336538,29.4543269 C23.3285256,32.1979167 22.9375,33.806891 22.8573718,34.2652244 C22.8075139,34.6433895 22.7892884,35.0250547 22.8028846,35.40625 L22.8028846,35.7491987 C22.8028846,36.5088141 23.0464744,36.8966346 23.5400641,36.8966346 C24.4567308,36.8966346 25.3541667,35.1979167 26.2291667,31.7940705 C26.463141,30.9575321 26.6426282,30.4607372 26.7772436,30.306891 C26.9150641,30.1530449 27.3060897,30.0793269 27.9503205,30.0793269 L28.5240385,30.0793269 C29.4791667,30.0793269 30.0336538,30.1177885 30.1842949,30.1979167 C30.4567308,30.3453526 30.588141,30.5793269 30.588141,30.8838141 C30.588141,31.1883013 30.3958333,31.8774038 30.0144231,32.9447115 C29.5208333,34.3165064 28.9246795,35.556891 28.2387821,36.6658654 C27.1682692,38.2267628 25.9086538,39.2267628 24.4567308,39.6434295 C23.9667322,39.7361156 23.467909,39.7737423 22.9695513,39.755609 C20.4919872,39.755609 18.5048077,38.9190705 17.0144231,37.2363782 L16.5048077,37.5793269 C14.4716308,39.0421317 12.028747,39.8261427 9.52403846,39.8197508 L9.52403846,39.8197508 Z M19.5400641,19.4959936 C19.0464744,18.005609 18.1073718,17.0152244 16.7355769,16.5184295 C16.2618153,16.4696234 15.7853992,16.4514232 15.3092949,16.4639423 C14.088141,16.4639423 12.8830128,17.0536859 11.6971154,18.2363782 C11.0112179,18.9254808 10.4278846,19.8613782 9.95352564,21.0440705 C9.47916667,22.2235577 8.91185897,24.1338141 8.26442308,26.7684295 C7.46314103,29.931891 7.0625,32.1690705 7.0625,33.4639423 C7.0625,34.1530449 7.08173077,34.5921474 7.11698718,34.78125 C7.57852564,36.1947115 8.56891026,36.9030449 10.0977564,36.9030449 C12.2323718,36.9030449 14.1201923,35.8485577 15.7612179,33.7491987 L16.1073718,33.3517628 L17.8189103,26.4543269 C18.588141,23.3741987 19.1586538,21.0633013 19.5400641,19.4959936 L19.5400641,19.4959936 Z" id="形状"></path>
        </g>
    </g>
</svg>