<?xml version="1.0" encoding="UTF-8"?>
<svg width="60px" height="60px" viewBox="0 0 60 60" version="1.1" xmlns="http://www.w3.org/2000/svg" xmlns:xlink="http://www.w3.org/1999/xlink">
    <title>icon/3</title>
    <g id="icon/3" stroke="none" stroke-width="1" fill="none" fill-rule="evenodd">
        <rect id="矩形备份-4" fill="#546DC8" x="0" y="0" width="60" height="60" rx="8"></rect>
        <g id="编组" transform="translate(11.000000, 11.000000)" fill="#FFFFFF" fill-rule="nonzero">
            <path d="M19,0 C14.82,0 11.4,3.6005 11.4,7.999 C11.4,12.4006667 14.82,16.0011667 19,16.0011667 C23.18,16.0011667 26.6,12.4006667 26.6,7.999 C26.6,3.59733333 23.18,0 19,0 Z M19,12.0016667 C16.91,12.0016667 15.2,10.1998333 15.2,7.999 C15.2,5.80133333 16.91,3.9995 19,3.9995 C21.09,3.9995 22.8,5.80133333 22.8,7.999 C22.8,10.1998333 21.09,11.9985 19,11.9985 L19,12.0016667 Z M7.6,21.9956667 C3.42,21.9956667 1.4062825e-15,25.5961667 1.4062825e-15,29.9978333 C1.4062825e-15,34.4026667 3.42,38 7.6,38 C11.78,38 15.2,34.3995 15.2,30.001 C15.2,25.5993333 11.78,21.9988333 7.6,21.9988333 L7.6,21.9956667 Z M7.6,33.9973333 C5.51,33.9973333 3.8,32.1955 3.8,29.9978333 C3.8,27.797 5.51,25.9983333 7.6,25.9983333 C9.69,25.9983333 11.4,27.797 11.4,29.9978333 C11.4,32.1955 9.69,33.9973333 7.6,33.9973333 Z M19,18.1988333 C17.1,18.1988333 15.39,20.0006667 15.39,21.9988333 C15.39,24.0001667 17.1,25.7988333 19,25.7988333 C20.9,25.7988333 22.61,24.0001667 22.61,21.9988333 C22.61,20.0006667 20.9,18.1988333 19,18.1988333 L19,18.1988333 Z M30.4,21.9988333 C26.22,21.9988333 22.8,25.5993333 22.8,30.001 C22.8,34.4026667 26.22,38 30.4,38 C34.58,38 38,34.3995 38,30.001 C38,25.5993333 34.58,21.9988333 30.4,21.9988333 Z M30.4,34.0005 C28.31,34.0005 26.6,32.1986667 26.6,30.001 C26.6,27.8001667 28.31,26.0015 30.4,26.0015 C32.49,26.0015 34.2,27.8001667 34.2,30.001 C34.2,32.1986667 32.49,34.0005 30.4,34.0005 Z" id="形状"></path>
        </g>
    </g>
</svg>