<?xml version="1.0" encoding="UTF-8"?>
<svg width="60px" height="60px" viewBox="0 0 60 60" version="1.1" xmlns="http://www.w3.org/2000/svg" xmlns:xlink="http://www.w3.org/1999/xlink">
    <title>icon/1-2</title>
    <g id="icon/1-2" stroke="none" stroke-width="1" fill="none" fill-rule="evenodd">
        <g id="icon_1-2">
            <rect id="矩形备份-4" fill="#5075E7" x="0" y="0" width="60" height="60" rx="8"></rect>
            <g id="编组" transform="translate(18.000000, 13.500000)" fill="#FFFFFF" fill-rule="nonzero">
                <path d="M11.6732908,23.0988449 C15.2522159,23.1947962 18.231897,20.3725117 18.3301233,16.7936484 L18.3301233,6.30842992 C18.1390976,2.77101149 15.215055,0.000611013977 11.6724825,0.000611013977 C8.12991,0.000611013977 5.20586738,2.77101149 5.01484168,6.30842992 L5.01484168,16.7896066 C5.14041114,20.3571419 8.10335157,23.165028 11.6724825,23.0988449 L11.6732908,23.0988449 Z M22.0097713,12.2086388 C21.3040324,12.2080913 20.7239838,12.7652949 20.6961887,13.4704865 L20.6961887,16.8655923 C20.491452,21.7021057 16.5109023,25.5177178 11.6700574,25.5177178 C6.82921249,25.5177178 2.84866284,21.7021057 2.64392613,16.8655923 L2.64392613,13.1390595 C2.60523166,12.4416456 2.02842584,11.8959555 1.32993935,11.8959555 C0.631452855,11.8959555 0.0546470404,12.4416456 0.0159525674,13.1390595 L0.0159525674,16.8655923 C0.16335621,22.6202552 4.61494872,27.3434349 10.3508163,27.8309756 L10.3508163,30.4904752 L5.97193817,30.4904752 C5.27994983,30.4523042 4.68803877,30.9823279 4.6498678,31.6743163 C4.61169684,32.3663046 5.14172054,32.9582157 5.83370887,32.9963866 C5.87970763,33.0001701 5.9259394,33.0001701 5.97193817,32.9963866 L17.3592847,32.9963866 C17.8176569,33.0128545 18.248437,32.7777095 18.4825092,32.3832651 C18.7165815,31.9888207 18.7165815,31.4980411 18.4825092,31.1035967 C18.248437,30.7091523 17.8176569,30.4740074 17.3592847,30.4904752 L12.9795982,30.4904752 L12.9795982,27.8309756 C18.7157468,27.3429739 23.1671027,22.6189794 23.3136536,16.8639756 L23.3136536,13.4688698 C23.3130121,13.1329278 23.1787775,12.811036 22.9405488,12.5741721 C22.7023202,12.3373082 22.3796625,12.2049252 22.0437224,12.2062137 L22.0073462,12.2062137 L22.0097713,12.2086388 Z" id="形状"></path>
            </g>
        </g>
    </g>
</svg>