<?xml version="1.0" standalone="no"?><!DOCTYPE svg PUBLIC "-//W3C//DTD SVG 1.1//EN" "http://www.w3.org/Graphics/SVG/1.1/DTD/svg11.dtd"><svg t="1610590714934" class="icon" viewBox="0 0 1024 1024" version="1.1" xmlns="http://www.w3.org/2000/svg" p-id="1106" xmlns:xlink="http://www.w3.org/1999/xlink" width="200" height="200"><defs><style type="text/css"></style></defs><path d="M475.178667 365.994667c9.642667 11.989333 22.442667 18.005333 37.333333 18.005333 13.866667 0 26.154667-6.016 35.754667-18.005333 9.6-11.989333 14.933333-27.477333 14.933333-45.482667s-5.333333-33.493333-14.933333-45.994667c-10.112-12.032-21.888-18.517333-35.754667-18.517333-14.890667 0-27.690667 6.485333-37.333333 18.986667-9.557333 13.013333-14.378667 28.032-14.378667 45.525333 0 18.005333 4.821333 33.493333 14.378667 45.482667z m94.421333 374.016c-4.266667-6.016-6.4-15.530667-6.4-28.032V448h-136.533333v16.512c13.866667 2.986667 22.954667 6.997333 27.178666 11.989333 4.309333 4.992 6.954667 14.506667 6.954667 29.013334v203.989333c0 15.488-3.2 25.984-8.533333 31.488-3.2 3.498667-11.733333 6.997333-25.6 10.496V768h170.666666v-16.512c-13.866667-0.981333-23.466667-4.992-27.733333-11.477333zM512 150.954667c199.381333 0 361.045333 161.621333 361.045333 361.045333 0 199.381333-161.664 361.002667-361.045333 361.002667S150.954667 711.381333 150.954667 512c0-199.424 161.664-361.045333 361.045333-361.045333zM512 938.666667c235.648 0 426.666667-191.061333 426.666667-426.666667 0-235.648-191.018667-426.666667-426.666667-426.666667S85.333333 276.352 85.333333 512c0 235.605333 191.018667 426.666667 426.666667 426.666667z" fill="#92A9F0" p-id="1107"></path></svg>