<?xml version="1.0" encoding="UTF-8"?>
<svg width="60px" height="60px" viewBox="0 0 60 60" version="1.1" xmlns="http://www.w3.org/2000/svg" xmlns:xlink="http://www.w3.org/1999/xlink">
    <title>icon/2-4</title>
    <g id="icon/2-4" stroke="none" stroke-width="1" fill="none" fill-rule="evenodd">
        <rect id="矩形备份-4" fill="#4BC8D5" x="0" y="0" width="60" height="60" rx="8"></rect>
        <g id="编组备份" transform="translate(13.000000, 12.500000)" fill="#FFFFFF" fill-rule="nonzero">
            <path d="M1.25,12.4921875 C1.93359375,12.4921875 2.49609375,11.9296875 2.49609375,11.2460937 L2.49609375,2.5 L11.2539063,2.5 C11.9375,2.5 12.5,1.94140625 12.5,1.25390625 C12.5,0.5703125 11.9414063,0.0078125 11.2539063,0.0078125 L1.25,0.0078125 C0.56640625,0.0078125 0.00390625,0.56640625 0.00390625,1.25390625 L0.00390625,11.2460937 C0.00390625,11.9335937 0.5625,12.4921875 1.25,12.4921875 L1.25,12.4921875 Z M34.9960938,1.25390625 C34.9960938,0.5703125 34.4375,0.0078125 33.75,0.0078125 L23.7460938,0.0078125 C23.0625,0.0078125 22.5,0.56640625 22.5,1.25390625 C22.5,1.9375 23.0585938,2.5 23.7460938,2.5 L32.5039062,2.5 L32.5039062,11.2460937 C32.5039062,11.9296875 33.0664062,12.4921875 33.75,12.4921875 C34.4335938,12.4921875 34.9960938,11.9296875 34.9960938,11.2460937 L34.9960938,1.25390625 L34.9960938,1.25390625 Z M11.2539063,32.5 L2.49609375,32.5 L2.49609375,23.7539062 C2.49609375,23.0703125 1.93359375,22.5078125 1.25,22.5078125 C0.56640625,22.5078125 0.00390625,23.0703125 0.00390625,23.7539062 L0.00390625,33.7460938 C0.00390625,34.4296875 0.5625,34.9921875 1.25,34.9921875 L11.2539063,34.9921875 C11.9375,34.9921875 12.5,34.4335938 12.5,33.7460938 C12.5,33.0585938 11.9375,32.5 11.2539063,32.5 L11.2539063,32.5 Z M33.75,22.5078125 C33.0664062,22.5078125 32.5039062,23.0703125 32.5039062,23.7539062 L32.5039062,32.5 L23.7460938,32.5 C23.0625,32.5 22.5,33.0585938 22.5,33.7460938 C22.5,34.4296875 23.0585938,34.9921875 23.7460938,34.9921875 L33.75,34.9921875 C34.4335938,34.9921875 34.9960938,34.4335938 34.9960938,33.7460938 L34.9960938,23.7539062 C34.9960938,23.0664062 34.4375,22.5078125 33.75,22.5078125 Z" id="形状"></path>
        </g>
        <g id="财务" transform="translate(20.500000, 20.500000)" fill="#FFFFFF" fill-rule="nonzero">
            <path d="M2.38562153,1.64880192 L16.8684384,1.64880192 C17.367639,1.64880192 17.7744394,1.28040149 17.7744394,0.825600961 C17.7744394,0.372000433 17.366439,1.11022302e-16 16.8684384,1.11022302e-16 L2.38442152,1.11022302e-16 C1.88642095,1.11022302e-16 1.47962047,0.36960043 1.47962047,0.823200958 C1.47962047,1.27560148 1.88642095,1.64880192 2.38562153,1.64880192 Z M7.87202791,9.19303564 L7.97202791,9.19303564 L7.87202791,9.19303564 Z M18.29404,3.30240384 L0.906019804,3.30240384 L0.906019838,3.30240384 C0.401839252,3.30898788 -0.00266059416,3.7209887 5.54956766e-06,4.22520492 L5.54956766e-06,17.9412209 C5.54956766e-06,18.4452215 0.408019259,18.8616219 0.906019838,18.8616219 L18.2940401,18.8616219 L18.2940401,18.8616219 C18.7977519,18.855041 19.2020605,18.4437702 19.2000808,17.9400209 L19.2000808,4.22400491 L19.2000808,4.22400517 C19.2046912,3.72034208 18.8001613,3.30827285 18.2964982,3.30362284 C18.2956787,3.30361528 18.2948593,3.30360882 18.2940398,3.30360346 L18.29404,3.30240384 Z M12.5820334,11.9232139 C13.082434,11.9232139 13.4892344,12.2916143 13.4892344,12.7464148 C13.4892344,13.1988154 13.081234,13.5696158 12.5832334,13.5696158 L10.4112309,13.5696158 L10.4112309,15.5640181 C10.4112309,16.0692187 10.0452304,16.4856192 9.60002992,16.4856192 C9.1548294,16.4856192 8.78762898,16.0692187 8.78762898,15.5640181 L8.78762898,13.5744158 L6.62162646,13.5744158 C6.12242587,13.5744158 5.7156254,13.2048154 5.7156254,12.7512148 C5.7156254,12.2988143 6.12362588,11.9268139 6.62162646,11.9268139 L8.78762898,11.9268139 L8.78762898,10.7412125 L6.62162646,10.7412125 C6.12242587,10.7412125 5.7156254,10.3716121 5.7156254,9.91801154 C5.7156254,9.46561101 6.12362588,9.09481058 6.62162646,9.09481058 L7.82282785,9.09481058 L7.37882734,8.23320958 L6.85442673,7.21440839 C6.62402646,6.76440787 6.75602661,6.23040725 7.15202707,6.016807 C7.54802753,5.80680676 8.06282813,6.00120698 8.2920284,6.4464075 L8.71442889,7.26600845 L8.73602892,7.3044085 L9.17042942,8.14440948 L9.17522943,8.14440948 L9.61562994,8.99761047 L10.0560305,8.14560948 L10.0608305,8.14560948 L10.495231,7.3044085 C10.502431,7.28880848 10.510831,7.27680847 10.518031,7.26600845 L10.9404315,6.4464075 C11.1708317,5.99760698 11.6844323,5.80440675 12.0804328,6.016807 C12.4764333,6.22800725 12.6084334,6.76440787 12.3768332,7.21440839 L11.8536325,8.23320958 L11.408432,9.09481058 L11.403632,9.09481058 L12.5856334,9.09481058 C13.083634,9.09481058 13.4916344,9.46321101 13.4916344,9.91801154 C13.4916344,10.3692121 13.083634,10.7412125 12.5856334,10.7412125 L10.4100309,10.7412125 L10.4100309,11.9232139 L12.5820334,11.9232139 L12.5820334,11.9232139 Z" id="形状"></path>
        </g>
    </g>
</svg>