<?xml version="1.0" encoding="UTF-8"?>
<svg width="60px" height="60px" viewBox="0 0 60 60" version="1.1" xmlns="http://www.w3.org/2000/svg" xmlns:xlink="http://www.w3.org/1999/xlink">
    <title>icon/4</title>
    <g id="icon/4" stroke="none" stroke-width="1" fill="none" fill-rule="evenodd">
        <rect id="矩形备份-4" fill="#F8C27E" x="0" y="0" width="60" height="60" rx="8"></rect>
        <g id="编组" transform="translate(6.065934, 18.500000)" fill="#FFFFFF" fill-rule="nonzero">
            <path d="M30.688023,15.4806006 L31.0000197,16.7259378 C31.0000197,16.7259378 30.6098583,17.0366097 29.8295353,17.3479439 C29.8295353,16.7252754 30.4535287,13.8470892 30.4535287,13.8470893 L33.1078191,13.8470893 L34.6691274,3.50019228 L32.0930018,3.50019228 L32.4838257,0 L30.5316935,0 L29.9852024,3.26702279 L27.1752449,3.26702279 L25.6139366,13.925254 L28.3463917,13.925254 L27.9555678,17.814283 C27.9555678,17.814283 26.3167571,18.2812844 24.9899431,18.2812844 L24.5991193,20.3036324 C24.5991193,20.3036324 30.2196968,19.6034615 31.3126788,18.5926187 C31.3908436,18.9814553 31.3908436,19.2152873 31.3908436,19.2152873 L33.1078191,19.2152873 L32.4056609,15.4806006 L30.6873606,15.4806006 L30.688023,15.4806006 Z M31.468346,5.29003323 L32.7176576,5.36753559 L31.7810051,12.0579107 L30.5316935,12.0579107 L31.4690084,5.29003323 L31.468346,5.29003323 Z M27.3315745,12.0579107 L28.5802237,5.29003323 L29.8295353,5.29003323 L28.7365532,12.0579107 L27.3315745,12.0579107 Z M45.0511323,8.71272316 L45.6751257,4.97869896 L47.5484307,4.97869896 L47.7047603,3.26702279 L45.90962,3.26702279 L46.0652872,0.544503794 L44.1919822,0.544503794 L43.8018207,3.26702279 L41.9285156,3.26702279 L42.0848452,0.544503794 L40.2108778,0.544503794 L39.898881,3.11201806 L38.1819056,3.11201806 L38.4932399,0.467001439 L36.5430949,0.467001439 L36.2310982,3.11201806 L34.9036218,3.11201806 L34.9036218,4.82236939 L36.1529334,4.82236939 L35.0599513,11.745914 L39.509382,11.745914 L39.3530524,13.301923 L34.045134,13.301923 L33.6543101,15.0129368 L38.8065614,15.0129368 C38.8065614,15.0129368 36.2310982,18.5919563 33.1866463,19.6034615 L33.1866463,21.7814767 C33.1866463,21.7814767 37.7917441,19.0589577 38.4945647,17.8136205 C38.2600703,20.2248052 38.182568,21.4701424 38.182568,21.7814767 L38.182568,21.8596415 L40.055873,21.8596415 L40.5241993,17.0366097 C40.5241993,17.0366097 43.7236559,21.0819682 45.7532905,21.8596415 L45.8314553,19.6034615 C45.8314553,19.6034615 41.9285157,16.3364387 41.5383542,15.0135992 L46.7681078,15.0135992 L47.0801045,13.3025854 L41.2263575,13.3025854 L41.382687,11.8247412 L46.5342758,11.8247412 L46.9250997,10.0349003 L37.4009202,10.0349003 L38.025576,4.82303179 L39.898881,4.90119658 L39.35239,8.71272316 L45.0504699,8.71272316 L45.0511323,8.71272316 Z M41.8503509,4.66736466 L43.8799854,4.66736466 L43.5679887,7.15671413 L41.4601894,7.15671413 L41.8503509,4.66736466 L41.8503509,4.66736466 Z M15.1544293,0.467001439 L13.5149562,0.467001439 C7.34788767,6.84604226 1.88430212,7.85622266 1.88430212,7.85622266 L1.88430212,10.0342378 C3.28403786,9.54340521 4.6642189,8.99849223 6.02173608,8.40072645 L5.63091218,9.95673548 L11.7979807,9.95673548 L11.3296545,12.7574192 L3.83577194,12.7574192 L3.60194001,14.5459354 L10.939493,14.5459354 L10.4711668,19.836631 L8.36336737,19.836631 L7.34855008,16.1801092 L5.08508358,16.1801092 L6.17806565,19.836631 L0.401820983,19.836631 L0.0109971074,21.5483072 L21.0870035,21.5483072 L21.5553298,19.8372934 L15.9347523,19.8372934 L18.3545484,16.2582739 L16.1685842,16.2582739 L13.2029595,19.9922982 L12.1881422,19.9922982 L12.8903004,14.4690954 L20.150351,14.4690954 L20.4623477,12.4467474 L13.2811243,12.4467474 L13.6712858,9.4128941 L19.9940215,9.4128941 L19.9940215,8.09071699 C22.023656,9.33539172 23.35047,9.64606361 23.35047,9.64606361 L23.35047,7.15671413 C16.9495696,4.66736466 15.1544293,0.466339011 15.1544293,0.466339011 L15.1544293,0.467001439 Z M6.95838861,7.93504985 C10.939493,6.06770654 12.812798,4.43419514 13.8276153,3.03385327 C15.9347523,5.36753561 17.8862221,6.92354462 19.5256952,7.93504985 L6.95838861,7.93504985 Z" id="形状"></path>
        </g>
    </g>
</svg>