<?xml version="1.0" encoding="UTF-8"?>
<svg width="60px" height="60px" viewBox="0 0 60 60" version="1.1" xmlns="http://www.w3.org/2000/svg" xmlns:xlink="http://www.w3.org/1999/xlink">
    <title>icon/1</title>
    <g id="icon/1" stroke="none" stroke-width="1" fill="none" fill-rule="evenodd">
        <rect id="矩形备份-4" fill="#5075E7" x="0" y="0" width="60" height="60" rx="8"></rect>
        <g id="音频转写" transform="translate(14.000000, 13.000000)" fill="#FFFFFF" fill-rule="nonzero">
            <path d="M7.76001286,1.99973262 C7.72259145,2.17553385 7.70382045,2.35452613 7.70401276,2.53400251 C7.70401276,3.98800342 8.94201342,5.20000601 10.4280171,5.20000601 L21.572034,5.20000601 C22.2320336,5.20000601 22.8920367,4.96000561 23.4720346,4.47400399 C24.0480353,3.98800342 24.2960348,3.34200306 24.2960348,2.61400065 L24.2960348,2.5340004 C24.2960348,2.35200015 24.2760348,2.17399999 24.2400347,1.99973262 L26.8700382,1.99973262 C28.2103436,1.9866904 29.5069604,2.47622104 30.5040385,3.37200333 C31.4680381,4.25400436 32.0040414,5.45200419 32.0000629,6.70000681 L32.0000178,14.9434711 L24.0018404,29.8487601 L28.5378457,32.0947619 L32.0000178,25.6434711 L32.0000629,29.3000193 C31.9960084,30.4923614 31.5178754,31.6306115 30.6770141,32.4668712 L30.5040383,32.6300233 C29.5066579,33.5250779 28.2100728,34.0138839 26.870038,34.0003121 L5.13002031,34.0003121 C3.87931792,34.0129793 2.66646807,33.5880193 1.69940904,32.8035891 L1.49601995,32.6300233 C0.548041115,31.7821379 0.00432095065,30.571851 1.78131995e-05,29.3000194 L1.78131995e-05,6.7000107 C0.0045809899,5.5083212 0.482700435,4.37084723 1.32313221,3.53506729 L1.49601641,3.37200723 C2.49299609,2.47605619 3.78968314,1.9864978 5.13001673,1.99973262 L7.76001286,1.99973262 Z M23.9998541,29.8507605 L24.4358554,33.6307649 C24.4518554,33.7687649 24.5398554,33.8907653 24.6678556,33.9547653 C24.7978559,34.0187652 24.9518559,34.0147655 25.0778553,33.9487652 L28.5358594,32.0987627 L23.9998541,29.8507605 Z M19.8360269,27.6000403 L5.31802181,27.7340403 L5.22002154,27.7380403 C4.44802104,27.7900403 3.84401838,28.3740422 3.85194136,29.0800403 C3.86001998,29.8160408 4.53201996,30.4080411 5.34802208,30.400043 L19.8680273,30.266043 L19.9640275,30.262043 C20.736028,30.210043 21.3420275,29.6260411 21.3341077,28.920043 C21.3240295,28.1840426 20.6540295,27.5920423 19.8360269,27.6000403 Z M23.4080664,21.4680449 L5.23603734,21.4680449 C4.46403684,21.5160448 3.85203612,22.0940449 3.85203612,22.8000465 C3.85203612,23.5360469 4.51603651,24.1340484 5.33203863,24.1340484 L23.4080675,24.1340484 L23.5040677,24.1300484 C24.2780686,24.0860482 24.8880689,23.5080492 24.8880689,22.8000472 C24.8880689,22.0640468 24.2260689,21.4680449 23.4080664,21.4680449 Z M19.3820534,6.85205391 L19.380046,6.84802008 L13.1780544,8.54602323 C12.4240539,8.73602329 11.8180544,9.43602582 11.8180544,10.1060239 L11.8180544,15.9460463 C11.8180544,15.9460463 11.3680539,15.676046 10.3660539,15.8000461 C8.89605332,15.9880465 7.70405115,16.9940486 7.70405115,18.0500487 C7.70405115,19.1080491 8.89605332,19.7540495 10.3660539,19.570052 C11.8360544,19.3840517 12.9140553,18.4060518 12.9140553,17.3500483 L12.9140553,12.3660464 C12.9140553,11.8980458 13.5460564,11.6980452 13.5460564,11.6980452 L19.032055,10.1640426 C19.032055,10.1640426 19.6360541,9.9820424 19.6360541,10.4820429 L19.6360541,14.4860632 C19.6360541,14.4860632 19.0800538,14.2000629 18.0800507,14.306063 C16.6100502,14.4660631 15.418048,15.4520631 15.418048,16.5060663 C15.418048,17.5640668 16.6100502,18.2320679 18.0800507,18.0720681 C19.5520517,17.914068 20.7420534,16.9280684 20.7420534,15.8720648 L20.7420534,7.71805531 C20.7420534,7.04805375 20.1320531,6.66005486 19.3820534,6.85205391 Z" id="形状结合"></path>
            <path d="M20.0300155,4.00000703 L11.9700139,4.00000703 C10.8960139,4.00000703 10.0000101,3.09001297 10.0000101,2.00000703 C10.0000101,0.910010043 10.8960103,7.03125818e-06 11.9700139,7.03125818e-06 L20.0300155,7.03125818e-06 C21.1040156,7.03125818e-06 22.0000101,0.910006528 22.0000101,2.00000703 L22.0000101,2.06000994 C22.0000101,2.60601174 21.8200191,3.09001192 21.4020179,3.45401312 L21.4020179,3.45401313 C21.0265522,3.79721025 20.5386251,3.99138758 20.0300155,4.00000703 L20.0300155,4.00000703 Z" id="路径"></path>
        </g>
    </g>
</svg>